<svg width="42" height="40" fill="none" xmlns="http://www.w3.org/2000/svg"><path d="M32.743 39.844a1.5 1.5 0 0 1-1.129-.512l-4.793-5.477c-1.93.497-3.915.747-5.908.745-5.313 0-10.328-1.73-14.113-4.865C2.937 26.535.81 22.25.81 17.676c0-4.574 2.13-8.856 5.99-12.058C10.585 2.483 15.6.756 20.913.756c5.313 0 10.328 1.727 14.11 4.862 3.863 3.2 5.99 7.485 5.99 12.058 0 4.882-2.457 9.46-6.77 12.672v8a1.5 1.5 0 0 1-1.5 1.5v-.004Zm-5.417-9.188a1.5 1.5 0 0 1 1.13.512l2.787 3.185v-4.776a1.5 1.5 0 0 1 .657-1.239c3.888-2.659 6.117-6.545 6.117-10.662 0-7.675-7.67-13.92-17.1-13.92-9.429 0-17.1 6.245-17.1 13.92S11.484 31.6 20.913 31.6c2.024.005 4.038-.29 5.976-.876a1.51 1.51 0 0 1 .437-.068Z" fill="#F8FDFE"/><path d="M15.55 21.8c-.05 0-.1 0-.148-.007-.047-.007-.1-.013-.146-.022a1.228 1.228 0 0 1-.142-.036c-.042-.014-.094-.031-.139-.05a1.596 1.596 0 0 1-.377-.225 1.48 1.48 0 0 1-.372-.455 1.5 1.5 0 0 1-.178-.706 1.524 1.524 0 0 1 .44-1.061 1.376 1.376 0 0 1 .355-.262 1.394 1.394 0 0 1 .413-.149 1.565 1.565 0 0 1 .441-.022 1.628 1.628 0 0 1 .288.058 1.438 1.438 0 0 1 .271.113 1.367 1.367 0 0 1 .244.162 1.48 1.48 0 0 1 .372.455 1.752 1.752 0 0 1 .113.27c.015.046.026.1.036.143a1.45 1.45 0 0 1 0 .586 1.422 1.422 0 0 1-.149.413 1.444 1.444 0 0 1-.49.542 1.615 1.615 0 0 1-.397.188 1.36 1.36 0 0 1-.288.058 1.386 1.386 0 0 1-.148.007Zm11.1 0a1.444 1.444 0 0 1-.573-.115 1.615 1.615 0 0 1-.377-.225 1.489 1.489 0 0 1-.542-1.309 1.474 1.474 0 0 1 .17-.558 1.485 1.485 0 0 1 .372-.455 1.56 1.56 0 0 1 .658-.311 1.565 1.565 0 0 1 .446-.022 1.628 1.628 0 0 1 .288.058 1.787 1.787 0 0 1 .271.113 1.608 1.608 0 0 1 .244.162 1.48 1.48 0 0 1 .373.455 1.587 1.587 0 0 1 .112.27c.014.047.026.1.036.143a1.368 1.368 0 0 1 .029.293 1.414 1.414 0 0 1-.065.436 1.411 1.411 0 0 1-.112.27 1.454 1.454 0 0 1-.263.355 1.271 1.271 0 0 1-.354.262 1.615 1.615 0 0 1-.271.113 1.36 1.36 0 0 1-.288.058 1.466 1.466 0 0 1-.154.007Zm-5.55 0a1.51 1.51 0 0 1-1.324-.794 1.402 1.402 0 0 1-.112-.27c-.014-.047-.026-.1-.036-.143a1.445 1.445 0 0 1 0-.59 1.422 1.422 0 0 1 .148-.413c.023-.044.05-.086.075-.127a1.465 1.465 0 0 1 .188-.228 1.511 1.511 0 0 1 1.496-.374 1.335 1.335 0 0 1 .271.113 1.56 1.56 0 0 1 .354.262 1.51 1.51 0 0 1 .411.768 1.484 1.484 0 0 1-.148 1.003 1.47 1.47 0 0 1-.75.68 1.617 1.617 0 0 1-.138.05c-.047.015-.1.026-.142.036a1.312 1.312 0 0 1-.293.027Z" fill="#F8FDFE"/></svg>