<svg width="136" height="30" fill="none" xmlns="http://www.w3.org/2000/svg"><path d="M20.583 4.5H13a3.105 3.105 0 0 0-2.167.91 3.104 3.104 0 0 0-2.166-.91H1.083c-.287 0-.563.123-.766.342A1.214 1.214 0 0 0 0 5.667v17.5c0 .31.114.606.317.825.203.218.479.341.766.341h6.238a2.102 2.102 0 0 1 1.532.684l1.214 1.308c.01.01.023.014.033.024.093.094.197.175.318.229h.003c.264.118.56.118.825 0h.002c.122-.054.226-.136.319-.229.01-.01.022-.014.032-.024l1.215-1.308a2.102 2.102 0 0 1 1.531-.684h6.238c.288 0 .563-.123.766-.341.203-.22.318-.516.318-.825v-17.5c0-.31-.115-.606-.318-.825a1.046 1.046 0 0 0-.766-.342ZM19.5 22h-5.155a4.15 4.15 0 0 0-2.428.804V8c0-.643.485-1.167 1.083-1.167h6.5V22Zm18.132 1.74c-.912 0-1.7-.148-2.364-.444a7.215 7.215 0 0 1-1.86-1.212l.888-.624-.144 2.04h-2.784v-18h2.976v7.992l-.72-.456a6 6 0 0 1 1.764-1.272c.656-.304 1.404-.456 2.244-.456 1.176 0 2.164.284 2.964.852.8.568 1.404 1.324 1.812 2.268.416.944.624 1.976.624 3.096s-.208 2.152-.624 3.096c-.408.944-1.012 1.7-1.812 2.268-.8.568-1.788.852-2.964.852Zm-.432-2.448c.592 0 1.096-.16 1.512-.48.416-.32.732-.76.948-1.32.216-.568.324-1.224.324-1.968s-.108-1.396-.324-1.956c-.216-.568-.532-1.012-.948-1.332-.416-.32-.92-.48-1.512-.48-.696 0-1.264.16-1.704.48-.44.32-.768.764-.984 1.332-.208.56-.312 1.212-.312 1.956s.104 1.4.312 1.968c.216.56.544 1 .984 1.32.44.32 1.008.48 1.704.48Zm13.35 2.448c-1.303 0-2.415-.284-3.335-.852a5.7 5.7 0 0 1-2.112-2.268c-.48-.944-.72-1.976-.72-3.096 0-1.128.24-2.168.72-3.12a5.68 5.68 0 0 1 2.112-2.28c.92-.576 2.032-.864 3.336-.864 1.304 0 2.416.288 3.336.864a5.596 5.596 0 0 1 2.1 2.28c.488.952.732 1.992.732 3.12 0 1.12-.244 2.152-.732 3.096-.48.944-1.18 1.7-2.1 2.268-.92.568-2.032.852-3.336.852Zm0-2.448c1 0 1.769-.348 2.305-1.044.544-.704.816-1.612.816-2.724 0-1.128-.272-2.044-.816-2.748-.536-.712-1.304-1.068-2.304-1.068-.992 0-1.76.356-2.304 1.068-.544.704-.816 1.62-.816 2.748 0 1.112.272 2.02.816 2.724.544.696 1.312 1.044 2.304 1.044Zm13.688 2.448c-1.304 0-2.416-.284-3.336-.852a5.7 5.7 0 0 1-2.112-2.268c-.48-.944-.72-1.976-.72-3.096 0-1.128.24-2.168.72-3.12a5.68 5.68 0 0 1 2.112-2.28c.92-.576 2.032-.864 3.336-.864 1.304 0 2.416.288 3.336.864a5.596 5.596 0 0 1 2.1 2.28c.488.952.732 1.992.732 3.12 0 1.12-.244 2.152-.732 3.096-.48.944-1.18 1.7-2.1 2.268-.92.568-2.032.852-3.336.852Zm0-2.448c1 0 1.768-.348 2.304-1.044.544-.704.816-1.612.816-2.724 0-1.128-.272-2.044-.816-2.748-.536-.712-1.304-1.068-2.304-1.068-.992 0-1.76.356-2.304 1.068-.544.704-.816 1.62-.816 2.748 0 1.112.272 2.02.816 2.724.544.696 1.312 1.044 2.304 1.044Zm8.216 2.208v-18h2.976v10.92l3.72-4.92h3.36l-4.368 5.76 4.464 6.24h-3.36l-3.816-5.328V23.5h-2.976Zm11.964 0V6.7h6.144c1.16 0 2.172.184 3.036.552.872.368 1.548.928 2.028 1.68.48.752.72 1.704.72 2.856 0 1.232-.264 2.212-.792 2.94-.52.72-1.208 1.292-2.064 1.716l3.792 7.056H93.85l-3.24-6.24h-3.12v6.24h-3.072Zm3.072-8.808h2.256c1.264 0 2.144-.256 2.64-.768.496-.52.744-1.176.744-1.968 0-.84-.244-1.496-.732-1.968-.488-.48-1.332-.72-2.532-.72H87.49v5.424Zm16.834 9.048c-1.448 0-2.656-.288-3.624-.864-.96-.584-1.68-1.352-2.16-2.304-.48-.96-.72-2.008-.72-3.144 0-1.096.224-2.108.672-3.036a5.477 5.477 0 0 1 1.992-2.232c.872-.568 1.936-.852 3.192-.852 1.152 0 2.112.236 2.88.708a4.486 4.486 0 0 1 1.728 1.896c.384.784.576 1.652.576 2.604 0 .264-.016.532-.048.804-.032.264-.08.54-.144.828h-7.752c.112.744.344 1.348.696 1.812.36.456.796.792 1.308 1.008.52.216 1.076.324 1.668.324a6.88 6.88 0 0 0 1.944-.264 7.733 7.733 0 0 0 1.656-.72l.144 2.52c-.456.24-1.024.452-1.704.636-.68.184-1.448.276-2.304.276Zm-3.336-7.608h4.848c0-.36-.068-.72-.204-1.08a2.05 2.05 0 0 0-.684-.924c-.312-.248-.736-.372-1.272-.372-.768 0-1.372.224-1.812.672-.44.448-.732 1.016-.876 1.704Zm12.496 7.608a3.68 3.68 0 0 1-1.752-.42 3.224 3.224 0 0 1-1.26-1.236c-.312-.536-.468-1.184-.468-1.944 0-.68.156-1.26.468-1.74.32-.488.736-.892 1.248-1.212a6.957 6.957 0 0 1 1.68-.768 11.756 11.756 0 0 1 1.788-.42c.592-.088 1.112-.14 1.56-.156-.032-.688-.208-1.188-.528-1.5-.32-.312-.864-.468-1.632-.468-.536 0-1.06.076-1.572.228-.504.144-1.076.372-1.716.684l-.264-2.424c.72-.352 1.44-.616 2.16-.792a9.364 9.364 0 0 1 2.208-.264c.896 0 1.668.16 2.316.48.648.32 1.148.836 1.5 1.548.352.704.528 1.636.528 2.796v3.24c0 .6.028 1.036.084 1.308.056.264.16.432.312.504.152.072.372.108.66.108h.384l-.264 2.448h-1.08a3.71 3.71 0 0 1-1.2-.18 2.633 2.633 0 0 1-.888-.48 2.513 2.513 0 0 1-.6-.732c-.392.44-.924.784-1.596 1.032a6.06 6.06 0 0 1-2.076.36Zm1.248-2.28c.264 0 .592-.068.984-.204a3.05 3.05 0 0 0 1.056-.66V17.86c-.56.024-1.12.116-1.68.276-.56.16-1.028.396-1.404.708-.376.312-.564.704-.564 1.176 0 .488.128.852.384 1.092.256.232.664.348 1.224.348Zm12.961 2.28c-1.216 0-2.24-.284-3.072-.852a5.364 5.364 0 0 1-1.872-2.268c-.416-.944-.624-1.976-.624-3.096s.208-2.152.624-3.096a5.364 5.364 0 0 1 1.872-2.268c.832-.568 1.856-.852 3.072-.852.88 0 1.624.148 2.232.444.608.288 1.144.66 1.608 1.116l-.72.624V5.5h2.976v18h-2.808l-.144-2.04.864.624a7.52 7.52 0 0 1-1.74 1.212c-.6.296-1.356.444-2.268.444Zm.432-2.448c.656 0 1.192-.16 1.608-.48.416-.32.724-.76.924-1.32.2-.568.3-1.224.3-1.968s-.1-1.396-.3-1.956c-.2-.568-.508-1.012-.924-1.332-.416-.32-.952-.48-1.608-.48-.624 0-1.156.16-1.596.48-.44.32-.776.764-1.008 1.332-.232.56-.348 1.212-.348 1.956s.116 1.4.348 1.968c.232.56.568 1 1.008 1.32.44.32.972.48 1.596.48Z" fill="#F8FDFE"/></svg>