<svg width="599" height="368" viewBox="0 0 599 368" fill="none" xmlns="http://www.w3.org/2000/svg">
<g clip-path="url(#clip0_78_330)">
<path d="M130.24 42.455H0.230484V129.455H130.24V42.455Z" fill="white"/>
<path d="M130.24 129.455C130.24 129.455 130.223 128.909 130.223 127.877C130.223 126.827 130.214 125.292 130.206 123.287C130.197 119.26 130.18 113.355 130.155 105.788C130.129 90.669 130.095 68.9467 130.061 42.455L130.249 42.6427C94.4212 42.6597 49.2295 42.6683 0.256092 42.6853H0.247556L0.478039 42.455C0.478039 73.4515 0.460966 102.921 0.460966 129.455L0.247556 129.242C38.5163 129.285 70.9888 129.319 93.9091 129.344C105.373 129.37 114.448 129.387 120.671 129.404C123.778 129.413 126.168 129.421 127.79 129.43C128.592 129.43 129.207 129.438 129.625 129.438C130.035 129.438 130.257 129.447 130.257 129.447C130.257 129.447 130.061 129.455 129.651 129.455C129.233 129.455 128.627 129.455 127.841 129.464C126.228 129.464 123.855 129.481 120.765 129.489C114.559 129.506 105.502 129.523 94.0542 129.549C71.0998 129.575 38.5846 129.609 0.256092 129.651H0.0170728V129.438C0.0170728 102.921 0 73.4515 0 42.455V42.2246H0.230483H0.23902C49.221 42.2417 94.4127 42.2587 130.231 42.2673H130.419V42.455C130.377 68.9893 130.342 90.7629 130.325 105.899C130.308 113.441 130.291 119.336 130.274 123.355C130.266 125.351 130.257 126.87 130.257 127.911C130.257 128.935 130.24 129.455 130.24 129.455Z" fill="#E0E0E0"/>
<path d="M0.230484 50.219C0.230484 50.0911 29.314 49.9887 65.1755 49.9887C101.037 49.9887 130.129 50.0911 130.129 50.219C130.129 50.347 101.054 50.4494 65.1755 50.4494C29.297 50.4494 0.230484 50.347 0.230484 50.219Z" fill="#E0E0E0"/>
<g opacity="0.3">
<path d="M5.36087 46.3029C5.36087 46.8745 4.89137 47.3438 4.31943 47.3438C3.74749 47.3438 3.27798 46.8745 3.27798 46.3029C3.27798 45.7313 3.74749 45.262 4.31943 45.262C4.89137 45.262 5.36087 45.7313 5.36087 46.3029Z" fill="#E0E0E0"/>
</g>
<g opacity="0.3">
<path d="M8.92909 46.3029C8.92909 46.8745 8.45959 47.3438 7.88765 47.3438C7.31571 47.3438 6.84621 46.8745 6.84621 46.3029C6.84621 45.7313 7.31571 45.262 7.88765 45.262C8.45959 45.262 8.92909 45.7313 8.92909 46.3029Z" fill="#E0E0E0"/>
</g>
<g opacity="0.3">
<path d="M12.4546 46.3029C12.4546 46.8745 11.9851 47.3438 11.4132 47.3438C10.8412 47.3438 10.3717 46.8745 10.3717 46.3029C10.3717 45.7313 10.8412 45.262 11.4132 45.262C11.9851 45.262 12.4546 45.7313 12.4546 46.3029Z" fill="#E0E0E0"/>
</g>
<path d="M46.0881 59.2885H11.4132V93.9453H46.0881V59.2885Z" fill="#E0E0E0"/>
<path d="M112.416 69.0917C112.416 69.2197 98.8943 69.3221 82.2142 69.3221C65.534 69.3221 52.0038 69.2197 52.0038 69.0917C52.0038 68.9637 65.5255 68.8614 82.2142 68.8614C98.9029 68.8614 112.416 68.9637 112.416 69.0917Z" fill="#E0E0E0"/>
<path d="M112.416 75.5333C112.416 75.6613 98.8943 75.7637 82.2142 75.7637C65.534 75.7637 52.0038 75.6613 52.0038 75.5333C52.0038 75.4054 65.5255 75.303 82.2142 75.303C98.9029 75.303 112.416 75.4054 112.416 75.5333Z" fill="#E0E0E0"/>
<path d="M112.416 81.975C112.416 82.1029 98.8943 82.2053 82.2142 82.2053C65.534 82.2053 52.0038 82.1029 52.0038 81.975C52.0038 81.847 65.5255 81.7446 82.2142 81.7446C98.9029 81.7446 112.416 81.847 112.416 81.975Z" fill="#E0E0E0"/>
<path d="M87.7031 88.4081C87.7031 88.4081 87.1994 88.4678 86.3031 88.5019C85.3129 88.519 84.0324 88.5446 82.4788 88.5787C79.252 88.6214 74.7875 88.647 69.8535 88.647C64.9194 88.647 60.4549 88.6214 57.2281 88.5787C55.6745 88.5446 54.3855 88.5275 53.4038 88.5019C52.4989 88.4763 52.0038 88.4422 52.0038 88.4081C52.0038 88.3739 52.5075 88.3483 53.4038 88.3142C54.394 88.2971 55.6745 88.2715 57.2281 88.2374C60.4549 88.1948 64.9194 88.1692 69.8535 88.1692C74.7875 88.1692 79.2435 88.1948 82.4788 88.2374C84.0324 88.2715 85.3214 88.2886 86.3031 88.3142C87.208 88.3398 87.7031 88.3739 87.7031 88.4081Z" fill="#E0E0E0"/>
<path d="M29.8774 105.643H13.5814V121.93H29.8774V105.643Z" fill="#E0E0E0"/>
<path d="M59.4305 105.643H43.1345V121.93H59.4305V105.643Z" fill="#E0E0E0"/>
<path d="M88.9921 105.643H72.6961V121.93H88.9921V105.643Z" fill="#E0E0E0"/>
<path d="M118.545 105.643H102.249V121.93H118.545V105.643Z" fill="#E0E0E0"/>
<path d="M261.411 0.179169H149.421V45.6459H261.411V0.179169Z" fill="white"/>
<path d="M261.411 45.6374C261.411 45.6374 261.411 45.3558 261.402 44.8269C261.402 44.2893 261.402 43.4959 261.385 42.472C261.385 40.3988 261.368 37.3529 261.351 33.4282C261.334 25.5788 261.308 14.2313 261.282 0.179171L261.411 0.30715C232.925 0.324214 193.264 0.341278 149.43 0.358342L149.609 0.179171C149.609 16.0998 149.609 31.4658 149.609 45.6459L149.438 45.4753C181.885 45.5094 209.859 45.535 229.732 45.5521C239.677 45.5691 247.59 45.5862 253.028 45.6033C255.742 45.6118 257.834 45.6203 259.259 45.6289C259.968 45.6289 260.506 45.6289 260.873 45.6374C261.24 45.6374 261.428 45.6459 261.428 45.6459C261.428 45.6459 261.248 45.6459 260.898 45.6545C260.531 45.6545 260.002 45.6545 259.302 45.663C257.885 45.663 255.802 45.6715 253.105 45.6886C247.675 45.6971 239.779 45.7142 229.851 45.7398C209.953 45.7568 181.937 45.791 149.447 45.8166H149.276V45.6459C149.276 31.4744 149.276 16.0998 149.276 0.179171V0H149.464C193.299 0.0170639 232.959 0.0426597 261.445 0.0511917H261.573V0.179171C261.547 14.2569 261.522 25.6385 261.504 33.4964C261.487 37.4126 261.479 40.45 261.47 42.5147C261.47 43.5385 261.462 44.3149 261.453 44.8525C261.453 45.3814 261.436 45.6374 261.436 45.6374H261.411Z" fill="#E0E0E0"/>
<path d="M149.532 6.30512C149.532 6.21127 174.561 6.12595 205.437 6.12595C236.313 6.12595 261.342 6.20273 261.342 6.30512C261.342 6.4075 236.313 6.48429 205.437 6.48429C174.561 6.48429 149.532 6.4075 149.532 6.30512Z" fill="#E0E0E0"/>
<g opacity="0.3">
<path d="M154.227 3.56636C154.227 4.01856 153.86 4.3769 153.416 4.3769C152.973 4.3769 152.605 4.01003 152.605 3.56636C152.605 3.1227 152.973 2.75583 153.416 2.75583C153.86 2.75583 154.227 3.1227 154.227 3.56636Z" fill="#EBEBEB"/>
</g>
<g opacity="0.3">
<path d="M157.01 3.56636C157.01 4.01856 156.643 4.3769 156.199 4.3769C155.755 4.3769 155.388 4.01003 155.388 3.56636C155.388 3.1227 155.755 2.75583 156.199 2.75583C156.643 2.75583 157.01 3.1227 157.01 3.56636Z" fill="#EBEBEB"/>
</g>
<g opacity="0.3">
<path d="M158.939 4.3769C159.387 4.3769 159.75 4.01401 159.75 3.56636C159.75 3.11872 159.387 2.75583 158.939 2.75583C158.492 2.75583 158.129 3.11872 158.129 3.56636C158.129 4.01401 158.492 4.3769 158.939 4.3769Z" fill="#EBEBEB"/>
</g>
<path d="M185.991 13.7023H158.939V40.74H185.991V13.7023Z" fill="#E0E0E0"/>
<path d="M253.668 20.9459C253.668 21.0398 239.745 21.1251 222.578 21.1251C205.412 21.1251 191.489 21.0483 191.489 20.9459C191.489 20.8435 205.403 20.7668 222.578 20.7668C239.754 20.7668 253.668 20.8435 253.668 20.9459Z" fill="#E0E0E0"/>
<path d="M253.668 26.449C253.668 26.5429 239.745 26.6282 222.578 26.6282C205.412 26.6282 191.489 26.5514 191.489 26.449C191.489 26.3467 205.403 26.2699 222.578 26.2699C239.754 26.2699 253.668 26.3467 253.668 26.449Z" fill="#E0E0E0"/>
<path d="M231.516 31.9607C231.516 31.9607 231.379 31.9863 231.106 31.9948C230.799 32.0033 230.415 32.0119 229.937 32.0289C228.878 32.046 227.427 32.063 225.652 32.0886C221.989 32.1057 217.004 32.1228 211.498 32.1398C205.992 32.1228 201.007 32.0972 197.345 32.0886C195.569 32.063 194.118 32.046 193.059 32.0289C192.581 32.0119 192.197 32.0033 191.89 31.9948C191.625 31.9863 191.48 31.9692 191.48 31.9607C191.48 31.9521 191.617 31.9351 191.89 31.9265C192.197 31.918 192.581 31.9095 193.059 31.8924C194.118 31.8753 195.569 31.8583 197.345 31.8327C201.007 31.8156 205.992 31.7986 211.498 31.7815C217.004 31.7986 221.981 31.8242 225.652 31.8327C227.427 31.8583 228.878 31.8753 229.937 31.8924C230.415 31.9095 230.799 31.918 231.106 31.9265C231.371 31.9351 231.516 31.9521 231.516 31.9607Z" fill="#E0E0E0"/>
<path d="M563.574 60.8499C563.574 60.8499 563.779 60.5768 564.206 60.1332C564.701 59.6298 565.315 59.0155 566.049 58.2817C567.62 56.7375 569.797 54.6215 572.23 52.3009L572.281 52.2497V52.5653C569.831 50.2873 567.637 48.2141 566.058 46.7039C565.324 45.9872 564.709 45.3814 564.206 44.8951C563.779 44.46 563.548 44.2126 563.565 44.187C563.582 44.1614 563.856 44.3747 564.317 44.7757C564.846 45.2364 565.495 45.808 566.263 46.4906C567.893 47.9496 570.121 49.9887 572.571 52.2582L572.742 52.4118L572.58 52.5653L572.529 52.6165C570.096 54.9372 567.876 57.019 566.263 58.5036C565.503 59.1947 564.854 59.7834 564.325 60.2526C563.864 60.6622 563.599 60.8755 563.574 60.8499Z" fill="#E0E0E0"/>
<path d="M544.666 44.1784C544.666 44.1784 544.461 44.4515 544.034 44.8951C543.539 45.3985 542.924 46.0128 542.19 46.7466C540.619 48.2908 538.443 50.4068 536.01 52.7274L535.959 52.7786V52.463C538.409 54.741 540.602 56.8143 542.182 58.3244C542.916 59.0411 543.53 59.6469 544.034 60.1332C544.461 60.5683 544.691 60.8157 544.674 60.8413C544.657 60.8669 544.384 60.6536 543.923 60.2612C543.394 59.8004 542.745 59.2288 541.977 58.5462C540.346 57.0873 538.118 55.0481 535.668 52.7786L535.498 52.6251L535.66 52.4715L535.711 52.4203C538.144 50.0996 540.363 48.0178 541.977 46.5333C542.737 45.8422 543.385 45.2535 543.915 44.7842C544.375 44.3747 544.64 44.1614 544.666 44.187V44.1784Z" fill="#E0E0E0"/>
<path d="M549.514 64.7831C549.403 64.7404 551.392 59.1691 553.945 52.3264C556.506 45.4924 558.665 39.9807 558.776 40.0234C558.887 40.066 556.907 45.6374 554.346 52.48C551.785 59.3141 549.625 64.8258 549.514 64.7831Z" fill="#E0E0E0"/>
<path d="M585.06 76.7108C585.06 76.7108 585.043 76.3865 585.043 75.7808C585.043 75.1579 585.034 74.2621 585.026 73.1017C585.017 70.7469 585 67.3171 584.983 62.9402C584.958 54.1949 584.932 41.6956 584.889 26.6282L585.069 26.8074C567.475 26.8159 546.322 26.833 523.572 26.8415L523.786 26.6282C523.786 44.733 523.769 61.831 523.76 76.7193L523.572 76.5316C541.832 76.5742 557.18 76.6084 567.987 76.6254C573.391 76.651 577.65 76.6681 580.578 76.6766C582.03 76.6852 583.148 76.6937 583.916 76.7022C584.292 76.7022 584.573 76.7022 584.778 76.7108C584.975 76.7108 585.077 76.7193 585.077 76.7193C585.077 76.7193 584.983 76.7193 584.795 76.7278C584.591 76.7278 584.317 76.7278 583.95 76.7364C583.191 76.7364 582.081 76.7534 580.647 76.7619C577.727 76.7705 573.485 76.7875 568.098 76.8131C557.265 76.8387 541.874 76.8729 523.564 76.907H523.376V76.7193C523.376 61.8396 523.359 44.7415 523.35 26.6282V26.4149H523.572C546.322 26.432 567.475 26.4405 585.069 26.449H585.248V26.6282C585.214 41.7468 585.18 54.2803 585.154 63.0511C585.137 67.4024 585.12 70.8237 585.111 73.17C585.103 74.3218 585.094 75.2091 585.094 75.8149C585.094 76.4121 585.077 76.7108 585.077 76.7108H585.06Z" fill="#E0E0E0"/>
<path d="M585.538 34.051C585.538 34.1705 571.658 34.2643 554.534 34.2643C537.41 34.2643 523.53 34.1705 523.53 34.051C523.53 33.9316 537.41 33.8377 554.534 33.8377C571.658 33.8377 585.538 33.9316 585.538 34.051Z" fill="#E0E0E0"/>
<path d="M528.575 30.3993C528.575 30.8601 528.207 31.2269 527.747 31.2269C527.286 31.2269 526.919 30.8515 526.919 30.3993C526.919 29.9472 527.286 29.5717 527.747 29.5717C528.207 29.5717 528.575 29.9472 528.575 30.3993Z" fill="#E0E0E0"/>
<path d="M531.588 30.3993C531.588 30.8601 531.221 31.2269 530.76 31.2269C530.299 31.2269 529.932 30.8515 529.932 30.3993C529.932 29.9472 530.299 29.5717 530.76 29.5717C531.221 29.5717 531.588 29.9472 531.588 30.3993Z" fill="#E0E0E0"/>
<path d="M534.61 30.3993C534.61 30.8601 534.243 31.2269 533.782 31.2269C533.321 31.2269 532.954 30.8515 532.954 30.3993C532.954 29.9472 533.321 29.5717 533.782 29.5717C534.243 29.5717 534.61 29.9472 534.61 30.3993Z" fill="#E0E0E0"/>
<path d="M570.89 296.972C574.441 295.137 578.632 294.898 582.576 295.555C584.693 295.905 586.904 296.536 588.347 298.132C589.789 299.727 590.062 302.526 588.406 303.891C587.425 304.701 586.042 304.829 584.77 304.812C581.68 304.778 578.257 304.232 575.79 306.092C574.381 307.15 573.442 308.916 571.76 309.437C570.113 309.949 568.252 308.976 567.381 307.491C566.51 306.007 566.476 304.147 566.886 302.475C566.886 302.475 567.313 298.823 570.898 296.98L570.89 296.972Z" fill="#EBEBEB"/>
<path d="M562.746 281.256C564.923 284.361 569.14 283.329 571.103 281.435C573.058 279.541 573.886 276.793 574.646 274.183C576.37 268.202 578.103 261.931 576.822 255.839C576.438 254.022 575.755 252.204 574.475 250.856C573.194 249.508 571.231 248.706 569.43 249.176C567.304 249.739 565.973 251.82 565.017 253.808C562.208 259.636 560.714 266.103 560.697 272.57C560.689 275.59 561.047 278.764 562.746 281.256Z" fill="#EBEBEB"/>
<path d="M556.779 285.709C559.135 282.911 559.587 278.824 558.537 275.317C557.487 271.811 555.114 268.825 552.383 266.393C549.182 263.535 545.408 261.316 541.362 259.892C539.766 259.329 538.084 258.893 536.402 259.047C534.721 259.209 533.031 260.071 532.245 261.564C531.084 263.774 532.194 266.461 533.398 268.645C535.515 272.502 537.939 276.188 540.637 279.669C542.805 282.467 545.289 285.223 548.601 286.486C551.905 287.748 555.345 287.603 557.095 285.308" fill="#EBEBEB"/>
<path d="M562.601 328.053C562.601 328.053 562.703 327.55 562.797 326.646C562.899 325.622 563.019 324.333 563.173 322.798C563.352 321.177 563.591 319.248 564.035 317.158C564.487 315.068 565.187 312.798 566.084 310.495C567.014 308.208 568.158 306.126 569.49 304.471C570.813 302.799 572.349 301.596 573.792 300.896C575.235 300.188 576.524 299.898 577.411 299.77C578.308 299.676 578.811 299.608 578.82 299.565C578.82 299.523 578.316 299.523 577.394 299.54C576.481 299.599 575.132 299.83 573.613 300.521C572.093 301.195 570.463 302.423 569.071 304.13C567.671 305.828 566.493 307.952 565.546 310.281C564.632 312.619 563.941 314.914 563.506 317.047C563.079 319.18 562.882 321.125 562.754 322.764C562.635 324.393 562.584 325.724 562.567 326.637C562.55 327.55 562.558 328.062 562.592 328.062L562.601 328.053Z" fill="#E0E0E0"/>
<path d="M562.865 325.093C562.865 325.093 562.899 324.862 562.899 324.436C562.899 323.941 562.899 323.327 562.899 322.567C562.899 320.946 562.9 318.591 562.985 315.691C563.13 309.889 563.625 303.644 564.59 294.839C565.503 286.563 566.732 276.93 568.021 270.668C568.303 269.243 568.576 267.963 568.841 266.837C569.088 265.71 569.31 264.738 569.515 263.953C569.694 263.211 569.84 262.613 569.951 262.136C570.044 261.718 570.087 261.496 570.062 261.487C570.044 261.487 569.968 261.692 569.831 262.101C569.686 262.571 569.507 263.168 569.285 263.893C569.046 264.67 568.798 265.634 568.516 266.751C568.226 267.869 567.91 269.149 567.612 270.574C566.331 276.247 564.974 284.182 564.001 293.004C563.036 301.826 562.601 309.855 562.558 315.674C562.524 318.583 562.584 320.938 562.66 322.559C562.703 323.318 562.746 323.941 562.771 324.427C562.806 324.854 562.831 325.076 562.848 325.076L562.865 325.093Z" fill="#E0E0E0"/>
<path d="M562.899 309.599C562.899 309.599 562.934 308.899 562.882 307.645C562.814 306.391 562.635 304.574 562.285 302.355C561.909 300.137 561.389 297.501 560.561 294.642C560.202 293.337 559.365 290.197 557.334 285.513C554.653 279.165 551.017 273.978 547.858 270.761C547.116 269.908 546.288 269.294 545.63 268.688C545.289 268.398 544.99 268.108 544.674 267.886C544.367 267.673 544.077 267.477 543.812 267.289C542.771 266.581 542.19 266.205 542.165 266.239C542.071 266.367 544.495 267.792 547.56 271.051C550.607 274.302 554.141 279.455 556.796 285.743C558.273 289.156 559.306 292.202 560.04 294.787C560.885 297.62 561.448 300.231 561.875 302.423C562.276 304.625 562.515 306.425 562.652 307.662C562.771 308.908 562.848 309.599 562.891 309.599H562.899Z" fill="#E0E0E0"/>
<path d="M547.918 336.927L549.472 358.197H576.805L578.359 336.927H547.918Z" fill="#E0E0E0"/>
<path d="M581.62 328.548H545.28V336.927H581.62V328.548Z" fill="#E0E0E0"/>
<path d="M545.28 357.378V359.707H546.988H581.022V357.378H545.28Z" fill="#EBEBEB"/>
<path d="M548.661 363.794L546.988 359.707H579.716L577.77 363.794H548.661Z" fill="#E0E0E0"/>
<path d="M577.855 343.88C577.855 343.88 577.821 343.948 577.727 344.076C577.616 344.221 577.488 344.401 577.317 344.614C576.933 345.109 576.396 345.791 575.721 346.653L575.653 346.747L575.585 346.653C574.586 345.271 573.246 343.419 571.675 341.244H571.897C570.736 342.89 569.438 344.725 568.047 346.696L567.927 346.866L567.791 346.704C566.365 345.015 564.829 343.181 563.224 341.269H563.488C563.412 341.363 563.326 341.474 563.241 341.585C561.824 343.36 560.45 345.075 559.161 346.704L559.024 346.875L558.896 346.696C557.513 344.733 556.216 342.899 555.046 341.244H555.268C553.373 343.419 551.759 345.254 550.522 346.662L550.436 346.755L550.368 346.645C549.745 345.595 549.241 344.759 548.883 344.153C548.729 343.88 548.601 343.667 548.499 343.488C548.413 343.334 548.379 343.257 548.379 343.249C548.379 343.249 548.439 343.317 548.541 343.462C548.652 343.633 548.789 343.838 548.96 344.102C549.335 344.699 549.864 345.518 550.522 346.551H550.377C551.589 345.117 553.177 343.257 555.046 341.065L555.165 340.928L555.268 341.073C556.446 342.72 557.761 344.546 559.152 346.499H558.887C560.185 344.861 561.551 343.146 562.959 341.363C563.045 341.252 563.13 341.15 563.207 341.048L563.335 340.885L563.471 341.048C565.068 342.959 566.613 344.793 568.03 346.491H567.774C569.182 344.546 570.488 342.72 571.666 341.082L571.777 340.92L571.888 341.082C573.425 343.283 574.74 345.151 575.721 346.551H575.585C576.285 345.706 576.839 345.049 577.241 344.563C577.42 344.358 577.565 344.187 577.685 344.051C577.787 343.94 577.838 343.88 577.847 343.889L577.855 343.88Z" fill="#F5F5F5"/>
<path d="M578.743 336.79C578.743 336.884 571.897 336.961 563.446 336.961C554.995 336.961 548.149 336.884 548.149 336.79C548.149 336.696 554.995 336.619 563.446 336.619C571.897 336.619 578.743 336.696 578.743 336.79Z" fill="#F5F5F5"/>
<path d="M580.126 359.937C580.126 360.031 572.682 360.108 563.506 360.108C554.329 360.108 546.877 360.031 546.877 359.937C546.877 359.843 554.32 359.767 563.506 359.767C572.691 359.767 580.126 359.843 580.126 359.937Z" fill="#F5F5F5"/>
<path d="M72.8327 63.3582H508.949C512.125 63.3582 514.703 65.9349 514.703 69.1088V347.353C514.703 354.212 509.129 359.784 502.265 359.784H78.6545C71.7912 359.784 66.2169 354.212 66.2169 347.353V69.9705C66.2169 66.3188 69.1791 63.3582 72.8327 63.3582Z" fill="#455A64"/>
<path d="M47.4624 337.857H533.364V352.088C533.364 358.547 528.114 363.794 521.652 363.794H59.1744C52.7123 363.794 47.4624 358.547 47.4624 352.088V337.857Z" fill="#455A64"/>
<path d="M501.403 75.1323H78.2533V325.46H501.403V75.1323Z" fill="#E0E0E0"/>
<path d="M246.25 337.857L252.277 347.447H337.12L342.72 337.857H246.25Z" fill="#263238"/>
<path d="M489.87 89.6367H90.8103V325.46H489.87V89.6367Z" fill="#263238"/>
<path d="M121.43 318.54C121.226 318.54 121.055 268.313 121.055 206.371C121.055 144.429 121.226 94.1927 121.43 94.1927C121.635 94.1927 121.806 144.412 121.806 206.371C121.806 268.33 121.635 318.54 121.43 318.54Z" fill="#E0E0E0"/>
<path d="M113.381 114.524C113.381 114.729 110.478 114.9 106.902 114.9C103.325 114.9 100.422 114.729 100.422 114.524C100.422 114.32 103.325 114.149 106.902 114.149C110.478 114.149 113.381 114.32 113.381 114.524Z" fill="#E0E0E0"/>
<path d="M113.876 101.795C113.876 101.999 110.973 102.17 107.397 102.17C103.82 102.17 100.917 101.999 100.917 101.795C100.917 101.59 103.82 101.419 107.397 101.419C110.973 101.419 113.876 101.59 113.876 101.795Z" fill="#E0E0E0"/>
<path d="M113.381 128.252C113.381 128.457 110.478 128.628 106.902 128.628C103.325 128.628 100.422 128.457 100.422 128.252C100.422 128.048 103.325 127.877 106.902 127.877C110.478 127.877 113.381 128.048 113.381 128.252Z" fill="#E0E0E0"/>
<path d="M113.381 141.972C113.381 142.176 110.478 142.347 106.902 142.347C103.325 142.347 100.422 142.176 100.422 141.972C100.422 141.767 103.325 141.596 106.902 141.596C110.478 141.596 113.381 141.767 113.381 141.972Z" fill="#E0E0E0"/>
<path d="M113.381 155.691C113.381 155.896 110.478 156.066 106.902 156.066C103.325 156.066 100.422 155.896 100.422 155.691C100.422 155.486 103.325 155.316 106.902 155.316C110.478 155.316 113.381 155.486 113.381 155.691Z" fill="#E0E0E0"/>
<path d="M113.381 169.41C113.381 169.615 110.478 169.786 106.902 169.786C103.325 169.786 100.422 169.615 100.422 169.41C100.422 169.206 103.325 169.035 106.902 169.035C110.478 169.035 113.381 169.206 113.381 169.41Z" fill="#E0E0E0"/>
<path d="M113.381 183.138C113.381 183.343 110.478 183.514 106.902 183.514C103.325 183.514 100.422 183.343 100.422 183.138C100.422 182.934 103.325 182.763 106.902 182.763C110.478 182.763 113.381 182.934 113.381 183.138Z" fill="#E0E0E0"/>
<path d="M113.381 196.858C113.381 197.062 110.478 197.233 106.902 197.233C103.325 197.233 100.422 197.062 100.422 196.858C100.422 196.653 103.325 196.482 106.902 196.482C110.478 196.482 113.381 196.653 113.381 196.858Z" fill="#E0E0E0"/>
<path d="M113.381 210.577C113.381 210.782 110.478 210.952 106.902 210.952C103.325 210.952 100.422 210.782 100.422 210.577C100.422 210.372 103.325 210.202 106.902 210.202C110.478 210.202 113.381 210.372 113.381 210.577Z" fill="#E0E0E0"/>
<path d="M113.381 224.296C113.381 224.501 110.478 224.672 106.902 224.672C103.325 224.672 100.422 224.501 100.422 224.296C100.422 224.092 103.325 223.921 106.902 223.921C110.478 223.921 113.381 224.092 113.381 224.296Z" fill="#E0E0E0"/>
<path d="M113.381 238.024C113.381 238.229 110.478 238.4 106.902 238.4C103.325 238.4 100.422 238.229 100.422 238.024C100.422 237.82 103.325 237.649 106.902 237.649C110.478 237.649 113.381 237.82 113.381 238.024Z" fill="#E0E0E0"/>
<path d="M113.381 251.744C113.381 251.948 110.478 252.119 106.902 252.119C103.325 252.119 100.422 251.948 100.422 251.744C100.422 251.539 103.325 251.368 106.902 251.368C110.478 251.368 113.381 251.539 113.381 251.744Z" fill="#E0E0E0"/>
<path d="M113.381 265.463C113.381 265.668 110.478 265.838 106.902 265.838C103.325 265.838 100.422 265.668 100.422 265.463C100.422 265.258 103.325 265.088 106.902 265.088C110.478 265.088 113.381 265.258 113.381 265.463Z" fill="#E0E0E0"/>
<path d="M113.381 279.182C113.381 279.387 110.478 279.558 106.902 279.558C103.325 279.558 100.422 279.387 100.422 279.182C100.422 278.978 103.325 278.807 106.902 278.807C110.478 278.807 113.381 278.978 113.381 279.182Z" fill="#E0E0E0"/>
<path d="M113.381 292.91C113.381 293.115 110.478 293.286 106.902 293.286C103.325 293.286 100.422 293.115 100.422 292.91C100.422 292.706 103.325 292.535 106.902 292.535C110.478 292.535 113.381 292.706 113.381 292.91Z" fill="#E0E0E0"/>
<path d="M113.381 306.63C113.381 306.834 110.478 307.005 106.902 307.005C103.325 307.005 100.422 306.834 100.422 306.63C100.422 306.425 103.325 306.254 106.902 306.254C110.478 306.254 113.381 306.425 113.381 306.63Z" fill="#E0E0E0"/>
<path d="M165.342 113.722C165.342 113.927 157.813 114.098 148.516 114.098C139.22 114.098 131.691 113.927 131.691 113.722C131.691 113.518 139.22 113.347 148.516 113.347C157.813 113.347 165.342 113.518 165.342 113.722Z" fill="#04959E"/>
<path d="M165.342 306.63C165.342 306.834 157.813 307.005 148.516 307.005C139.22 307.005 131.691 306.834 131.691 306.63C131.691 306.425 139.22 306.254 148.516 306.254C157.813 306.254 165.342 306.425 165.342 306.63Z" fill="#04959E"/>
<path d="M212.198 141.972C212.198 142.176 198.105 142.347 180.724 142.347C163.344 142.347 149.251 142.176 149.251 141.972C149.251 141.767 163.344 141.596 180.724 141.596C198.105 141.596 212.198 141.767 212.198 141.972Z" fill="#04959E"/>
<path d="M284.988 141.972C284.988 142.176 270.894 142.347 253.514 142.347C236.134 142.347 222.041 142.176 222.041 141.972C222.041 141.767 236.134 141.596 253.514 141.596C270.894 141.596 284.988 141.767 284.988 141.972Z" fill="#E0E0E0"/>
<path d="M257.168 155.691C257.168 155.896 236.399 156.066 210.781 156.066C185.163 156.066 164.394 155.896 164.394 155.691C164.394 155.486 185.163 155.316 210.781 155.316C236.399 155.316 257.168 155.486 257.168 155.691Z" fill="#E0E0E0"/>
<path d="M257.168 169.41C257.168 169.615 236.399 169.786 210.781 169.786C185.163 169.786 164.394 169.615 164.394 169.41C164.394 169.206 185.163 169.035 210.781 169.035C236.399 169.035 257.168 169.206 257.168 169.41Z" fill="#E0E0E0"/>
<path d="M321.029 210.577C321.029 210.782 300.26 210.952 274.642 210.952C249.024 210.952 228.255 210.782 228.255 210.577C228.255 210.372 249.024 210.202 274.642 210.202C300.26 210.202 321.029 210.372 321.029 210.577Z" fill="#E0E0E0"/>
<path d="M293.473 183.138C293.473 183.343 272.704 183.514 247.086 183.514C221.469 183.514 200.7 183.343 200.7 183.138C200.7 182.934 221.469 182.763 247.086 182.763C272.704 182.763 293.473 182.934 293.473 183.138Z" fill="#E0E0E0"/>
<path d="M406.845 183.138C406.845 183.343 386.076 183.514 360.459 183.514C334.841 183.514 314.072 183.343 314.072 183.138C314.072 182.934 334.841 182.763 360.459 182.763C386.076 182.763 406.845 182.934 406.845 183.138Z" fill="#E0E0E0"/>
<path d="M367.416 155.691C367.416 155.896 346.647 156.066 321.029 156.066C295.411 156.066 274.642 155.896 274.642 155.691C274.642 155.486 295.411 155.316 321.029 155.316C346.647 155.316 367.416 155.486 367.416 155.691Z" fill="#FAFAFA"/>
<path d="M431.507 210.577C431.507 210.782 410.738 210.952 385.12 210.952C359.502 210.952 338.733 210.782 338.733 210.577C338.733 210.372 359.502 210.202 385.12 210.202C410.738 210.202 431.507 210.372 431.507 210.577Z" fill="#FAFAFA"/>
<path d="M418.702 169.41C418.702 169.615 386.452 169.786 346.672 169.786C306.893 169.786 274.642 169.615 274.642 169.41C274.642 169.206 306.884 169.035 346.672 169.035C386.46 169.035 418.702 169.206 418.702 169.41Z" fill="#455A64"/>
<path d="M165.342 128.252C165.342 128.457 157.813 128.628 148.516 128.628C139.22 128.628 131.691 128.457 131.691 128.252C131.691 128.048 139.22 127.877 148.516 127.877C157.813 127.877 165.342 128.048 165.342 128.252Z" fill="#FAFAFA"/>
<path d="M165.342 292.91C165.342 293.115 157.813 293.286 148.516 293.286C139.22 293.286 131.691 293.115 131.691 292.91C131.691 292.706 139.22 292.535 148.516 292.535C157.813 292.535 165.342 292.706 165.342 292.91Z" fill="#FAFAFA"/>
<path d="M182.013 183.138C182.013 183.343 174.484 183.514 165.188 183.514C155.892 183.514 148.363 183.343 148.363 183.138C148.363 182.934 155.892 182.763 165.188 182.763C174.484 182.763 182.013 182.934 182.013 183.138Z" fill="#FAFAFA"/>
<path d="M451.67 183.138C451.67 183.343 444.141 183.514 434.845 183.514C425.549 183.514 418.02 183.343 418.02 183.138C418.02 182.934 425.549 182.763 434.845 182.763C444.141 182.763 451.67 182.934 451.67 183.138Z" fill="#04959E"/>
<path d="M212.198 237.939C212.198 238.144 198.105 238.314 180.724 238.314C163.344 238.314 149.251 238.144 149.251 237.939C149.251 237.734 163.344 237.564 180.724 237.564C198.105 237.564 212.198 237.734 212.198 237.939Z" fill="#04959E"/>
<path d="M284.988 237.939C284.988 238.144 270.894 238.314 253.514 238.314C236.134 238.314 222.041 238.144 222.041 237.939C222.041 237.734 236.134 237.564 253.514 237.564C270.894 237.564 284.988 237.734 284.988 237.939Z" fill="#E0E0E0"/>
<path d="M257.168 251.658C257.168 251.863 236.399 252.034 210.781 252.034C185.163 252.034 164.394 251.863 164.394 251.658C164.394 251.454 185.163 251.283 210.781 251.283C236.399 251.283 257.168 251.454 257.168 251.658Z" fill="#E0E0E0"/>
<path d="M257.168 265.386C257.168 265.591 236.399 265.762 210.781 265.762C185.163 265.762 164.394 265.591 164.394 265.386C164.394 265.181 185.163 265.011 210.781 265.011C236.399 265.011 257.168 265.181 257.168 265.386Z" fill="#E0E0E0"/>
<path d="M293.473 279.106C293.473 279.31 272.704 279.481 247.086 279.481C221.469 279.481 200.7 279.31 200.7 279.106C200.7 278.901 221.469 278.73 247.086 278.73C272.704 278.73 293.473 278.901 293.473 279.106Z" fill="#E0E0E0"/>
<path d="M406.845 279.106C406.845 279.31 386.076 279.481 360.459 279.481C334.841 279.481 314.072 279.31 314.072 279.106C314.072 278.901 334.841 278.73 360.459 278.73C386.076 278.73 406.845 278.901 406.845 279.106Z" fill="#E0E0E0"/>
<path d="M367.416 251.658C367.416 251.863 346.647 252.034 321.029 252.034C295.411 252.034 274.642 251.863 274.642 251.658C274.642 251.454 295.411 251.283 321.029 251.283C346.647 251.283 367.416 251.454 367.416 251.658Z" fill="#FAFAFA"/>
<path d="M418.702 265.386C418.702 265.591 386.452 265.762 346.672 265.762C306.893 265.762 274.642 265.591 274.642 265.386C274.642 265.181 306.884 265.011 346.672 265.011C386.46 265.011 418.702 265.181 418.702 265.386Z" fill="#455A64"/>
<path d="M182.013 279.106C182.013 279.31 174.484 279.481 165.188 279.481C155.892 279.481 148.363 279.31 148.363 279.106C148.363 278.901 155.892 278.73 165.188 278.73C174.484 278.73 182.013 278.901 182.013 279.106Z" fill="#FAFAFA"/>
<path d="M451.67 279.106C451.67 279.31 444.141 279.481 434.845 279.481C425.549 279.481 418.02 279.31 418.02 279.106C418.02 278.901 425.549 278.73 434.845 278.73C444.141 278.73 451.67 278.901 451.67 279.106Z" fill="#04959E"/>
<path d="M460.633 346.517C460.633 346.636 374.723 346.738 268.769 346.738C162.815 346.738 76.8875 346.636 76.8875 346.517C76.8875 346.397 162.781 346.295 268.769 346.295C374.757 346.295 460.633 346.397 460.633 346.517Z" fill="#263238"/>
<path d="M62.5292 271.307C50.7575 259.269 32.3188 254.209 16.0484 258.561C30.1847 268.031 46.0625 273.108 63.0755 273.244" fill="#04959E"/>
<path d="M46.7625 215.508C48.7002 201.823 43.3735 186.415 33.1213 176.466C32.7798 190.032 38.5163 205.304 46.7625 215.508Z" fill="#04959E"/>
<path d="M54.9659 241.369C47.6588 227.411 35.6651 215.952 21.3752 209.289C25.6604 225.047 39.148 237.948 55.094 241.522" fill="#04959E"/>
<path d="M56.6647 246.36C48.3929 246.59 40.0187 246.3 32.0201 244.184C24.0215 242.068 16.3558 237.999 11.029 231.668C27.1202 231.685 43.1772 236.582 56.5367 245.549" fill="#04959E"/>
<path d="M52.4648 229.927C56.6647 214.195 63.5963 203.316 75.9655 194.503C76.9045 202.156 75.018 210.125 70.7583 216.549C66.4986 222.974 59.8829 227.812 52.4733 229.927" fill="#04959E"/>
<path d="M83.691 257.051C83.9044 247.913 78.0143 238.929 69.5376 235.482C70.229 243.604 76.6057 252.998 83.691 257.051Z" fill="#04959E"/>
<path d="M87.6433 243.792C88.5823 230.653 97.9212 218.495 110.384 214.195C107.525 227.342 99.9187 238.28 87.6433 243.792Z" fill="#04959E"/>
<path d="M81.6849 267.323C84.6044 263.151 89.3591 260.557 94.2932 259.269C99.2272 257.981 104.366 257.87 109.454 257.759C102.582 265.309 92.2701 269.601 82.069 269.157" fill="#04959E"/>
<path d="M75.7777 300.854C84.9544 298.021 95.181 298.755 103.863 302.867C112.544 306.98 119.587 314.419 123.206 323.318C105.971 320.05 88.975 312.397 75.7692 300.862" fill="#04959E"/>
<path d="M56.861 289.199C59.7207 297.654 59.1744 307.875 52.8148 315.162C50.2282 306.485 51.7563 296.673 56.861 289.199Z" fill="#04959E"/>
<path d="M45.6869 284.506C44.893 295.376 37.9358 305.589 28.1104 310.324C27.6238 310.563 27.0604 310.785 26.5568 310.58C25.78 310.264 25.7117 309.206 25.8056 308.379C27.0519 297.543 35.0846 287.066 45.6869 284.515" fill="#04959E"/>
<path d="M38.3882 283.406C33.5481 288.636 26.4885 291.741 19.3606 291.776C12.2327 291.81 5.14745 288.781 0.256088 283.602C12.3778 282.28 26.3604 281.392 38.3882 283.406Z" fill="#04959E"/>
<path d="M36.57 186.56C36.57 186.56 36.6041 186.679 36.681 186.918C36.7749 187.165 36.8944 187.507 37.048 187.942C37.3895 188.863 37.8846 190.177 38.5078 191.866C39.1565 193.564 39.9163 195.655 40.787 198.086C41.2223 199.298 41.6918 200.603 42.1869 201.977C42.665 203.359 43.1686 204.826 43.6979 206.362C45.8491 212.497 48.2307 219.86 50.8002 228.059C53.327 236.275 55.9818 245.336 58.5939 254.901C61.1719 264.482 63.4512 273.645 65.3975 282.015C67.284 290.393 68.9145 297.961 70.0839 304.36C70.3827 305.956 70.673 307.474 70.9461 308.916C71.1937 310.358 71.4242 311.715 71.6376 312.995C72.0729 315.537 72.4485 317.73 72.7046 319.53C72.9778 321.305 73.1912 322.695 73.3363 323.668C73.4131 324.12 73.4729 324.479 73.5156 324.743C73.5583 324.982 73.5839 325.11 73.5924 325.11C73.6009 325.11 73.5924 324.982 73.5668 324.743C73.5327 324.479 73.49 324.12 73.4388 323.659C73.3107 322.687 73.1229 321.296 72.8924 319.513C72.6705 317.704 72.3205 315.511 71.9022 312.96C71.6973 311.681 71.4754 310.324 71.2449 308.874C70.9803 307.432 70.7071 305.905 70.4169 304.309C69.2815 297.902 67.6937 290.325 65.8243 281.93C63.9036 273.551 61.6329 264.371 59.0549 254.781C56.4428 245.208 53.7709 236.139 51.2185 227.931C48.6234 219.732 46.1991 212.377 44.0137 206.251C43.476 204.716 42.9552 203.257 42.4687 201.874C41.9565 200.501 41.4784 199.204 41.0345 197.992C40.1382 195.569 39.3614 193.488 38.687 191.798C38.0212 190.126 37.509 188.821 37.1419 187.908C36.9712 187.481 36.8346 187.148 36.7322 186.901C36.6383 186.671 36.5871 186.56 36.5785 186.56H36.57Z" fill="#263238"/>
<path d="M103.145 221.208C103.145 221.208 103.069 221.268 102.941 221.404C102.795 221.558 102.599 221.762 102.36 222.01C101.856 222.547 101.122 223.358 100.209 224.416C98.3821 226.54 95.7956 229.697 93.0725 233.929C90.3494 238.144 87.558 243.51 85.6117 249.884C83.6141 256.231 82.3678 263.458 81.1386 271C78.6716 286.102 75.6497 299.633 73.4644 309.42C72.3632 314.291 71.4668 318.242 70.8351 321.006C70.5364 322.354 70.3059 323.412 70.1352 324.163C70.0669 324.504 70.0071 324.777 69.9644 324.982C69.9303 325.17 69.9132 325.263 69.9217 325.263C69.9217 325.263 69.9559 325.17 70.0071 324.99C70.0583 324.786 70.1352 324.513 70.2205 324.18C70.4083 323.438 70.6729 322.38 71.0059 321.049C71.6632 318.293 72.6107 314.351 73.7717 309.496C76.0423 299.727 79.124 286.196 81.591 271.077C82.8288 263.526 84.0495 256.334 86.0214 250.012C87.9336 243.672 90.6738 238.331 93.3542 234.108C96.0346 229.876 98.5699 226.694 100.354 224.535C101.25 223.452 101.959 222.633 102.437 222.07C102.667 221.805 102.847 221.592 102.983 221.43C103.103 221.285 103.163 221.208 103.154 221.199L103.145 221.208Z" fill="#263238"/>
<path d="M34.7603 282.894C34.7603 282.894 34.9139 282.936 35.1956 282.971C35.5371 283.005 35.9468 283.056 36.4505 283.107C36.7322 283.133 37.031 283.167 37.3553 283.192C37.6883 283.244 38.0468 283.295 38.4309 283.355C39.1992 283.465 40.0785 283.585 41.0345 283.79C41.5126 283.884 42.0162 283.986 42.5369 284.088C43.0577 284.216 43.5955 284.353 44.1503 284.498C45.2686 284.754 46.4295 285.163 47.6673 285.53C50.1002 286.383 52.7294 287.484 55.3416 288.909C57.9452 290.359 60.25 292.023 62.2219 293.687C63.178 294.548 64.0999 295.359 64.8597 296.221C65.6792 297.031 66.3365 297.867 66.9511 298.627C67.5913 299.361 68.0437 300.128 68.4962 300.76C68.9571 301.383 69.2901 301.971 69.5547 302.441C69.8108 302.876 70.0242 303.234 70.1949 303.524C70.3486 303.772 70.4339 303.899 70.451 303.891C70.4681 303.882 70.4083 303.746 70.2803 303.481C70.1266 303.174 69.9388 302.799 69.7083 302.347C69.4608 301.852 69.1535 301.255 68.7096 300.606C68.2742 299.958 67.8389 299.173 67.2072 298.413C66.6096 297.629 65.9523 296.775 65.1414 295.939C64.3816 295.06 63.4597 294.233 62.5036 293.345C60.5317 291.648 58.2013 289.95 55.5635 288.482C52.9172 287.04 50.2624 285.94 47.8039 285.104C46.5576 284.737 45.3796 284.336 44.2442 284.097C43.6808 283.96 43.1345 283.832 42.6138 283.713C42.0845 283.619 41.5809 283.525 41.0943 283.44C40.1297 283.244 39.2419 283.158 38.4651 283.064C38.0809 283.022 37.7224 282.979 37.3809 282.936C37.0566 282.919 36.7493 282.902 36.4676 282.885C35.9639 282.868 35.5456 282.851 35.2042 282.834C34.9139 282.834 34.7603 282.834 34.7603 282.851V282.894Z" fill="#263238"/>
<path d="M31.3116 221.498C31.3116 221.498 31.6018 221.822 32.1823 222.343C32.8396 222.914 33.6761 223.639 34.6749 224.501C36.7919 226.31 39.7455 228.793 43.015 231.506C46.293 234.219 49.2722 236.659 51.4489 238.408C52.4904 239.227 53.3526 239.918 54.0355 240.456C54.6501 240.934 55.0001 241.181 55.0257 241.156C55.0513 241.13 54.7355 240.831 54.1465 240.311C53.4891 239.739 52.6526 239.014 51.6538 238.144C49.5368 236.335 46.5832 233.852 43.3137 231.139C40.0358 228.426 37.0566 225.986 34.8883 224.245C33.8469 223.426 32.9847 222.735 32.3018 222.198C31.6872 221.72 31.3286 221.472 31.3116 221.489V221.498Z" fill="#263238"/>
<path d="M28.3324 237.529C28.2982 237.649 34.6578 239.637 42.5455 241.966C50.4331 244.295 56.8525 246.087 56.8952 245.959C56.9293 245.84 50.5697 243.852 42.6821 241.522C34.7944 239.193 28.375 237.401 28.3409 237.529H28.3324Z" fill="#263238"/>
<path d="M51.8331 231.148C51.8331 231.148 52.0892 230.84 52.4904 230.235C52.9343 229.552 53.4977 228.699 54.1721 227.684C55.5976 225.534 57.6122 222.599 60.0024 219.467C62.3926 216.345 64.6975 213.623 66.3962 211.678C67.1986 210.765 67.873 209.997 68.4108 209.383C68.8888 208.837 69.1364 208.529 69.1108 208.504C69.0852 208.478 68.7949 208.751 68.2742 209.255C67.7535 209.758 67.0279 210.509 66.1486 211.456C64.3901 213.35 62.0341 216.046 59.6354 219.186C57.2366 222.326 55.2476 225.303 53.8989 227.504C53.2245 228.605 52.6867 229.509 52.3453 230.141C51.9953 230.772 51.816 231.131 51.8416 231.148H51.8331Z" fill="#263238"/>
<path d="M73.9339 240.038C73.8741 240.081 74.4802 241.002 75.4277 242.495C76.3753 243.988 77.6728 246.07 79.0045 248.408C80.3362 250.754 81.463 252.921 82.2654 254.508C83.0678 256.086 83.5544 257.076 83.6141 257.042C83.6654 257.016 83.2898 255.984 82.5642 254.363C81.8386 252.742 80.7545 250.541 79.4142 248.177C78.074 245.823 76.7338 243.758 75.7094 242.307C74.6851 240.857 73.9936 240.004 73.9424 240.038H73.9339Z" fill="#263238"/>
<path d="M81.4971 267.767C81.5313 267.826 82.7434 267.238 84.7324 266.342C86.7214 265.446 89.4957 264.277 92.6286 263.176C95.77 262.084 98.6638 261.265 100.772 260.728C102.881 260.19 104.204 259.892 104.187 259.823C104.187 259.789 103.845 259.823 103.239 259.926C102.633 260.02 101.763 260.182 100.695 260.412C98.5529 260.873 95.6249 261.641 92.4749 262.741C89.325 263.851 86.5507 265.071 84.5873 266.043C83.6056 266.53 82.8288 266.948 82.2995 267.246C81.7703 267.553 81.48 267.733 81.4971 267.758V267.767Z" fill="#263238"/>
<path d="M75.5387 300.905C75.5387 300.905 75.6667 300.964 75.9314 301.041C76.2472 301.118 76.6228 301.22 77.0753 301.331C78.1508 301.579 79.5764 301.912 81.3093 302.304C84.8775 303.132 89.8457 304.173 95.1383 305.947C100.422 307.747 104.964 310.034 108.037 312.005C109.582 312.986 110.777 313.856 111.588 314.479C112.399 315.102 112.843 315.452 112.868 315.426C112.877 315.418 112.783 315.307 112.587 315.128C112.39 314.948 112.1 314.667 111.699 314.343C110.922 313.669 109.744 312.756 108.208 311.732C105.152 309.676 100.602 307.321 95.2834 305.512C89.9567 303.72 84.9629 302.731 81.3776 301.98C79.6362 301.639 78.1935 301.357 77.1094 301.144C76.1021 300.956 75.5387 300.862 75.5302 300.896L75.5387 300.905Z" fill="#263238"/>
<path d="M54.0184 309.07C54.1465 309.087 54.9062 304.625 55.7086 299.105C56.5196 293.584 57.0659 289.088 56.9464 289.071C56.8183 289.054 56.0586 293.516 55.2562 299.036C54.4452 304.556 53.8989 309.053 54.0184 309.07Z" fill="#263238"/>
<path d="M31.6018 300.939C31.653 300.982 32.4127 300.052 33.6249 298.541C34.8371 297.031 36.5188 294.958 38.4138 292.697C40.3089 290.436 42.0674 288.431 43.3479 286.981C44.6198 285.53 45.4137 284.626 45.3625 284.583C45.3369 284.558 45.1149 284.754 44.7222 285.129C44.3296 285.505 43.7747 286.059 43.1089 286.759C41.7687 288.158 39.9675 290.137 38.0639 292.398C36.1602 294.659 34.5212 296.775 33.3688 298.337C32.7969 299.113 32.3445 299.753 32.0371 300.205C31.7384 300.657 31.5762 300.913 31.6018 300.93V300.939Z" fill="#263238"/>
<path d="M90.9128 321.714V332.78H88.147L78.3045 363.836H56.4769L46.9332 333.096L43.2455 332.78V321.714H90.9128Z" fill="#04959E"/>
<g opacity="0.3">
<path d="M90.9128 321.714V332.78H88.147L78.3045 363.836H56.4769L46.9332 333.096L43.2455 332.78V321.714H90.9128Z" fill="black"/>
</g>
<path d="M45.0893 333.096C45.0893 333.224 54.7269 333.326 66.6182 333.326C78.5094 333.326 88.147 333.224 88.147 333.096C88.147 332.968 78.5094 332.865 66.6182 332.865C54.7269 332.865 45.0893 332.968 45.0893 333.096Z" fill="#263238"/>
<path d="M29.3909 261.897C29.3909 261.897 29.886 262.059 30.7908 262.272C31.7725 262.511 33.0615 262.818 34.6237 263.194C37.8504 263.996 42.2894 265.207 47.0954 266.82C51.9099 268.441 56.1696 270.147 59.2256 271.461C60.6939 272.101 61.9061 272.638 62.8365 273.039C63.6902 273.415 64.1682 273.611 64.1767 273.585C64.1938 273.56 63.7414 273.304 62.9133 272.877C62.0853 272.442 60.8731 271.853 59.3537 271.162C56.3232 269.772 52.0636 268.006 47.232 266.376C42.4089 264.755 37.9443 263.586 34.6834 262.869C33.053 262.511 31.7298 262.247 30.8164 262.084C29.8945 261.922 29.3909 261.854 29.3823 261.88L29.3909 261.897Z" fill="#263238"/>
<path d="M52.3367 350.339C52.3367 350.467 59.0976 350.569 67.4376 350.569C75.7777 350.569 82.5386 350.467 82.5386 350.339C82.5386 350.211 75.7777 350.109 67.4376 350.109C59.0976 350.109 52.3367 350.211 52.3367 350.339Z" fill="#FAFAFA"/>
<path d="M51.4916 347.771C51.4916 347.899 58.6622 348.001 67.4974 348.001C76.3326 348.001 83.5032 347.899 83.5032 347.771C83.5032 347.643 76.3411 347.54 67.4974 347.54C58.6537 347.54 51.4916 347.643 51.4916 347.771Z" fill="#FAFAFA"/>
<path d="M177.927 235.182H168.313C168.245 234.386 168.063 233.665 167.768 233.017C167.484 232.369 167.086 231.812 166.575 231.347C166.075 230.869 165.467 230.506 164.751 230.256C164.035 229.994 163.222 229.864 162.313 229.864C160.722 229.864 159.376 230.25 158.273 231.023C157.183 231.795 156.353 232.903 155.785 234.347C155.228 235.79 154.95 237.523 154.95 239.545C154.95 241.682 155.234 243.472 155.802 244.915C156.381 246.347 157.217 247.426 158.308 248.153C159.398 248.869 160.711 249.227 162.245 249.227C163.12 249.227 163.904 249.119 164.597 248.903C165.29 248.676 165.893 248.352 166.404 247.932C166.915 247.511 167.33 247.006 167.648 246.415C167.978 245.812 168.2 245.136 168.313 244.386L177.927 244.455C177.813 245.932 177.398 247.437 176.683 248.972C175.967 250.494 174.95 251.903 173.631 253.199C172.325 254.483 170.705 255.517 168.773 256.301C166.842 257.085 164.597 257.477 162.04 257.477C158.836 257.477 155.961 256.79 153.415 255.415C150.881 254.04 148.876 252.017 147.398 249.347C145.933 246.676 145.2 243.409 145.2 239.545C145.2 235.659 145.95 232.386 147.45 229.727C148.95 227.057 150.972 225.04 153.518 223.676C156.063 222.301 158.904 221.614 162.04 221.614C164.245 221.614 166.273 221.915 168.126 222.517C169.978 223.119 171.603 224 173.001 225.159C174.398 226.307 175.523 227.722 176.376 229.403C177.228 231.085 177.745 233.011 177.927 235.182ZM201.045 233C200.954 231.864 200.528 230.977 199.766 230.341C199.016 229.705 197.874 229.386 196.34 229.386C195.363 229.386 194.562 229.506 193.937 229.744C193.323 229.972 192.869 230.284 192.573 230.682C192.278 231.08 192.124 231.534 192.113 232.045C192.09 232.466 192.164 232.847 192.335 233.188C192.516 233.517 192.8 233.818 193.187 234.091C193.573 234.352 194.067 234.591 194.67 234.807C195.272 235.023 195.988 235.216 196.817 235.386L199.681 236C201.613 236.409 203.266 236.949 204.641 237.619C206.016 238.29 207.141 239.08 208.016 239.989C208.891 240.886 209.533 241.898 209.942 243.023C210.363 244.148 210.579 245.375 210.59 246.705C210.579 249 210.005 250.943 208.869 252.534C207.732 254.125 206.107 255.335 203.994 256.165C201.891 256.994 199.363 257.409 196.408 257.409C193.374 257.409 190.727 256.96 188.465 256.062C186.215 255.165 184.465 253.784 183.215 251.92C181.977 250.045 181.352 247.648 181.34 244.727H190.34C190.397 245.795 190.664 246.693 191.141 247.42C191.619 248.148 192.289 248.699 193.153 249.074C194.028 249.449 195.067 249.636 196.272 249.636C197.283 249.636 198.13 249.511 198.812 249.261C199.494 249.011 200.011 248.665 200.363 248.222C200.715 247.778 200.897 247.273 200.908 246.705C200.897 246.17 200.721 245.705 200.38 245.307C200.05 244.898 199.505 244.534 198.744 244.216C197.982 243.886 196.954 243.58 195.658 243.295L192.181 242.545C189.09 241.875 186.653 240.756 184.869 239.188C183.096 237.608 182.215 235.455 182.227 232.727C182.215 230.511 182.806 228.574 183.999 226.915C185.204 225.244 186.869 223.943 188.994 223.011C191.13 222.08 193.579 221.614 196.34 221.614C199.158 221.614 201.596 222.085 203.653 223.028C205.71 223.972 207.295 225.301 208.408 227.017C209.533 228.722 210.102 230.716 210.113 233H201.045ZM233.013 233C232.923 231.864 232.496 230.977 231.735 230.341C230.985 229.705 229.843 229.386 228.309 229.386C227.332 229.386 226.531 229.506 225.906 229.744C225.292 229.972 224.837 230.284 224.542 230.682C224.246 231.08 224.093 231.534 224.082 232.045C224.059 232.466 224.133 232.847 224.303 233.188C224.485 233.517 224.769 233.818 225.156 234.091C225.542 234.352 226.036 234.591 226.638 234.807C227.241 235.023 227.957 235.216 228.786 235.386L231.65 236C233.582 236.409 235.235 236.949 236.61 237.619C237.985 238.29 239.11 239.08 239.985 239.989C240.86 240.886 241.502 241.898 241.911 243.023C242.332 244.148 242.548 245.375 242.559 246.705C242.548 249 241.974 250.943 240.837 252.534C239.701 254.125 238.076 255.335 235.962 256.165C233.86 256.994 231.332 257.409 228.377 257.409C225.343 257.409 222.695 256.96 220.434 256.062C218.184 255.165 216.434 253.784 215.184 251.92C213.945 250.045 213.32 247.648 213.309 244.727H222.309C222.366 245.795 222.633 246.693 223.11 247.42C223.587 248.148 224.258 248.699 225.121 249.074C225.996 249.449 227.036 249.636 228.241 249.636C229.252 249.636 230.099 249.511 230.781 249.261C231.462 249.011 231.979 248.665 232.332 248.222C232.684 247.778 232.866 247.273 232.877 246.705C232.866 246.17 232.69 245.705 232.349 245.307C232.019 244.898 231.474 244.534 230.712 244.216C229.951 243.886 228.923 243.58 227.627 243.295L224.15 242.545C221.059 241.875 218.621 240.756 216.837 239.188C215.065 237.608 214.184 235.455 214.195 232.727C214.184 230.511 214.775 228.574 215.968 226.915C217.173 225.244 218.837 223.943 220.962 223.011C223.099 222.08 225.548 221.614 228.309 221.614C231.127 221.614 233.565 222.085 235.621 223.028C237.678 223.972 239.263 225.301 240.377 227.017C241.502 228.722 242.07 230.716 242.082 233H233.013Z" fill="#FAFAFA"/>
<path d="M585.282 364.016C585.282 364.135 455.153 364.237 294.668 364.237C134.184 364.237 4.02919 364.135 4.02919 364.016C4.02919 363.896 134.133 363.794 294.668 363.794C455.204 363.794 585.282 363.896 585.282 364.016Z" fill="#263238"/>
<path d="M505.535 39.4944H276.776V181.099H469.358L481.274 208.512L491.851 181.099H505.535V39.4944Z" fill="#FAFAFA"/>
<path d="M505.535 39.4944C505.535 40.868 505.603 94.0647 505.706 181.099V181.27H505.535C501.335 181.27 496.631 181.27 491.842 181.27L492.005 181.159C488.692 189.751 485.124 199.016 481.445 208.581L481.283 209.007L481.095 208.581C477.356 199.989 473.31 190.706 469.161 181.167L469.34 181.287C417.601 181.287 358.137 181.304 295.181 181.312C289 181.312 282.845 181.312 276.759 181.312H276.537V181.091C276.537 130.624 276.554 82.7343 276.554 39.4859V39.2811H276.759C411.822 39.4005 503.725 39.4859 505.526 39.4859C503.725 39.4859 411.822 39.5712 276.759 39.6906L276.964 39.4859C276.964 82.7258 276.972 130.624 276.981 181.091L276.759 180.869C282.854 180.869 289 180.869 295.181 180.869C358.137 180.877 417.593 180.886 469.34 180.894H469.468L469.52 181.014C473.66 190.553 477.698 199.844 481.437 208.436H481.087C484.774 198.88 488.351 189.623 491.663 181.031L491.706 180.92H491.825C496.614 180.92 501.309 180.92 505.518 180.92L505.347 181.091C505.449 94.0562 505.518 40.8595 505.518 39.4859L505.535 39.4944Z" fill="#263238"/>
<path d="M505.415 53.3161C505.415 53.4868 454.308 53.6318 391.275 53.6318C328.242 53.6318 277.118 53.4953 277.118 53.3161C277.118 53.137 328.216 53.0005 391.275 53.0005C454.333 53.0005 505.415 53.137 505.415 53.3161Z" fill="#263238"/>
<path d="M288.932 47.0537C288.932 48.0861 288.095 48.9307 287.054 48.9307C286.012 48.9307 285.176 48.0946 285.176 47.0537C285.176 46.0128 286.012 45.1767 287.054 45.1767C288.095 45.1767 288.932 46.0128 288.932 47.0537Z" fill="#263238"/>
<path d="M295.718 47.0537C295.718 48.0861 294.882 48.9307 293.84 48.9307C292.799 48.9307 291.962 48.0946 291.962 47.0537C291.962 46.0128 292.799 45.1767 293.84 45.1767C294.882 45.1767 295.718 46.0128 295.718 47.0537Z" fill="#263238"/>
<path d="M302.505 47.0537C302.505 48.0861 301.668 48.9307 300.627 48.9307C299.585 48.9307 298.749 48.0946 298.749 47.0537C298.749 46.0128 299.585 45.1767 300.627 45.1767C301.668 45.1767 302.505 46.0128 302.505 47.0537Z" fill="#263238"/>
<path d="M301.728 78.6475L296.299 80.7464L301.728 82.8452V84.1165L294.873 81.4119V80.0979L301.728 77.3933V78.6646V78.6475Z" fill="#263238"/>
<path d="M307.379 73.2126H308.711L303.657 87.6231H302.326L307.379 73.2126Z" fill="#263238"/>
<path d="M316.026 80.0809V81.3948L309.172 84.0994V82.8281L314.618 80.7293L309.172 78.6304V77.3592L316.026 80.0638V80.0809Z" fill="#263238"/>
<path d="M317.759 85.1318C317.759 84.5175 318.237 84.0909 318.801 84.0909C319.364 84.0909 319.808 84.5175 319.808 85.1318C319.808 85.7461 319.347 86.1897 318.801 86.1897C318.254 86.1897 317.759 85.7461 317.759 85.1318Z" fill="#263238"/>
<path d="M321.234 85.1318C321.234 84.5175 321.712 84.0909 322.275 84.0909C322.839 84.0909 323.282 84.5175 323.282 85.1318C323.282 85.7461 322.821 86.1897 322.275 86.1897C321.729 86.1897 321.234 85.7461 321.234 85.1318Z" fill="#263238"/>
<path d="M324.708 85.1318C324.708 84.5175 325.186 84.0909 325.749 84.0909C326.313 84.0909 326.757 84.5175 326.757 85.1318C326.757 85.7461 326.296 86.1897 325.749 86.1897C325.203 86.1897 324.708 85.7461 324.708 85.1318Z" fill="#263238"/>
<path d="M446.181 98.8597C446.181 99.0303 412.36 99.1754 370.66 99.1754C328.959 99.1754 295.129 99.0389 295.129 98.8597C295.129 98.6805 328.942 98.544 370.66 98.544C412.377 98.544 446.181 98.6805 446.181 98.8597Z" fill="#455A64"/>
<path d="M470.851 99.3119C470.851 99.4825 467.599 99.6275 463.595 99.6275C459.592 99.6275 456.339 99.491 456.339 99.3119C456.339 99.1327 459.592 98.9962 463.595 98.9962C467.599 98.9962 470.851 99.1327 470.851 99.3119Z" fill="#263238"/>
<path d="M492.064 99.3119C492.064 99.4825 488.513 99.6275 484.134 99.6275C479.755 99.6275 476.204 99.491 476.204 99.3119C476.204 99.1327 479.755 98.9962 484.134 98.9962C488.513 98.9962 492.064 99.1327 492.064 99.3119Z" fill="#263238"/>
<path d="M391.318 111.581C391.318 111.751 369.823 111.896 343.317 111.896C316.812 111.896 295.309 111.76 295.309 111.581C295.309 111.402 316.795 111.265 343.317 111.265C369.84 111.265 391.318 111.402 391.318 111.581Z" fill="#455A64"/>
<path d="M390.626 159.044C390.626 159.215 369.131 159.36 342.626 159.36C316.12 159.36 294.617 159.223 294.617 159.044C294.617 158.865 316.103 158.728 342.626 158.728C369.149 158.728 390.626 158.865 390.626 159.044Z" fill="#455A64"/>
<path d="M426.197 111.581C426.197 111.751 420.35 111.896 413.137 111.896C405.923 111.896 400.076 111.76 400.076 111.581C400.076 111.402 405.923 111.265 413.137 111.265C420.35 111.265 426.197 111.402 426.197 111.581Z" fill="#263238"/>
<path d="M425.924 159.044C425.924 159.215 420.077 159.36 412.864 159.36C405.65 159.36 399.803 159.223 399.803 159.044C399.803 158.865 405.65 158.728 412.864 158.728C420.077 158.728 425.924 158.865 425.924 159.044Z" fill="#263238"/>
<path d="M301.6 118.057C301.6 118.227 300.149 118.372 298.365 118.372C296.581 118.372 295.129 118.236 295.129 118.057C295.129 117.877 296.581 117.741 298.365 117.741C300.149 117.741 301.6 117.877 301.6 118.057Z" fill="#04959E"/>
<path d="M323.931 118.185C323.931 118.355 320.781 118.5 316.897 118.5C313.013 118.5 309.863 118.364 309.863 118.185C309.863 118.005 313.013 117.869 316.897 117.869C320.781 117.869 323.931 118.005 323.931 118.185Z" fill="#263238"/>
<path d="M338.221 118.185C338.221 118.355 335.524 118.5 332.194 118.5C328.865 118.5 326.168 118.364 326.168 118.185C326.168 118.005 328.865 117.869 332.194 117.869C335.524 117.869 338.221 118.005 338.221 118.185Z" fill="#263238"/>
<path d="M356.31 118.185C356.31 118.355 353.561 118.5 350.172 118.5C346.783 118.5 344.034 118.364 344.034 118.185C344.034 118.005 346.783 117.869 350.172 117.869C353.561 117.869 356.31 118.005 356.31 118.185Z" fill="#263238"/>
<path d="M372.162 118.185C372.162 118.355 369.661 118.5 366.579 118.5C363.497 118.5 360.996 118.364 360.996 118.185C360.996 118.005 363.497 117.869 366.579 117.869C369.661 117.869 372.162 118.005 372.162 118.185Z" fill="#263238"/>
<path d="M424.635 118.185C424.635 118.355 413.64 118.5 400.076 118.5C386.512 118.5 375.517 118.364 375.517 118.185C375.517 118.005 386.512 117.869 400.076 117.869C413.64 117.869 424.635 118.005 424.635 118.185Z" fill="#263238"/>
<path d="M300.712 126.307C300.712 126.478 299.466 126.623 297.921 126.623C296.376 126.623 295.129 126.486 295.129 126.307C295.129 126.128 296.376 125.991 297.921 125.991C299.466 125.991 300.712 126.128 300.712 126.307Z" fill="#04959E"/>
<path d="M300.934 134.788C300.934 134.958 299.637 135.103 298.032 135.103C296.427 135.103 295.129 134.967 295.129 134.788C295.129 134.609 296.427 134.472 298.032 134.472C299.637 134.472 300.934 134.609 300.934 134.788Z" fill="#04959E"/>
<path d="M300.934 144.386C300.934 144.557 299.637 144.702 298.032 144.702C296.427 144.702 295.129 144.565 295.129 144.386C295.129 144.207 296.427 144.07 298.032 144.07C299.637 144.07 300.934 144.207 300.934 144.386Z" fill="#04959E"/>
<path d="M353.851 143.943C353.851 144.113 344.154 144.258 332.194 144.258C320.235 144.258 310.538 144.122 310.538 143.943C310.538 143.763 320.235 143.627 332.194 143.627C344.154 143.627 353.851 143.763 353.851 143.943Z" fill="#263238"/>
<path d="M350.053 134.788C350.053 134.958 340.808 135.103 329.403 135.103C317.998 135.103 308.745 134.967 308.745 134.788C308.745 134.609 317.99 134.472 329.403 134.472C340.816 134.472 350.053 134.609 350.053 134.788Z" fill="#263238"/>
<path d="M449.86 125.863C449.86 126.034 418.37 126.179 379.529 126.179C340.688 126.179 309.189 126.042 309.189 125.863C309.189 125.684 340.671 125.548 379.529 125.548C418.387 125.548 449.86 125.684 449.86 125.863Z" fill="#263238"/>
<path d="M519.594 97.4007V217.735L500.874 233.349H519.594H521.43H598.778V97.4007H519.594Z" fill="#FAFAFA"/>
<path d="M519.594 97.4007C519.594 97.4007 520.055 97.3922 520.977 97.3837C521.908 97.3837 523.282 97.3751 525.075 97.3666C528.686 97.3581 534.004 97.341 540.841 97.3239C554.559 97.3069 574.364 97.2727 598.778 97.2386H598.949V97.4093C598.966 133.73 598.983 181.167 599 233.357V233.579H598.778C594.424 233.579 589.755 233.579 585.051 233.579C555.234 233.579 526.748 233.571 500.882 233.562H500.311L500.746 233.195C507.216 227.803 513.465 222.599 519.475 217.59L519.406 217.744C519.449 181.765 519.483 151.664 519.509 130.547C519.535 120.01 519.552 111.726 519.56 106.061C519.569 103.245 519.577 101.078 519.586 99.6105C519.586 98.8853 519.594 98.3392 519.594 97.9638C519.594 97.597 519.603 97.4093 519.603 97.4093C519.603 97.4093 519.603 97.6055 519.611 97.9809C519.611 98.3648 519.611 98.9194 519.62 99.6532C519.62 101.129 519.637 103.305 519.645 106.137C519.654 111.811 519.671 120.121 519.697 130.667C519.722 151.758 519.756 181.816 519.799 217.735V217.829L519.731 217.889C513.73 222.897 507.481 228.11 501.019 233.511L500.882 233.144C526.756 233.144 555.234 233.135 585.051 233.127C589.755 233.127 594.424 233.127 598.778 233.127L598.556 233.349C598.573 181.167 598.599 133.721 598.607 97.4007L598.778 97.5714C574.407 97.5372 554.636 97.5031 540.944 97.486C534.089 97.469 528.762 97.4519 525.143 97.4434C523.333 97.4434 521.959 97.4263 521.02 97.4263C520.089 97.4263 519.603 97.4093 519.603 97.4093L519.594 97.4007Z" fill="#263238"/>
<path d="M526.782 103.39C526.782 104.277 526.065 104.994 525.177 104.994C524.289 104.994 523.572 104.277 523.572 103.39C523.572 102.503 524.289 101.786 525.177 101.786C526.065 101.786 526.782 102.503 526.782 103.39Z" fill="#263238"/>
<path d="M532.595 103.39C532.595 104.277 531.878 104.994 530.99 104.994C530.103 104.994 529.386 104.277 529.386 103.39C529.386 102.503 530.103 101.786 530.99 101.786C531.878 101.786 532.595 102.503 532.595 103.39Z" fill="#263238"/>
<path d="M538.4 103.39C538.4 104.277 537.683 104.994 536.795 104.994C535.907 104.994 535.19 104.277 535.19 103.39C535.19 102.503 535.907 101.786 536.795 101.786C537.683 101.786 538.4 102.503 538.4 103.39Z" fill="#263238"/>
<path d="M577.01 140.47C577.01 140.615 566.971 140.726 554.594 140.726C542.216 140.726 532.177 140.615 532.177 140.47C532.177 140.325 542.216 140.214 554.594 140.214C566.971 140.214 577.01 140.325 577.01 140.47Z" fill="#04959E"/>
<path d="M586.358 151.348C586.358 151.493 574.142 151.604 559.075 151.604C544.008 151.604 531.793 151.493 531.793 151.348C531.793 151.203 544.008 151.092 559.075 151.092C574.142 151.092 586.358 151.203 586.358 151.348Z" fill="#04959E"/>
<path d="M588.586 191.969C588.586 192.114 575.559 192.225 559.493 192.225C543.428 192.225 530.401 192.114 530.401 191.969C530.401 191.824 543.428 191.713 559.493 191.713C575.559 191.713 588.586 191.824 588.586 191.969Z" fill="#04959E"/>
<path d="M536.377 156.885C536.377 157.03 535.139 157.141 533.603 157.141C532.066 157.141 530.828 157.03 530.828 156.885C530.828 156.74 532.066 156.629 533.603 156.629C535.139 156.629 536.377 156.74 536.377 156.885Z" fill="#04959E"/>
<path d="M555.481 157.005C555.481 157.15 552.784 157.261 549.463 157.261C546.143 157.261 543.445 157.15 543.445 157.005C543.445 156.86 546.143 156.749 549.463 156.749C552.784 156.749 555.481 156.86 555.481 157.005Z" fill="#04959E"/>
<path d="M567.714 157.005C567.714 157.15 565.401 157.261 562.558 157.261C559.715 157.261 557.402 157.15 557.402 157.005C557.402 156.86 559.715 156.749 562.558 156.749C565.401 156.749 567.714 156.86 567.714 157.005Z" fill="#04959E"/>
<path d="M535.617 163.958C535.617 164.103 534.55 164.214 533.227 164.214C531.904 164.214 530.837 164.103 530.837 163.958C530.837 163.813 531.904 163.702 533.227 163.702C534.55 163.702 535.617 163.813 535.617 163.958Z" fill="#04959E"/>
<path d="M535.805 171.211C535.805 171.356 534.695 171.467 533.321 171.467C531.946 171.467 530.837 171.356 530.837 171.211C530.837 171.066 531.946 170.955 533.321 170.955C534.695 170.955 535.805 171.066 535.805 171.211Z" fill="#04959E"/>
<path d="M535.805 179.418C535.805 179.563 534.695 179.674 533.321 179.674C531.946 179.674 530.837 179.563 530.837 179.418C530.837 179.273 531.946 179.162 533.321 179.162C534.695 179.162 535.805 179.273 535.805 179.418Z" fill="#04959E"/>
<path d="M581.091 179.043C581.091 179.188 572.793 179.299 562.558 179.299C552.323 179.299 544.025 179.188 544.025 179.043C544.025 178.898 552.323 178.787 562.558 178.787C572.793 178.787 581.091 178.898 581.091 179.043Z" fill="#04959E"/>
<path d="M577.838 171.211C577.838 171.356 569.925 171.467 560.168 171.467C550.411 171.467 542.497 171.356 542.497 171.211C542.497 171.066 550.411 170.955 560.168 170.955C569.925 170.955 577.838 171.066 577.838 171.211Z" fill="#04959E"/>
<path d="M539.424 202.813C539.424 202.958 538.315 203.069 536.94 203.069C535.566 203.069 534.456 202.958 534.456 202.813C534.456 202.668 535.566 202.557 536.94 202.557C538.315 202.557 539.424 202.668 539.424 202.813Z" fill="#04959E"/>
<path d="M539.424 211.021C539.424 211.166 538.315 211.277 536.94 211.277C535.566 211.277 534.456 211.166 534.456 211.021C534.456 210.876 535.566 210.765 536.94 210.765C538.315 210.765 539.424 210.876 539.424 211.021Z" fill="#04959E"/>
<path d="M584.701 210.637C584.701 210.782 576.404 210.893 566.169 210.893C555.934 210.893 547.636 210.782 547.636 210.637C547.636 210.492 555.934 210.381 566.169 210.381C576.404 210.381 584.701 210.492 584.701 210.637Z" fill="#04959E"/>
<path d="M581.458 202.813C581.458 202.958 573.544 203.069 563.787 203.069C554.03 203.069 546.117 202.958 546.117 202.813C546.117 202.668 554.03 202.557 563.787 202.557C573.544 202.557 581.458 202.668 581.458 202.813Z" fill="#04959E"/>
<path d="M590.984 163.575C590.984 163.72 580.211 163.83 566.929 163.83C553.646 163.83 542.873 163.72 542.873 163.575C542.873 163.429 553.637 163.319 566.929 163.319C580.22 163.319 590.984 163.429 590.984 163.575Z" fill="#04959E"/>
<path d="M598.035 109.67C598.035 109.815 580.647 109.926 559.203 109.926C537.76 109.926 520.371 109.815 520.371 109.67C520.371 109.525 537.751 109.414 559.203 109.414C580.655 109.414 598.035 109.525 598.035 109.67Z" fill="#263238"/>
<path d="M548.55 133.9C548.55 134.045 544.879 134.156 540.346 134.156C535.813 134.156 532.143 134.045 532.143 133.9C532.143 133.755 535.813 133.644 540.346 133.644C544.879 133.644 548.55 133.755 548.55 133.9Z" fill="#04959E"/>
<path d="M539.271 119.055C539.271 119.2 537.538 119.311 535.404 119.311C533.27 119.311 531.537 119.2 531.537 119.055C531.537 118.91 533.27 118.799 535.404 118.799C537.538 118.799 539.271 118.91 539.271 119.055Z" fill="#04959E"/>
<path d="M470.74 294.292L487.933 277.305L457.27 224.825C454.077 221.174 450.04 218.367 445.507 216.643L434.708 212.539L407.861 207.616L388.799 215.116C383.985 217.01 381.048 221.916 381.663 227.061L386.648 269.004L389.585 323.617L458.841 311.612L451.875 291.409L452.105 259.917L470.74 294.292Z" fill="#04959E"/>
<path d="M452.507 290.069C452.669 290.069 452.711 279.157 452.6 265.702C452.49 252.239 452.268 241.335 452.105 241.335C451.943 241.335 451.901 252.247 452.011 265.702C452.122 279.157 452.344 290.069 452.507 290.061V290.069Z" fill="#263238"/>
<path d="M449.971 298.072L408.126 281.239C404.754 279.882 402.441 276.725 402.159 273.099L399.094 232.999C399.094 232.999 399.453 215.944 388.799 215.116L382.738 217.505C374.902 221.669 372.964 233.067 374.031 241.872C375.551 254.38 376.183 272.084 377.873 282.945C379.264 291.827 384.599 298.849 393.05 301.929L444.593 313.08L449.98 298.081L449.971 298.072Z" fill="#04959E"/>
<path d="M399.7 239.116C399.7 239.116 399.769 239.432 399.828 240.038C399.897 240.695 399.982 241.574 400.093 242.683C400.306 245.029 400.605 248.339 400.981 252.409C401.339 256.53 401.758 261.419 402.219 266.837C402.33 268.193 402.449 269.584 402.569 271.009C402.697 272.434 402.782 273.884 403.106 275.3C403.414 276.717 404.097 278.048 405.189 279.054C406.273 280.07 407.631 280.812 409.048 281.452C420.589 286.443 431.225 290.564 438.942 293.456C442.775 294.864 445.891 296.016 448.11 296.835C449.152 297.219 449.988 297.526 450.603 297.756C451.175 297.97 451.465 298.089 451.457 298.115C451.457 298.132 451.141 298.047 450.56 297.867C449.937 297.663 449.092 297.39 448.034 297.048C445.84 296.323 442.69 295.24 438.806 293.84C431.038 291.042 420.393 286.981 408.817 281.981C407.375 281.324 405.966 280.565 404.805 279.472C403.636 278.397 402.884 276.913 402.577 275.437C402.244 273.952 402.167 272.485 402.048 271.069C401.937 269.644 401.826 268.253 401.715 266.896C401.297 261.47 400.913 256.581 400.597 252.452C400.298 248.382 400.059 245.063 399.888 242.708C399.82 241.599 399.769 240.712 399.726 240.055C399.692 239.449 399.683 239.133 399.709 239.125L399.7 239.116Z" fill="#263238"/>
<path d="M375.722 260.916C375.722 260.916 375.764 261.103 375.807 261.453C375.841 261.871 375.892 262.383 375.944 262.997C376.072 264.422 376.234 266.35 376.439 268.688C376.669 271.086 376.959 273.944 377.378 277.101C377.804 280.249 378.317 283.73 379.264 287.262C379.717 289.045 380.348 290.692 381.304 292.108C382.26 293.533 383.328 294.813 384.429 295.948C386.64 298.209 389.004 299.864 391.121 300.973C395.407 303.2 398.514 303.225 398.471 303.379C398.471 303.396 398.283 303.396 397.925 303.37C397.566 303.345 397.046 303.302 396.38 303.174C395.048 302.935 393.127 302.415 390.942 301.331C388.765 300.256 386.332 298.601 384.062 296.323C382.926 295.18 381.834 293.883 380.852 292.433C379.853 290.974 379.17 289.216 378.726 287.433C377.762 283.849 377.267 280.36 376.865 277.194C376.473 274.021 376.225 271.154 376.046 268.748C375.867 266.342 375.773 264.388 375.73 263.04C375.713 262.417 375.705 261.905 375.696 261.487C375.696 261.129 375.705 260.941 375.722 260.941V260.916Z" fill="#263238"/>
<path d="M393.614 288.977C393.554 288.96 393.733 288.064 394.374 286.75C395.005 285.436 396.183 283.73 397.891 282.271C399.606 280.812 401.467 279.925 402.867 279.507C404.267 279.08 405.181 279.046 405.189 279.106C405.206 279.199 404.327 279.37 402.995 279.882C401.664 280.385 399.905 281.298 398.249 282.698C396.602 284.105 395.424 285.701 394.724 286.938C394.015 288.175 393.699 289.011 393.614 288.977Z" fill="#263238"/>
<g opacity="0.3">
<path d="M437.944 293.294C433.47 290.769 429.091 288.824 424.413 286.699C419.735 284.575 415.151 281.844 412.087 277.723C406.308 269.942 406.973 258.714 401.058 251.036C401.442 256.197 401.826 261.359 402.219 266.521C402.569 271.256 401.843 275.932 404.899 279.148C407.469 281.853 412.479 283.935 416.022 285.104C423.15 287.45 430.824 290.939 437.944 293.294Z" fill="black"/>
</g>
<path opacity="0.3" d="M452.114 244.295L455.733 266.606L452.31 260.293L452.114 244.295Z" fill="black"/>
<path d="M398.437 230.525C398.437 230.525 398.087 230.584 397.464 230.602C396.747 230.619 395.868 230.644 394.826 230.67C392.598 230.729 389.525 230.84 386.136 231.079C382.747 231.327 379.682 231.651 377.472 231.915C376.439 232.035 375.559 232.137 374.851 232.223C374.228 232.291 373.886 232.316 373.878 232.291C373.878 232.257 374.211 232.18 374.825 232.052C375.44 231.924 376.328 231.77 377.429 231.6C379.64 231.258 382.704 230.883 386.102 230.636C389.499 230.397 392.59 230.328 394.826 230.354C395.944 230.363 396.849 230.388 397.472 230.431C398.096 230.465 398.437 230.499 398.437 230.533V230.525Z" fill="#455A64"/>
<path d="M399.624 251.88C399.632 252 394.152 252.554 387.374 253.117C380.596 253.68 375.098 254.03 375.09 253.911C375.081 253.791 380.562 253.237 387.34 252.674C394.118 252.111 399.615 251.761 399.624 251.88Z" fill="#455A64"/>
<path d="M401.647 274.336C401.647 274.336 401.348 274.541 400.776 274.831C400.204 275.13 399.359 275.522 398.3 275.966C396.183 276.862 393.17 277.911 389.738 278.688C386.307 279.455 383.131 279.788 380.835 279.873C379.683 279.925 378.752 279.925 378.112 279.899C377.472 279.873 377.113 279.848 377.113 279.822C377.113 279.788 377.472 279.763 378.112 279.728C378.752 279.703 379.674 279.652 380.818 279.558C383.097 279.387 386.238 279.012 389.645 278.252C393.042 277.485 396.047 276.495 398.181 275.676C399.248 275.266 400.11 274.925 400.699 274.678C401.288 274.43 401.63 274.311 401.638 274.336H401.647Z" fill="#455A64"/>
<path d="M416.526 285.846C416.594 285.974 414.349 286.972 412.377 289.173C410.379 291.357 409.62 293.695 409.483 293.636C409.432 293.618 409.551 293.021 409.944 292.108C410.328 291.204 411.028 290.001 412.044 288.875C413.06 287.748 414.187 286.938 415.049 286.46C415.911 285.982 416.5 285.795 416.526 285.846Z" fill="#455A64"/>
<path d="M431.661 300.632C431.55 300.606 432.036 298.524 433.3 296.229C434.555 293.926 436.048 292.398 436.125 292.475C436.228 292.561 434.913 294.19 433.684 296.443C432.446 298.686 431.78 300.674 431.652 300.632H431.661Z" fill="#455A64"/>
<path d="M407.81 217.966C407.836 218.085 405.181 218.665 401.894 219.263C398.608 219.86 395.919 220.244 395.893 220.124C395.868 220.005 398.522 219.425 401.809 218.827C405.095 218.23 407.784 217.846 407.801 217.966H407.81Z" fill="#455A64"/>
<path d="M447.863 219.783C447.846 219.902 444.175 219.57 439.659 219.032C435.144 218.495 431.49 217.966 431.507 217.838C431.524 217.718 435.195 218.051 439.71 218.589C444.226 219.126 447.88 219.655 447.863 219.783Z" fill="#455A64"/>
<path d="M451.286 238.408C451.286 238.408 451.107 238.434 450.765 238.442C450.372 238.442 449.877 238.442 449.263 238.451C447.897 238.451 446.027 238.451 443.74 238.451C439.079 238.451 432.642 238.485 425.532 238.664C418.421 238.852 411.984 239.142 407.332 239.381C405.044 239.5 403.175 239.603 401.817 239.671C401.203 239.697 400.708 239.722 400.315 239.739C399.974 239.748 399.794 239.739 399.786 239.739C399.786 239.722 399.965 239.697 400.306 239.654C400.699 239.611 401.194 239.569 401.8 239.509C403.098 239.389 404.984 239.236 407.306 239.074C411.959 238.75 418.395 238.408 425.514 238.221C432.625 238.041 439.07 238.05 443.74 238.135C446.07 238.178 447.957 238.229 449.263 238.28C449.877 238.306 450.372 238.331 450.765 238.348C451.107 238.374 451.286 238.391 451.286 238.4V238.408Z" fill="#455A64"/>
<path d="M451.781 261.991C451.781 262.11 440.812 262.938 427.264 263.825C413.709 264.721 402.722 265.344 402.714 265.216C402.714 265.096 413.683 264.269 427.23 263.381C440.778 262.494 451.772 261.863 451.781 261.991Z" fill="#455A64"/>
<path d="M450.612 282.766C450.612 282.766 450.296 282.936 449.69 283.158C449.083 283.389 448.204 283.696 447.112 284.054C444.918 284.771 441.862 285.667 438.439 286.494C435.015 287.313 431.883 287.911 429.603 288.26C428.468 288.44 427.538 288.568 426.897 288.636C426.257 288.713 425.899 288.738 425.899 288.704C425.899 288.67 426.24 288.593 426.872 288.465C427.597 288.329 428.494 288.149 429.552 287.945C431.814 287.51 434.93 286.87 438.345 286.051C441.759 285.232 444.824 284.378 447.035 283.747C448.068 283.448 448.947 283.192 449.655 282.988C450.279 282.808 450.62 282.732 450.637 282.757L450.612 282.766Z" fill="#455A64"/>
<path d="M468.171 245.106C468.205 245.225 464.628 246.249 460.198 247.392C455.767 248.536 452.148 249.372 452.114 249.252C452.08 249.133 455.648 248.109 460.087 246.966C464.517 245.822 468.137 244.986 468.171 245.106Z" fill="#455A64"/>
<path d="M459.797 229.168C459.822 229.288 458.235 229.672 456.263 230.03C454.291 230.388 452.669 230.576 452.652 230.456C452.626 230.337 454.214 229.953 456.186 229.595C458.158 229.236 459.771 229.049 459.797 229.168Z" fill="#455A64"/>
<path d="M399.82 234.117C399.735 234.134 399.606 232.7 398.821 230.559C398.061 228.426 396.508 225.585 393.921 223.264C391.335 220.935 388.338 219.698 386.136 219.169C383.917 218.623 382.482 218.64 382.482 218.554C382.482 218.529 382.841 218.503 383.49 218.52C384.138 218.537 385.069 218.623 386.204 218.862C388.466 219.322 391.557 220.542 394.211 222.931C396.866 225.32 398.411 228.264 399.111 230.456C399.47 231.557 399.658 232.479 399.743 233.118C399.828 233.758 399.837 234.117 399.811 234.117H399.82Z" fill="#263238"/>
<path d="M449.681 222.735C449.801 222.718 450.466 226.208 451.158 230.533C451.849 234.859 452.31 238.383 452.191 238.408C452.071 238.425 451.414 234.936 450.714 230.61C450.023 226.284 449.562 222.761 449.681 222.735Z" fill="#263238"/>
<path d="M496.324 348.487C496.324 348.487 528.489 357.386 529.778 357.838C531.716 358.521 531.392 365.62 528.378 365.509C526.953 365.457 503.674 366.379 500.729 366.191C497.784 366.004 488.914 362.514 488.914 362.514L496.324 348.496V348.487Z" fill="#04959E"/>
<path d="M509.718 360.756C509.88 360.782 510.093 359.076 511.135 357.301C512.151 355.509 513.508 354.468 513.405 354.34C513.346 354.212 511.749 355.125 510.665 357.028C509.564 358.922 509.581 360.765 509.718 360.748V360.756Z" fill="#263238"/>
<path d="M506.371 359.238C506.525 359.263 506.858 357.745 507.712 356.064C508.548 354.374 509.581 353.206 509.462 353.095C509.376 352.992 508.113 354.042 507.225 355.816C506.329 357.582 506.226 359.221 506.363 359.229L506.371 359.238Z" fill="#263238"/>
<path d="M503.221 358.393C503.384 358.384 503.256 356.78 503.973 354.997C504.656 353.206 505.834 352.105 505.723 351.994C505.654 351.875 504.22 352.864 503.469 354.801C502.701 356.729 503.085 358.436 503.221 358.393Z" fill="#263238"/>
<path d="M503.793 354.238C503.853 354.255 504.135 353.351 504.135 351.849C504.135 351.098 504.049 350.202 503.81 349.23C503.691 348.743 503.537 348.24 503.332 347.737C503.23 347.481 503.11 347.191 502.82 346.952C502.521 346.679 501.975 346.738 501.719 347.003C501.42 347.259 501.335 347.626 501.292 347.916C501.258 348.214 501.241 348.487 501.249 348.769C501.249 349.324 501.326 349.853 501.446 350.339C501.685 351.32 502.069 352.148 502.436 352.796C503.187 354.101 503.836 354.767 503.879 354.733C503.956 354.682 503.409 353.931 502.769 352.625C502.453 351.968 502.12 351.166 501.924 350.236C501.821 349.776 501.77 349.281 501.77 348.769C501.787 348.274 501.77 347.66 502.069 347.421C502.223 347.293 502.359 347.284 502.496 347.387C502.641 347.498 502.76 347.72 502.846 347.95C503.042 348.428 503.204 348.906 503.332 349.366C503.588 350.288 503.708 351.149 503.759 351.875C503.853 353.334 503.708 354.238 503.793 354.255V354.238Z" fill="#263238"/>
<path d="M503.751 353.914C503.768 353.854 502.991 353.59 501.676 353.581C501.019 353.581 500.242 353.649 499.397 353.863C498.979 353.973 498.535 354.084 498.082 354.349C497.639 354.571 497.178 355.185 497.357 355.816C497.493 356.414 498.006 356.832 498.518 356.968C499.03 357.113 499.525 357.062 499.96 356.968C500.84 356.763 501.531 356.328 502.052 355.944C503.085 355.134 503.588 354.52 503.546 354.477C503.486 354.409 502.88 354.938 501.83 355.637C501.301 355.97 500.643 356.337 499.858 356.49C499.465 356.567 499.047 356.584 498.663 356.473C498.287 356.371 497.971 356.081 497.878 355.705C497.784 355.347 498.006 355.014 498.356 354.81C498.697 354.596 499.124 354.477 499.525 354.357C500.319 354.127 501.062 354.025 501.693 353.982C502.948 353.897 503.742 354.025 503.751 353.939V353.914Z" fill="#263238"/>
<path d="M514.66 361.098C514.822 361.081 514.66 359.707 515.292 358.197C515.898 356.678 516.965 355.808 516.863 355.68C516.811 355.552 515.463 356.311 514.788 357.992C514.097 359.664 514.524 361.149 514.652 361.098H514.66Z" fill="#263238"/>
<path d="M492.218 362.582C492.218 362.582 492.645 362.821 493.464 363.171C494.292 363.487 495.496 363.922 497.041 364.28C500.114 365.056 504.502 365.492 509.325 365.44C514.148 365.389 518.485 365.167 521.634 365.039C523.128 364.963 524.375 364.894 525.365 364.843C526.244 364.783 526.731 364.732 526.731 364.698C526.731 364.664 526.244 364.638 525.356 364.638C524.366 364.638 523.12 364.655 521.626 364.664C518.365 364.724 514.071 364.809 509.325 364.903C504.527 364.954 500.2 364.579 497.135 363.905C494.062 363.273 492.261 362.48 492.227 362.582H492.218Z" fill="#263238"/>
<path d="M491.27 363.316C491.313 363.393 492.192 362.872 493.678 362.224C495.146 361.592 497.348 360.842 499.764 361.209C502.189 361.575 503.904 363.205 505.023 364.34C506.149 365.509 506.807 366.285 506.875 366.234C506.926 366.191 506.371 365.338 505.304 364.084C504.758 363.461 504.075 362.744 503.17 362.087C502.282 361.43 501.13 360.876 499.85 360.68C497.254 360.287 494.975 361.149 493.516 361.874C492.039 362.625 491.236 363.256 491.27 363.307V363.316Z" fill="#263238"/>
<path d="M458.252 341.022C458.252 341.022 427.819 360.936 426.727 361.763C425.088 363 426.966 368.896 429.808 367.872C431.148 367.386 456.689 360.287 459.438 359.221C462.187 358.154 469.579 352.131 469.579 352.131L458.26 341.022H458.252Z" fill="#04959E"/>
<path d="M449.212 356.78C449.348 356.755 448.802 354.997 447.171 353.521C445.558 352.037 443.757 351.653 443.74 351.789C443.68 351.943 445.293 352.523 446.804 353.922C448.332 355.296 449.058 356.849 449.203 356.78H449.212Z" fill="#263238"/>
<path d="M451.952 354.315C452.08 354.264 451.491 352.736 450.099 351.32C448.716 349.895 447.197 349.272 447.146 349.4C447.069 349.537 448.401 350.339 449.715 351.695C451.038 353.035 451.815 354.383 451.952 354.315Z" fill="#263238"/>
<path d="M454.692 352.557C454.829 352.557 454.675 350.817 453.36 349.213C452.063 347.592 450.381 347.08 450.355 347.216C450.287 347.361 451.738 348.052 452.942 349.545C454.163 351.021 454.53 352.591 454.692 352.549V352.557Z" fill="#263238"/>
<path d="M452.882 348.778C452.959 348.735 452.549 347.916 452.191 346.499C452.02 345.791 451.875 344.938 451.832 343.983C451.815 343.505 451.824 343.001 451.866 342.481C451.883 342.234 451.926 341.986 452.029 341.841C452.122 341.705 452.259 341.67 452.447 341.747C452.797 341.884 452.976 342.472 453.138 342.942C453.292 343.428 453.394 343.914 453.437 344.392C453.531 345.339 453.463 346.201 453.36 346.926C453.147 348.368 452.865 349.247 452.95 349.272C453.002 349.289 453.42 348.462 453.736 346.986C453.89 346.252 454 345.348 453.932 344.341C453.898 343.838 453.804 343.309 453.642 342.78C453.565 342.515 453.463 342.251 453.343 341.986C453.215 341.722 453.019 341.406 452.66 341.252C452.336 341.073 451.798 341.184 451.593 341.534C451.388 341.85 451.363 342.165 451.346 342.438C451.303 342.984 451.311 343.505 451.346 344.008C451.414 345.006 451.602 345.885 451.832 346.602C452.293 348.035 452.839 348.803 452.891 348.778H452.882Z" fill="#263238"/>
<path d="M452.822 348.453C452.865 348.53 453.574 348.172 454.803 347.873C455.418 347.728 456.152 347.6 456.98 347.575C457.389 347.575 457.833 347.557 458.226 347.651C458.627 347.745 458.935 347.993 458.952 348.359C458.977 348.743 458.764 349.11 458.439 349.324C458.115 349.545 457.705 349.656 457.304 349.699C456.51 349.793 455.767 349.648 455.161 349.486C453.949 349.136 453.207 348.82 453.172 348.897C453.147 348.948 453.813 349.392 455.042 349.844C455.657 350.057 456.442 350.262 457.347 350.185C457.791 350.143 458.277 350.04 458.721 349.75C459.165 349.469 459.524 348.914 459.472 348.308C459.447 347.651 458.824 347.208 458.337 347.131C457.825 347.02 457.372 347.046 456.937 347.071C456.066 347.122 455.298 347.301 454.675 347.498C453.429 347.907 452.771 348.394 452.797 348.445L452.822 348.453Z" fill="#263238"/>
<path d="M433.684 366.771C433.718 366.823 434.196 366.464 434.426 365.594C434.683 364.741 434.52 363.435 433.855 362.292C433.539 361.712 433.172 361.217 432.839 360.773C432.506 360.33 432.164 359.929 431.806 359.664C431.456 359.391 431.089 359.263 430.833 359.255C430.577 359.246 430.448 359.306 430.448 359.34C430.448 359.425 430.995 359.383 431.558 359.954C431.84 360.227 432.13 360.611 432.437 361.064C432.753 361.516 433.086 362.011 433.385 362.548C434 363.623 434.187 364.732 434.051 365.517C433.94 366.302 433.607 366.72 433.675 366.771H433.684Z" fill="#263238"/>
<path d="M444.61 358.606C444.756 358.623 444.704 357.079 443.535 355.688C442.382 354.289 440.871 353.973 440.854 354.11C440.795 354.255 442.084 354.767 443.117 356.03C444.175 357.275 444.448 358.632 444.602 358.598L444.61 358.606Z" fill="#263238"/>
<path d="M466.447 353.214C466.447 353.214 465.951 353.521 465.106 354.136C464.253 354.724 462.989 355.56 461.35 356.431C459.711 357.309 457.697 358.222 455.392 359.084C453.087 359.946 450.501 360.756 447.769 361.541C442.297 363.12 437.337 364.562 433.761 365.637C432.045 366.166 430.619 366.601 429.535 366.934C428.536 367.249 427.999 367.445 428.007 367.48C428.016 367.514 428.579 367.394 429.595 367.138C430.696 366.848 432.139 366.464 433.872 366.004C437.474 365.022 442.442 363.64 447.931 362.062C450.671 361.268 453.266 360.441 455.58 359.545C457.893 358.649 459.916 357.693 461.547 356.763C463.177 355.833 464.415 354.946 465.243 354.298C466.054 353.632 466.481 353.24 466.455 353.214H466.447Z" fill="#263238"/>
<path d="M467.573 353.615C467.59 353.555 466.626 353.197 464.995 352.933C463.39 352.677 460.949 352.549 458.602 353.718C457.441 354.298 456.51 355.176 455.861 356.064C455.204 356.96 454.76 357.856 454.436 358.606C453.796 360.125 453.531 361.106 453.591 361.132C453.668 361.166 454.06 360.227 454.786 358.768C455.511 357.352 456.655 355.279 458.849 354.195C461.034 353.103 463.365 353.154 464.953 353.308C466.566 353.479 467.565 353.7 467.582 353.615H467.573Z" fill="#263238"/>
<path d="M521.523 291.212C521.523 291.212 530.657 294.472 530.692 304.701C530.768 324.299 491.066 345.911 491.066 345.911L438.234 310.921L434.922 309.582C434.922 309.582 506.235 282.808 521.515 291.204L521.523 291.212Z" fill="#263238"/>
<path d="M465.004 328.599C465.004 328.599 465.516 328.292 466.378 327.669C467.24 327.038 468.478 326.108 469.989 324.939C473.011 322.602 477.126 319.291 481.556 315.494C485.986 311.698 489.879 308.131 492.653 305.495C494.036 304.181 495.146 303.097 495.897 302.338C496.648 301.579 497.05 301.144 497.024 301.118C496.998 301.092 496.546 301.476 495.752 302.185C494.89 302.961 493.755 303.985 492.397 305.213C489.563 307.773 485.636 311.288 481.214 315.085C476.793 318.873 472.721 322.235 469.759 324.641C468.333 325.801 467.155 326.765 466.25 327.499C465.422 328.181 464.978 328.565 465.004 328.599Z" fill="#455A64"/>
<path d="M506.61 298.541C506.627 298.413 504.271 298.183 501.523 299.002C498.765 299.804 496.904 301.28 496.998 301.374C497.084 301.511 499.013 300.29 501.676 299.514C504.331 298.721 506.619 298.704 506.61 298.533V298.541Z" fill="#455A64"/>
<path d="M502.06 295.453C502.009 295.325 500.319 296.067 498.928 297.808C497.519 299.531 497.152 301.348 497.28 301.365C497.434 301.417 498.014 299.77 499.346 298.149C500.661 296.502 502.146 295.598 502.06 295.453Z" fill="#455A64"/>
<path d="M524.434 357.514C524.46 357.455 523.803 357.327 523.069 357.924C522.351 358.495 521.737 359.647 521.541 360.987C521.344 362.335 521.643 363.58 522.019 364.365C522.394 365.167 522.804 365.543 522.847 365.509C522.915 365.457 522.633 365.014 522.369 364.229C522.104 363.452 521.882 362.309 522.07 361.064C522.249 359.835 522.753 358.768 523.316 358.205C523.879 357.617 524.434 357.6 524.426 357.514H524.434Z" fill="#263238"/>
<path d="M517.75 263.373L502.718 303.84C501.856 306.152 499.636 307.671 497.169 307.645L414.443 306.553V300.273L445.14 301.391L458.175 261.001C458.619 259.636 459.891 258.714 461.325 258.714L514.694 258.868C517.016 258.868 518.604 261.214 517.75 263.373Z" fill="#E0E0E0"/>
<path d="M517.75 263.373C517.75 263.373 517.759 263.33 517.785 263.245C517.802 263.159 517.861 263.04 517.887 262.869C517.964 262.537 518.024 262.008 517.853 261.351C517.682 260.711 517.255 259.917 516.402 259.397C515.983 259.141 515.471 258.953 514.899 258.919C514.327 258.893 513.713 258.919 513.064 258.902C507.848 258.902 500.276 258.885 490.801 258.876C486.055 258.868 480.839 258.859 475.205 258.851C472.388 258.851 469.46 258.842 466.438 258.834C464.927 258.834 463.391 258.834 461.837 258.825C461.052 258.783 460.292 258.885 459.635 259.311C458.986 259.721 458.482 260.361 458.269 261.112C454.333 273.33 449.954 286.912 445.276 301.434L445.242 301.528H445.14C435.348 301.169 425.036 300.794 414.443 300.41L414.579 300.273V301.391C414.579 303.157 414.579 304.923 414.579 306.553L414.451 306.416C432.958 306.664 450.526 306.903 466.472 307.116C474.445 307.227 482.008 307.329 489.085 307.423C490.852 307.449 492.594 307.474 494.301 307.491C495.155 307.5 496 307.517 496.836 307.526C497.673 307.56 498.484 307.466 499.243 307.176C500.754 306.621 501.984 305.418 502.556 303.985C503.102 302.517 503.648 301.075 504.169 299.676C508.36 288.44 511.749 279.362 514.088 273.082C515.258 269.959 516.171 267.536 516.794 265.873C517.418 264.226 517.75 263.373 517.75 263.373C517.75 263.373 517.443 264.243 516.846 265.898C516.231 267.562 515.343 269.993 514.191 273.125C511.869 279.413 508.505 288.499 504.348 299.744C503.828 301.152 503.29 302.594 502.743 304.07C502.154 305.555 500.882 306.8 499.32 307.38C498.543 307.679 497.681 307.782 496.845 307.747C496.008 307.739 495.163 307.73 494.309 307.713C492.602 307.696 490.869 307.671 489.094 307.645C482.017 307.56 474.454 307.457 466.481 307.363C450.535 307.159 432.967 306.928 414.46 306.689H414.332V306.553C414.332 304.923 414.332 303.157 414.332 301.391V300.128H414.468C425.062 300.521 435.374 300.896 445.165 301.255L445.037 301.348C449.732 286.827 454.12 273.244 458.064 261.035C458.294 260.241 458.841 259.55 459.532 259.115C460.224 258.663 461.086 258.561 461.854 258.603C463.416 258.603 464.944 258.612 466.455 258.62C469.477 258.629 472.396 258.646 475.222 258.655C480.856 258.68 486.08 258.697 490.818 258.714C500.293 258.757 507.865 258.791 513.081 258.817C513.73 258.825 514.344 258.817 514.925 258.842C515.505 258.876 516.035 259.073 516.461 259.337C517.324 259.875 517.75 260.685 517.921 261.342C518.083 262.008 518.015 262.545 517.93 262.878C517.844 263.211 517.767 263.373 517.767 263.373H517.75Z" fill="#263238"/>
<path d="M481.061 278.679C482.136 277.954 484.117 278.244 485.082 279.106C486.046 279.967 486.362 281.469 485.867 282.663C485.38 283.866 484.143 284.703 482.845 284.771C481.471 284.848 480.037 283.986 479.652 282.663C479.268 281.341 479.695 279.37 481.061 278.67" fill="white"/>
<path d="M499.978 348.121C499.978 348.121 425.421 300.393 422.125 298.516C419.326 296.92 411.839 292.313 404.447 294.352C397.063 296.391 390.438 303.004 387.126 312.679C385.231 318.208 384.343 327.635 383.925 334.708C383.421 343.163 386.042 351.593 391.574 358.009C394.092 360.927 397.199 363.47 400.878 364.613C401.655 364.852 402.466 365.065 403.294 365.244C417.405 368.299 431.908 361.968 439.839 349.912L441.58 347.267C441.58 347.267 490.408 365.193 491.168 364.946L499.969 348.138L499.978 348.121Z" fill="#263238"/>
<path d="M425.975 301.152C425.975 301.152 425.907 301.118 425.788 301.041C425.651 300.947 425.48 300.828 425.267 300.683C424.814 300.367 424.14 299.898 423.252 299.335C421.485 298.209 418.865 296.596 415.331 295.316C413.572 294.685 411.557 294.182 409.364 294.062C407.178 293.968 404.805 294.292 402.509 295.18C400.195 296.042 397.959 297.424 395.919 299.173C394.894 300.052 393.913 301.007 392.991 302.048C392.077 303.089 391.275 304.249 390.566 305.486C389.149 307.961 388.099 310.58 387.348 313.165C386.648 315.767 386.085 318.336 385.547 320.759C384.48 325.622 383.908 330.075 383.831 333.83C383.771 337.592 384.147 340.621 384.506 342.694C384.668 343.735 384.856 344.529 384.966 345.075C385.018 345.322 385.052 345.527 385.086 345.697C385.112 345.834 385.12 345.911 385.112 345.911C385.112 345.911 385.077 345.843 385.043 345.706C385.001 345.544 384.949 345.339 384.881 345.1C384.745 344.563 384.531 343.769 384.335 342.728C383.925 340.664 383.49 337.618 383.515 333.83C383.549 330.05 384.096 325.554 385.146 320.673C385.675 318.233 386.221 315.682 386.93 313.046C387.681 310.426 388.74 307.782 390.182 305.265C390.899 304.01 391.719 302.824 392.658 301.749C393.597 300.691 394.596 299.727 395.637 298.84C397.711 297.065 399.999 295.666 402.364 294.796C404.72 293.9 407.144 293.584 409.389 293.695C411.626 293.832 413.666 294.369 415.441 295.026C418.993 296.366 421.605 298.021 423.346 299.198C424.217 299.787 424.874 300.282 425.318 300.623C425.523 300.785 425.685 300.913 425.813 301.016C425.924 301.11 425.975 301.152 425.975 301.161V301.152Z" fill="#455A64"/>
<path d="M407.639 334.649C407.639 334.649 407.776 334.717 408.049 334.828C408.348 334.947 408.749 335.109 409.27 335.314C410.371 335.741 411.959 336.346 413.999 337.131C418.148 338.693 424.14 340.954 431.584 343.752C439.053 346.534 447.999 349.853 458.038 353.504C468.077 357.147 479.208 361.157 491.091 365.176L491.305 365.253L491.407 365.048C493.276 361.49 495.24 357.728 497.237 353.914C498.253 351.968 499.269 350.04 500.208 348.24L500.319 348.018L500.114 347.89C477.698 333.667 457.646 320.946 443.176 311.766C435.954 307.21 430.124 303.533 426.078 300.982C424.072 299.736 422.518 298.755 421.434 298.081C420.913 297.765 420.512 297.518 420.222 297.338C419.949 297.176 419.804 297.1 419.804 297.1C419.804 297.1 419.932 297.202 420.196 297.381C420.478 297.569 420.879 297.833 421.383 298.166C422.45 298.857 423.995 299.864 425.975 301.144C429.996 303.729 435.801 307.449 442.989 312.065C457.432 321.279 477.459 334.051 499.832 348.325L499.739 347.976C498.791 349.776 497.784 351.704 496.768 353.649C494.77 357.463 492.807 361.217 490.938 364.783L491.262 364.655C479.388 360.645 468.256 356.661 458.2 353.043C448.17 349.392 439.207 346.133 431.703 343.402C424.234 340.664 418.224 338.462 414.059 336.935C412.001 336.184 410.405 335.604 409.295 335.203C408.766 335.015 408.356 334.87 408.057 334.768C407.776 334.674 407.631 334.632 407.631 334.632L407.639 334.649Z" fill="#455A64"/>
<path d="M411.498 176.296C410.2 173.736 408.886 171.159 408.186 168.378C407.486 165.597 407.443 162.559 408.629 159.948C409.321 158.421 410.414 157.082 410.96 155.495C411.711 153.311 411.404 150.734 412.753 148.865C414.87 145.939 419.385 146.622 422.655 145.094C425.199 143.9 426.974 141.332 429.655 140.47C431.994 139.719 434.546 140.436 436.8 141.409C439.053 142.373 441.256 143.601 443.697 143.925C445.43 144.156 447.197 143.9 448.947 143.943C450.697 143.977 452.558 144.369 453.787 145.606C455.016 146.852 455.281 149.147 453.941 150.273C457.005 149.753 459.891 152.807 459.848 155.913C459.805 159.018 457.466 161.749 454.641 163.037C451.815 164.325 448.588 164.411 445.498 164.172C436.731 163.489 427.922 160.162 421.955 153.703" fill="#04959E"/>
<path d="M413.384 165.332L407.409 208.717C406.393 216.097 411.762 222.82 419.18 223.469C426.103 224.075 432.292 219.135 433.231 212.249C433.675 208.982 434.059 206.26 434.128 205.927C434.128 205.927 445.319 206.405 447.624 195.586C448.734 190.356 450.151 179.401 451.32 169.47C452.575 158.805 445.404 148.976 434.87 146.869L433.82 146.656C422.399 145.06 414.656 153.865 413.376 165.324L413.384 165.332Z" fill="#FFBE9D"/>
<path d="M434.179 205.774C434.179 205.774 427.205 204.963 420.837 198.931C420.837 198.931 422.621 207.403 433.65 208.589L434.188 205.774H434.179Z" fill="#EB996E"/>
<path d="M446.454 178.693C446.318 179.521 445.507 180.084 444.645 179.956C443.782 179.828 443.193 179.06 443.33 178.241C443.467 177.413 444.278 176.85 445.14 176.978C446.002 177.106 446.591 177.874 446.463 178.693H446.454Z" fill="#263238"/>
<path d="M447.923 174.333C447.692 174.495 446.693 173.395 445.02 173.062C443.356 172.712 441.964 173.327 441.819 173.079C441.751 172.968 442.015 172.644 442.63 172.362C443.236 172.081 444.201 171.885 445.242 172.098C446.284 172.311 447.077 172.866 447.504 173.361C447.94 173.856 448.042 174.257 447.923 174.325V174.333Z" fill="#263238"/>
<path d="M430.892 176.014C430.756 176.842 429.945 177.405 429.083 177.277C428.221 177.149 427.632 176.381 427.768 175.562C427.905 174.734 428.716 174.171 429.578 174.299C430.44 174.427 431.029 175.195 430.901 176.014H430.892Z" fill="#263238"/>
<path d="M431.464 171.364C431.234 171.526 430.227 170.426 428.562 170.093C426.897 169.743 425.506 170.357 425.361 170.11C425.293 169.999 425.557 169.675 426.172 169.393C426.769 169.112 427.742 168.916 428.784 169.129C429.825 169.342 430.619 169.897 431.046 170.392C431.481 170.886 431.584 171.287 431.464 171.356V171.364Z" fill="#263238"/>
<path d="M435.05 184.939C435.058 184.845 436.134 184.87 437.858 184.99C438.293 185.032 438.712 185.024 438.84 184.751C439.002 184.461 438.917 183.966 438.806 183.428C438.609 182.319 438.404 181.159 438.191 179.939C437.363 174.973 436.859 170.929 437.056 170.895C437.252 170.861 438.089 174.862 438.917 179.828C439.113 181.048 439.292 182.217 439.472 183.326C439.54 183.838 439.702 184.444 439.361 185.041C439.181 185.34 438.823 185.502 438.532 185.527C438.242 185.553 438.003 185.51 437.79 185.485C436.083 185.237 435.033 185.032 435.041 184.939H435.05Z" fill="#263238"/>
<path d="M429.911 185.109C430.184 185.143 429.825 186.961 431.123 188.548C432.412 190.143 434.384 190.331 434.35 190.587C434.35 190.706 433.846 190.851 433.027 190.715C432.224 190.587 431.106 190.092 430.312 189.119C429.527 188.147 429.33 187.012 429.416 186.252C429.501 185.485 429.791 185.075 429.911 185.109Z" fill="#263238"/>
<path d="M433.206 164.923C432.95 165.341 431.328 164.795 429.322 164.641C427.324 164.445 425.625 164.701 425.446 164.249C425.369 164.027 425.728 163.66 426.453 163.344C427.171 163.028 428.263 162.815 429.467 162.918C430.67 163.02 431.703 163.429 432.361 163.856C433.018 164.291 433.308 164.718 433.197 164.914L433.206 164.923Z" fill="#04959E"/>
<path d="M448.273 169.385C447.906 169.709 446.83 169.086 445.456 168.788C444.09 168.446 442.852 168.532 442.664 168.079C442.587 167.866 442.843 167.525 443.424 167.269C443.996 167.013 444.901 166.885 445.84 167.107C446.779 167.329 447.538 167.832 447.94 168.318C448.349 168.805 448.435 169.223 448.264 169.385H448.273Z" fill="#04959E"/>
<path d="M412.667 173.54C412.496 173.42 405.65 169.845 404.404 177.311C403.158 184.776 410.909 184.486 410.96 184.273C411.011 184.06 412.667 173.54 412.667 173.54Z" fill="#FFBE9D"/>
<path d="M409.15 181.065C409.15 181.065 409.005 181.133 408.766 181.202C408.536 181.261 408.151 181.27 407.793 181.056C407.05 180.638 406.598 179.273 406.786 177.925C406.879 177.243 407.127 176.62 407.46 176.125C407.776 175.613 408.194 175.297 408.604 175.289C409.014 175.263 409.253 175.545 409.312 175.775C409.381 175.997 409.312 176.142 409.346 176.159C409.364 176.185 409.526 176.057 409.517 175.741C409.517 175.588 409.449 175.4 409.304 175.221C409.15 175.041 408.894 174.931 408.612 174.913C408.032 174.854 407.426 175.297 407.059 175.843C406.666 176.381 406.367 177.081 406.265 177.848C406.06 179.359 406.598 180.894 407.622 181.389C408.126 181.611 408.587 181.526 408.843 181.389C409.107 181.244 409.176 181.082 409.15 181.065Z" fill="#EB996E"/>
<path d="M453.471 159.394C452.191 162.15 445.601 163.216 440.769 161.757C436.313 160.418 434.7 157.585 431.866 155.128C430.67 154.087 429.097 153.467 427.145 153.268C424.78 153.02 422.885 155.375 421.093 156.945C422.091 162.875 419.445 168.753 416.876 174.188C416.594 174.785 416.27 175.434 415.672 175.724C414.656 176.227 413.452 175.434 412.846 174.478C411.882 172.951 411.762 171.049 411.796 169.24C411.882 165.127 412.599 160.989 414.272 157.227C415.945 153.464 418.6 150.086 422.083 147.884C426.428 145.128 431.9 144.344 436.936 145.427C441.964 146.511 446.54 149.394 449.954 153.242C451.542 155.026 452.925 157.073 453.463 159.402" fill="#04959E"/>
<path d="M438.276 177.439C438.345 177.439 438.319 176.799 438.618 175.707C438.917 174.64 439.642 173.071 441.264 171.868C442.826 170.665 445.396 169.991 447.871 170.921C449.092 171.364 450.262 172.2 451.09 173.352C451.943 174.487 452.421 175.946 452.43 177.447C452.413 178.949 451.935 180.408 451.09 181.543C450.262 182.695 449.101 183.531 447.871 183.974C445.387 184.904 442.826 184.23 441.264 183.027C439.651 181.824 438.917 180.263 438.618 179.188C438.319 178.096 438.345 177.447 438.276 177.456C438.259 177.456 438.242 177.618 438.242 177.917C438.234 178.224 438.268 178.676 438.387 179.248C438.618 180.374 439.318 182.046 441 183.369C442.621 184.691 445.362 185.476 448.059 184.503C449.382 184.043 450.654 183.147 451.559 181.901C452.49 180.673 453.019 179.086 453.027 177.456C453.01 175.826 452.49 174.239 451.559 173.011C450.654 171.765 449.382 170.878 448.059 170.409C445.362 169.436 442.621 170.221 441 171.543C439.318 172.866 438.618 174.538 438.387 175.664C438.259 176.236 438.225 176.688 438.234 176.995C438.234 177.302 438.251 177.456 438.268 177.456L438.276 177.439Z" fill="#263238"/>
<path d="M420.563 174.35C420.632 174.35 420.606 173.71 420.905 172.618C421.204 171.552 421.929 169.982 423.551 168.779C425.113 167.576 427.683 166.902 430.158 167.832C431.379 168.276 432.549 169.112 433.377 170.264C434.23 171.398 434.708 172.857 434.717 174.359C434.7 175.861 434.222 177.32 433.377 178.454C432.549 179.606 431.388 180.442 430.158 180.886C427.674 181.816 425.113 181.142 423.551 179.939C421.938 178.736 421.204 177.174 420.905 176.099C420.606 175.007 420.632 174.359 420.563 174.367C420.546 174.367 420.529 174.53 420.529 174.828C420.521 175.135 420.555 175.588 420.683 176.159C420.913 177.285 421.613 178.958 423.295 180.28C424.917 181.603 427.657 182.387 430.355 181.415C431.678 180.954 432.95 180.058 433.855 178.813C434.785 177.584 435.314 175.997 435.323 174.367C435.306 172.738 434.785 171.151 433.855 169.922C432.95 168.677 431.678 167.789 430.355 167.32C427.657 166.347 424.917 167.132 423.295 168.455C421.613 169.777 420.913 171.45 420.683 172.576C420.555 173.147 420.521 173.6 420.529 173.907C420.529 174.214 420.546 174.367 420.563 174.367V174.35Z" fill="#263238"/>
<path d="M435.161 174.598C435.237 174.751 436.185 174.308 437.286 174.64C438.396 174.965 438.942 175.861 439.087 175.775C439.156 175.741 439.121 175.46 438.874 175.084C438.635 174.709 438.14 174.265 437.465 174.06C436.791 173.856 436.134 173.958 435.724 174.137C435.306 174.316 435.126 174.53 435.161 174.598Z" fill="#263238"/>
<path d="M410.533 172.439C410.533 172.61 412.915 172.704 415.851 172.67C418.788 172.627 421.161 172.456 421.161 172.294C421.161 172.132 418.779 172.03 415.843 172.064C412.906 172.106 410.533 172.277 410.533 172.439Z" fill="#263238"/>
<path d="M456.954 152.27C456.954 152.27 456.971 152.534 456.843 152.978C456.715 153.422 456.365 154.044 455.725 154.582C455.093 155.136 454.137 155.563 453.036 155.682C451.935 155.819 450.722 155.682 449.476 155.495C446.975 155.128 444.738 154.633 443.142 154.215C442.34 154.01 441.699 153.823 441.256 153.686C441.076 153.626 440.906 153.575 440.752 153.524C440.632 153.481 440.573 153.464 440.581 153.456C440.581 153.456 440.65 153.456 440.761 153.49C440.923 153.532 441.093 153.575 441.273 153.618C441.819 153.754 442.451 153.908 443.168 154.087C444.773 154.471 447.009 154.949 449.502 155.316C450.748 155.503 451.943 155.64 453.019 155.512C454.094 155.401 455.016 155 455.639 154.479C456.271 153.968 456.63 153.379 456.775 152.944C456.929 152.509 456.937 152.253 456.954 152.253V152.27Z" fill="white"/>
<path d="M458.61 153.968C458.61 153.968 458.533 154.804 457.97 156.007C457.424 157.201 456.297 158.763 454.53 159.812C452.771 160.861 450.859 161.117 449.544 161.032C448.213 160.955 447.444 160.631 447.444 160.631C447.444 160.614 447.649 160.665 448.008 160.742C448.366 160.819 448.896 160.896 449.553 160.913C450.851 160.964 452.72 160.691 454.444 159.667C456.169 158.635 457.287 157.124 457.859 155.955C458.149 155.367 458.328 154.863 458.439 154.514C458.55 154.164 458.593 153.968 458.61 153.968Z" fill="white"/>
</g>
<defs>
<clipPath id="clip0_78_330">
<rect width="599" height="368" fill="white"/>
</clipPath>
</defs>
</svg>
