<svg width="144" height="24" viewBox="0 0 144 24" fill="none" xmlns="http://www.w3.org/2000/svg">
<path d="M9.144 23.82C7.33067 23.82 5.752 23.4467 4.408 22.7C3.08533 21.932 2.06133 20.8973 1.336 19.596C0.632 18.2947 0.28 16.8227 0.28 15.18C0.28 13.26 0.664 11.628 1.432 10.284C2.22133 8.91867 3.24533 7.87333 4.504 7.148C5.76267 6.42267 7.096 6.06 8.504 6.06C9.592 6.06 10.616 6.284 11.576 6.732C12.5573 7.18 13.4213 7.79867 14.168 8.588C14.9147 9.356 15.5013 10.252 15.928 11.276C16.376 12.3 16.6 13.388 16.6 14.54C16.5787 15.052 16.376 15.468 15.992 15.788C15.608 16.108 15.16 16.268 14.648 16.268H2.424L1.464 13.068H13.208L12.504 13.708V12.844C12.4613 12.2253 12.2373 11.6707 11.832 11.18C11.448 10.6893 10.9573 10.3053 10.36 10.028C9.784 9.72933 9.16533 9.58 8.504 9.58C7.864 9.58 7.26667 9.66533 6.712 9.836C6.15733 10.0067 5.67733 10.2947 5.272 10.7C4.86667 11.1053 4.54667 11.6493 4.312 12.332C4.07733 13.0147 3.96 13.8787 3.96 14.924C3.96 16.076 4.19467 17.0573 4.664 17.868C5.15467 18.6573 5.77333 19.2653 6.52 19.692C7.288 20.0973 8.09867 20.3 8.952 20.3C9.74133 20.3 10.3707 20.236 10.84 20.108C11.3093 19.98 11.6827 19.8307 11.96 19.66C12.2587 19.468 12.5253 19.308 12.76 19.18C13.144 18.988 13.5067 18.892 13.848 18.892C14.3173 18.892 14.7013 19.052 15 19.372C15.32 19.692 15.48 20.0653 15.48 20.492C15.48 21.068 15.1813 21.5907 14.584 22.06C14.0293 22.5293 13.2507 22.9453 12.248 23.308C11.2453 23.6493 10.2107 23.82 9.144 23.82ZM22.067 15.596C21.5123 15.596 21.043 15.4147 20.659 15.052C20.2963 14.6893 20.115 14.2307 20.115 13.676C20.115 13.1213 20.2963 12.6733 20.659 12.332C21.043 11.9693 21.5123 11.788 22.067 11.788H27.635C28.1897 11.788 28.6483 11.98 29.011 12.364C29.395 12.7267 29.587 13.1853 29.587 13.74C29.587 14.2733 29.395 14.7213 29.011 15.084C28.6483 15.4253 28.1897 15.596 27.635 15.596H22.067ZM41.8265 23.5C41.2292 23.5 40.7385 23.3187 40.3545 22.956C39.9705 22.572 39.7785 22.1027 39.7785 21.548V2.988H43.9385V21.548C43.9385 22.1027 43.7358 22.572 43.3305 22.956C42.9465 23.3187 42.4452 23.5 41.8265 23.5ZM34.7545 4.78C34.1998 4.78 33.7305 4.60933 33.3465 4.268C32.9838 3.92667 32.8025 3.47867 32.8025 2.924C32.8025 2.36933 32.9838 1.932 33.3465 1.612C33.7305 1.27067 34.1998 1.1 34.7545 1.1H48.9625C49.5172 1.1 49.9758 1.27067 50.3385 1.612C50.7225 1.95333 50.9145 2.40133 50.9145 2.956C50.9145 3.51067 50.7225 3.95867 50.3385 4.3C49.9758 4.62 49.5172 4.78 48.9625 4.78H34.7545ZM63.454 6.38C64.0087 6.38 64.4673 6.572 64.83 6.956C65.1927 7.31867 65.374 7.77733 65.374 8.332V16.46C65.374 18.7213 64.7447 20.5133 63.486 21.836C62.2273 23.1587 60.414 23.82 58.046 23.82C55.678 23.82 53.8647 23.1587 52.606 21.836C51.3687 20.5133 50.75 18.7213 50.75 16.46V8.332C50.75 7.77733 50.9313 7.31867 51.294 6.956C51.6567 6.572 52.1153 6.38 52.67 6.38C53.2247 6.38 53.6833 6.572 54.046 6.956C54.4087 7.31867 54.59 7.77733 54.59 8.332V16.46C54.59 17.7613 54.878 18.732 55.454 19.372C56.03 19.9907 56.894 20.3 58.046 20.3C59.2193 20.3 60.094 19.9907 60.67 19.372C61.246 18.732 61.534 17.7613 61.534 16.46V8.332C61.534 7.77733 61.7153 7.31867 62.078 6.956C62.4407 6.572 62.8993 6.38 63.454 6.38ZM70.3632 6.7H77.9472C78.4592 6.7 78.8859 6.87067 79.2272 7.212C79.5686 7.55333 79.7392 7.98 79.7392 8.492C79.7392 8.98267 79.5686 9.39867 79.2272 9.74C78.8859 10.06 78.4592 10.22 77.9472 10.22H70.3632C69.8512 10.22 69.4246 10.0493 69.0832 9.708C68.7419 9.36667 68.5712 8.94 68.5712 8.428C68.5712 7.93733 68.7419 7.532 69.0832 7.212C69.4246 6.87067 69.8512 6.7 70.3632 6.7ZM73.7872 2.7C74.3419 2.7 74.7899 2.892 75.1312 3.276C75.4939 3.63867 75.6752 4.09733 75.6752 4.652V18.892C75.6752 19.1907 75.7286 19.436 75.8352 19.628C75.9632 19.82 76.1232 19.9587 76.3152 20.044C76.5286 20.1293 76.7526 20.172 76.9872 20.172C77.2432 20.172 77.4779 20.1293 77.6912 20.044C77.9046 19.9373 78.1499 19.884 78.4272 19.884C78.7259 19.884 78.9926 20.0227 79.2272 20.3C79.4832 20.5773 79.6112 20.9613 79.6112 21.452C79.6112 22.0493 79.2806 22.54 78.6192 22.924C77.9792 23.308 77.2859 23.5 76.5392 23.5C76.0912 23.5 75.5899 23.468 75.0352 23.404C74.5019 23.3187 73.9899 23.1373 73.4992 22.86C73.0299 22.5613 72.6352 22.1133 72.3152 21.516C71.9952 20.9187 71.8352 20.0973 71.8352 19.052V4.652C71.8352 4.09733 72.0166 3.63867 72.3792 3.276C72.7632 2.892 73.2326 2.7 73.7872 2.7ZM100.357 14.956C100.357 16.7053 99.9621 18.252 99.1727 19.596C98.4047 20.9187 97.3594 21.9533 96.0367 22.7C94.7354 23.4467 93.2741 23.82 91.6527 23.82C90.0314 23.82 88.5594 23.4467 87.2367 22.7C85.9354 21.9533 84.8901 20.9187 84.1007 19.596C83.3327 18.252 82.9487 16.7053 82.9487 14.956C82.9487 13.2067 83.3327 11.6707 84.1007 10.348C84.8901 9.004 85.9354 7.95867 87.2367 7.212C88.5594 6.444 90.0314 6.06 91.6527 6.06C93.2741 6.06 94.7354 6.444 96.0367 7.212C97.3594 7.95867 98.4047 9.004 99.1727 10.348C99.9621 11.6707 100.357 13.2067 100.357 14.956ZM96.5167 14.956C96.5167 13.868 96.2927 12.9293 95.8447 12.14C95.4181 11.3293 94.8314 10.7 94.0847 10.252C93.3594 9.804 92.5487 9.58 91.6527 9.58C90.7567 9.58 89.9354 9.804 89.1887 10.252C88.4634 10.7 87.8767 11.3293 87.4287 12.14C87.0021 12.9293 86.7887 13.868 86.7887 14.956C86.7887 16.0227 87.0021 16.9613 87.4287 17.772C87.8767 18.5613 88.4634 19.18 89.1887 19.628C89.9354 20.076 90.7567 20.3 91.6527 20.3C92.5487 20.3 93.3594 20.076 94.0847 19.628C94.8314 19.18 95.4181 18.5613 95.8447 17.772C96.2927 16.9613 96.5167 16.0227 96.5167 14.956ZM106.277 23.5C105.723 23.5 105.264 23.3187 104.901 22.956C104.539 22.572 104.357 22.1027 104.357 21.548V8.332C104.357 7.77733 104.539 7.31867 104.901 6.956C105.264 6.572 105.723 6.38 106.277 6.38C106.832 6.38 107.291 6.572 107.653 6.956C108.016 7.31867 108.197 7.77733 108.197 8.332V11.34L107.973 9.196C108.208 8.684 108.507 8.236 108.869 7.852C109.253 7.44667 109.68 7.116 110.149 6.86C110.619 6.58267 111.12 6.38 111.653 6.252C112.187 6.124 112.72 6.06 113.253 6.06C113.893 6.06 114.427 6.24133 114.853 6.604C115.301 6.96667 115.525 7.39333 115.525 7.884C115.525 8.588 115.344 9.1 114.981 9.42C114.619 9.71867 114.224 9.868 113.797 9.868C113.392 9.868 113.019 9.79333 112.677 9.644C112.357 9.49467 111.984 9.42 111.557 9.42C111.173 9.42 110.779 9.516 110.373 9.708C109.989 9.87867 109.627 10.156 109.285 10.54C108.965 10.924 108.699 11.404 108.485 11.98C108.293 12.5347 108.197 13.196 108.197 13.964V21.548C108.197 22.1027 108.016 22.572 107.653 22.956C107.291 23.3187 106.832 23.5 106.277 23.5ZM122.489 21.548C122.489 22.1027 122.307 22.572 121.945 22.956C121.582 23.3187 121.123 23.5 120.569 23.5C120.014 23.5 119.555 23.3187 119.193 22.956C118.83 22.572 118.649 22.1027 118.649 21.548V8.332C118.649 7.77733 118.83 7.31867 119.193 6.956C119.555 6.572 120.014 6.38 120.569 6.38C121.123 6.38 121.582 6.572 121.945 6.956C122.307 7.31867 122.489 7.77733 122.489 8.332V21.548ZM120.537 4.3C119.811 4.3 119.299 4.18267 119.001 3.948C118.702 3.71333 118.553 3.29733 118.553 2.7V2.092C118.553 1.47333 118.713 1.05733 119.033 0.844C119.374 0.609332 119.886 0.491999 120.569 0.491999C121.315 0.491999 121.838 0.609332 122.137 0.844C122.435 1.07867 122.585 1.49467 122.585 2.092V2.7C122.585 3.31867 122.425 3.74533 122.105 3.98C121.785 4.19333 121.262 4.3 120.537 4.3ZM141.091 6.06C141.646 6.06 142.104 6.24133 142.467 6.604C142.83 6.96667 143.011 7.436 143.011 8.012V21.548C143.011 22.1027 142.83 22.572 142.467 22.956C142.104 23.3187 141.646 23.5 141.091 23.5C140.536 23.5 140.078 23.3187 139.715 22.956C139.352 22.572 139.171 22.1027 139.171 21.548V19.98L139.875 20.268C139.875 20.5453 139.726 20.8867 139.427 21.292C139.128 21.676 138.723 22.06 138.211 22.444C137.699 22.828 137.091 23.1587 136.387 23.436C135.704 23.692 134.958 23.82 134.147 23.82C132.675 23.82 131.342 23.4467 130.147 22.7C128.952 21.932 128.003 20.8867 127.299 19.564C126.616 18.22 126.275 16.684 126.275 14.956C126.275 13.2067 126.616 11.6707 127.299 10.348C128.003 9.004 128.942 7.95867 130.115 7.212C131.288 6.444 132.59 6.06 134.019 6.06C134.936 6.06 135.779 6.19867 136.547 6.476C137.315 6.75333 137.976 7.10533 138.531 7.532C139.107 7.95867 139.544 8.396 139.843 8.844C140.163 9.27067 140.323 9.63333 140.323 9.932L139.171 10.348V8.012C139.171 7.45733 139.352 6.99867 139.715 6.636C140.078 6.252 140.536 6.06 141.091 6.06ZM134.627 20.3C135.566 20.3 136.387 20.0653 137.091 19.596C137.795 19.1267 138.339 18.4867 138.723 17.676C139.128 16.8653 139.331 15.9587 139.331 14.956C139.331 13.932 139.128 13.0147 138.723 12.204C138.339 11.3933 137.795 10.7533 137.091 10.284C136.387 9.81467 135.566 9.58 134.627 9.58C133.71 9.58 132.899 9.81467 132.195 10.284C131.491 10.7533 130.936 11.3933 130.531 12.204C130.147 13.0147 129.955 13.932 129.955 14.956C129.955 15.9587 130.147 16.8653 130.531 17.676C130.936 18.4867 131.491 19.1267 132.195 19.596C132.899 20.0653 133.71 20.3 134.627 20.3Z" fill="black"/>
</svg>
