<svg width="66" height="19" viewBox="0 0 66 19" fill="none" xmlns="http://www.w3.org/2000/svg">
<path d="M0.048 18L7.728 1.2H9.48L17.16 18H15.288L8.232 2.232H8.952L1.896 18H0.048ZM3.072 13.512L3.6 12.072H13.368L13.896 13.512H3.072ZM22.1863 18L16.5943 5.4H18.3703L23.5063 17.088H22.6663L27.8743 5.4H29.5543L23.9383 18H22.1863ZM31.9541 18V5.4H33.6581V18H31.9541ZM32.8181 2.616C32.4661 2.616 32.1701 2.496 31.9301 2.256C31.6901 2.016 31.5701 1.728 31.5701 1.392C31.5701 1.056 31.6901 0.775999 31.9301 0.551999C32.1701 0.311999 32.4661 0.191999 32.8181 0.191999C33.1701 0.191999 33.4661 0.303999 33.7061 0.527999C33.9461 0.751999 34.0661 1.032 34.0661 1.368C34.0661 1.72 33.9461 2.016 33.7061 2.256C33.4821 2.496 33.1861 2.616 32.8181 2.616ZM43.5354 18.12C42.3194 18.12 41.2234 17.848 40.2474 17.304C39.2874 16.744 38.5274 15.984 37.9674 15.024C37.4074 14.048 37.1274 12.936 37.1274 11.688C37.1274 10.424 37.4074 9.312 37.9674 8.352C38.5274 7.392 39.2874 6.64 40.2474 6.096C41.2074 5.552 42.3034 5.28 43.5354 5.28C44.7834 5.28 45.8874 5.552 46.8474 6.096C47.8234 6.64 48.5834 7.392 49.1274 8.352C49.6874 9.312 49.9674 10.424 49.9674 11.688C49.9674 12.936 49.6874 14.048 49.1274 15.024C48.5834 15.984 47.8234 16.744 46.8474 17.304C45.8714 17.848 44.7674 18.12 43.5354 18.12ZM43.5354 16.608C44.4474 16.608 45.2554 16.408 45.9594 16.008C46.6634 15.592 47.2154 15.016 47.6154 14.28C48.0314 13.528 48.2394 12.664 48.2394 11.688C48.2394 10.696 48.0314 9.832 47.6154 9.096C47.2154 8.36 46.6634 7.792 45.9594 7.392C45.2554 6.976 44.4554 6.768 43.5594 6.768C42.6634 6.768 41.8634 6.976 41.1594 7.392C40.4554 7.792 39.8954 8.36 39.4794 9.096C39.0634 9.832 38.8554 10.696 38.8554 11.688C38.8554 12.664 39.0634 13.528 39.4794 14.28C39.8954 15.016 40.4554 15.592 41.1594 16.008C41.8634 16.408 42.6554 16.608 43.5354 16.608ZM59.8783 5.28C60.9023 5.28 61.7983 5.48 62.5663 5.88C63.3503 6.264 63.9583 6.856 64.3903 7.656C64.8383 8.456 65.0623 9.464 65.0623 10.68V18H63.3583V10.848C63.3583 9.52 63.0223 8.52 62.3503 7.848C61.6943 7.16 60.7663 6.816 59.5663 6.816C58.6703 6.816 57.8863 7 57.2143 7.368C56.5583 7.72 56.0463 8.24 55.6783 8.928C55.3263 9.6 55.1503 10.416 55.1503 11.376V18H53.4463V5.4H55.0783V8.856L54.8143 8.208C55.2143 7.296 55.8543 6.584 56.7343 6.072C57.6143 5.544 58.6623 5.28 59.8783 5.28Z" fill="#22202E"/>
</svg>
