<svg width="323" height="77" viewBox="0 0 323 77" fill="none" xmlns="http://www.w3.org/2000/svg">
<path d="M0 2.125H18.8281C23.099 2.125 26.7057 2.77604 29.6484 4.07812C32.6172 5.38021 34.8698 7.30729 36.4062 9.85938C37.9688 12.3854 38.75 15.4974 38.75 19.1953C38.75 21.7995 38.2161 24.1823 37.1484 26.3438C36.1068 28.4792 34.5964 30.3021 32.6172 31.8125C30.6641 33.2969 28.3203 34.4036 25.5859 35.1328L23.4766 35.9531H5.78125L5.70312 29.8203H19.0625C21.7708 29.8203 24.0234 29.3516 25.8203 28.4141C27.6172 27.4505 28.9714 26.1615 29.8828 24.5469C30.7943 22.9323 31.25 21.1484 31.25 19.1953C31.25 17.0078 30.8203 15.0938 29.9609 13.4531C29.1016 11.8125 27.7474 10.5495 25.8984 9.66406C24.0755 8.7526 21.7188 8.29688 18.8281 8.29688H7.53906V59H0V2.125ZM33.2422 59L19.4141 33.2188L27.2656 33.1797L41.2891 58.5312V59H33.2422ZM73.125 51.7734V30.0156C73.125 28.349 72.7865 26.9036 72.1094 25.6797C71.4583 24.4297 70.4688 23.4661 69.1406 22.7891C67.8125 22.112 66.1719 21.7734 64.2188 21.7734C62.3958 21.7734 60.7943 22.0859 59.4141 22.7109C58.0599 23.3359 56.9922 24.1562 56.2109 25.1719C55.4557 26.1875 55.0781 27.2812 55.0781 28.4531H47.8516C47.8516 26.9427 48.2422 25.4453 49.0234 23.9609C49.8047 22.4766 50.9245 21.1354 52.3828 19.9375C53.8672 18.7135 55.638 17.75 57.6953 17.0469C59.7786 16.3177 62.0964 15.9531 64.6484 15.9531C67.7214 15.9531 70.4297 16.474 72.7734 17.5156C75.1432 18.5573 76.9922 20.1328 78.3203 22.2422C79.6745 24.3255 80.3516 26.9427 80.3516 30.0938V49.7812C80.3516 51.1875 80.4688 52.6849 80.7031 54.2734C80.9635 55.862 81.3411 57.2292 81.8359 58.375V59H74.2969C73.9323 58.1667 73.6458 57.0599 73.4375 55.6797C73.2292 54.2734 73.125 52.9714 73.125 51.7734ZM74.375 33.375L74.4531 38.4531H67.1484C65.0911 38.4531 63.2552 38.6224 61.6406 38.9609C60.026 39.2734 58.6719 39.7552 57.5781 40.4062C56.4844 41.0573 55.651 41.8776 55.0781 42.8672C54.5052 43.8307 54.2188 44.9635 54.2188 46.2656C54.2188 47.5938 54.5182 48.8047 55.1172 49.8984C55.7161 50.9922 56.6146 51.8646 57.8125 52.5156C59.0365 53.1406 60.5339 53.4531 62.3047 53.4531C64.5182 53.4531 66.4714 52.9844 68.1641 52.0469C69.8568 51.1094 71.1979 49.9635 72.1875 48.6094C73.2031 47.2552 73.75 45.9401 73.8281 44.6641L76.9141 48.1406C76.7318 49.2344 76.237 50.4453 75.4297 51.7734C74.6224 53.1016 73.5417 54.3776 72.1875 55.6016C70.8594 56.7995 69.2708 57.8021 67.4219 58.6094C65.599 59.3906 63.5417 59.7812 61.25 59.7812C58.3854 59.7812 55.8724 59.2214 53.7109 58.1016C51.5755 56.9818 49.9089 55.4844 48.7109 53.6094C47.5391 51.7083 46.9531 49.5859 46.9531 47.2422C46.9531 44.9766 47.3958 42.9844 48.2812 41.2656C49.1667 39.5208 50.4427 38.0755 52.1094 36.9297C53.776 35.7578 55.7812 34.8724 58.125 34.2734C60.4688 33.6745 63.0859 33.375 65.9766 33.375H74.375Z" fill="black"/>
<path d="M98.9062 25.1328V59H91.6406V16.7344H98.5156L98.9062 25.1328ZM97.4219 36.2656L94.0625 36.1484C94.0885 33.2578 94.4661 30.5885 95.1953 28.1406C95.9245 25.6667 97.0052 23.5182 98.4375 21.6953C99.8698 19.8724 101.654 18.4661 103.789 17.4766C105.924 16.4609 108.398 15.9531 111.211 15.9531C113.19 15.9531 115.013 16.2396 116.68 16.8125C118.346 17.3594 119.792 18.2318 121.016 19.4297C122.24 20.6276 123.19 22.1641 123.867 24.0391C124.544 25.9141 124.883 28.1797 124.883 30.8359V59H117.656V31.1875C117.656 28.974 117.279 27.2031 116.523 25.875C115.794 24.5469 114.753 23.5833 113.398 22.9844C112.044 22.3594 110.456 22.0469 108.633 22.0469C106.497 22.0469 104.714 22.4245 103.281 23.1797C101.849 23.9349 100.703 24.9766 99.8438 26.3047C98.9844 27.6328 98.3594 29.1562 97.9688 30.875C97.6042 32.5677 97.4219 34.3646 97.4219 36.2656ZM124.805 32.2812L119.961 33.7656C119.987 31.4479 120.365 29.2214 121.094 27.0859C121.849 24.9505 122.93 23.0495 124.336 21.3828C125.768 19.7161 127.526 18.401 129.609 17.4375C131.693 16.4479 134.076 15.9531 136.758 15.9531C139.023 15.9531 141.029 16.2526 142.773 16.8516C144.544 17.4505 146.029 18.375 147.227 19.625C148.451 20.849 149.375 22.4245 150 24.3516C150.625 26.2786 150.938 28.5703 150.938 31.2266V59H143.672V31.1484C143.672 28.7786 143.294 26.9427 142.539 25.6406C141.81 24.3125 140.768 23.388 139.414 22.8672C138.086 22.3203 136.497 22.0469 134.648 22.0469C133.06 22.0469 131.654 22.3203 130.43 22.8672C129.206 23.4141 128.177 24.1693 127.344 25.1328C126.51 26.0703 125.872 27.151 125.43 28.375C125.013 29.599 124.805 30.901 124.805 32.2812ZM188.516 50.7969V-1H195.781V59H189.141L188.516 50.7969ZM160.078 38.3359V37.5156C160.078 34.2865 160.469 31.3568 161.25 28.7266C162.057 26.0703 163.19 23.7917 164.648 21.8906C166.133 19.9896 167.891 18.5312 169.922 17.5156C171.979 16.474 174.271 15.9531 176.797 15.9531C179.453 15.9531 181.771 16.4219 183.75 17.3594C185.755 18.2708 187.448 19.612 188.828 21.3828C190.234 23.1276 191.341 25.237 192.148 27.7109C192.956 30.1849 193.516 32.9844 193.828 36.1094V39.7031C193.542 42.8021 192.982 45.5885 192.148 48.0625C191.341 50.5365 190.234 52.6458 188.828 54.3906C187.448 56.1354 185.755 57.4766 183.75 58.4141C181.745 59.3255 179.401 59.7812 176.719 59.7812C174.245 59.7812 171.979 59.2474 169.922 58.1797C167.891 57.112 166.133 55.6146 164.648 53.6875C163.19 51.7604 162.057 49.4948 161.25 46.8906C160.469 44.2604 160.078 41.4089 160.078 38.3359ZM167.344 37.5156V38.3359C167.344 40.4453 167.552 42.4245 167.969 44.2734C168.411 46.1224 169.089 47.75 170 49.1562C170.911 50.5625 172.07 51.6693 173.477 52.4766C174.883 53.2578 176.562 53.6484 178.516 53.6484C180.911 53.6484 182.878 53.1406 184.414 52.125C185.977 51.1094 187.227 49.7682 188.164 48.1016C189.102 46.4349 189.831 44.625 190.352 42.6719V33.2578C190.039 31.8255 189.583 30.4453 188.984 29.1172C188.411 27.763 187.656 26.5651 186.719 25.5234C185.807 24.4557 184.674 23.6094 183.32 22.9844C181.992 22.3594 180.417 22.0469 178.594 22.0469C176.615 22.0469 174.909 22.4635 173.477 23.2969C172.07 24.1042 170.911 25.224 170 26.6562C169.089 28.0625 168.411 29.7031 167.969 31.5781C167.552 33.4271 167.344 35.4062 167.344 37.5156ZM231.953 51.7734V30.0156C231.953 28.349 231.615 26.9036 230.938 25.6797C230.286 24.4297 229.297 23.4661 227.969 22.7891C226.641 22.112 225 21.7734 223.047 21.7734C221.224 21.7734 219.622 22.0859 218.242 22.7109C216.888 23.3359 215.82 24.1562 215.039 25.1719C214.284 26.1875 213.906 27.2812 213.906 28.4531H206.68C206.68 26.9427 207.07 25.4453 207.852 23.9609C208.633 22.4766 209.753 21.1354 211.211 19.9375C212.695 18.7135 214.466 17.75 216.523 17.0469C218.607 16.3177 220.924 15.9531 223.477 15.9531C226.549 15.9531 229.258 16.474 231.602 17.5156C233.971 18.5573 235.82 20.1328 237.148 22.2422C238.503 24.3255 239.18 26.9427 239.18 30.0938V49.7812C239.18 51.1875 239.297 52.6849 239.531 54.2734C239.792 55.862 240.169 57.2292 240.664 58.375V59H233.125C232.76 58.1667 232.474 57.0599 232.266 55.6797C232.057 54.2734 231.953 52.9714 231.953 51.7734ZM233.203 33.375L233.281 38.4531H225.977C223.919 38.4531 222.083 38.6224 220.469 38.9609C218.854 39.2734 217.5 39.7552 216.406 40.4062C215.312 41.0573 214.479 41.8776 213.906 42.8672C213.333 43.8307 213.047 44.9635 213.047 46.2656C213.047 47.5938 213.346 48.8047 213.945 49.8984C214.544 50.9922 215.443 51.8646 216.641 52.5156C217.865 53.1406 219.362 53.4531 221.133 53.4531C223.346 53.4531 225.299 52.9844 226.992 52.0469C228.685 51.1094 230.026 49.9635 231.016 48.6094C232.031 47.2552 232.578 45.9401 232.656 44.6641L235.742 48.1406C235.56 49.2344 235.065 50.4453 234.258 51.7734C233.451 53.1016 232.37 54.3776 231.016 55.6016C229.688 56.7995 228.099 57.8021 226.25 58.6094C224.427 59.3906 222.37 59.7812 220.078 59.7812C217.214 59.7812 214.701 59.2214 212.539 58.1016C210.404 56.9818 208.737 55.4844 207.539 53.6094C206.367 51.7083 205.781 49.5859 205.781 47.2422C205.781 44.9766 206.224 42.9844 207.109 41.2656C207.995 39.5208 209.271 38.0755 210.938 36.9297C212.604 35.7578 214.609 34.8724 216.953 34.2734C219.297 33.6745 221.914 33.375 224.805 33.375H233.203ZM250.664 55.1719C250.664 53.9479 251.042 52.9193 251.797 52.0859C252.578 51.2266 253.698 50.7969 255.156 50.7969C256.615 50.7969 257.721 51.2266 258.477 52.0859C259.258 52.9193 259.648 53.9479 259.648 55.1719C259.648 56.3698 259.258 57.3854 258.477 58.2188C257.721 59.0521 256.615 59.4688 255.156 59.4688C253.698 59.4688 252.578 59.0521 251.797 58.2188C251.042 57.3854 250.664 56.3698 250.664 55.1719ZM271.836 16.7344H279.102V64.0391C279.102 66.6172 278.685 68.8047 277.852 70.6016C277.044 72.3984 275.82 73.7526 274.18 74.6641C272.565 75.6016 270.521 76.0703 268.047 76.0703C267.396 76.0703 266.641 76.0052 265.781 75.875C264.896 75.7448 264.154 75.5885 263.555 75.4062L263.594 69.5859C264.089 69.6901 264.648 69.7682 265.273 69.8203C265.898 69.8984 266.445 69.9375 266.914 69.9375C267.982 69.9375 268.88 69.7422 269.609 69.3516C270.339 68.9609 270.885 68.3359 271.25 67.4766C271.641 66.6172 271.836 65.4714 271.836 64.0391V16.7344ZM271.094 5.52344C271.094 4.35156 271.458 3.36198 272.188 2.55469C272.917 1.7474 273.971 1.34375 275.352 1.34375C276.758 1.34375 277.826 1.7474 278.555 2.55469C279.284 3.36198 279.648 4.35156 279.648 5.52344C279.648 6.64323 279.284 7.60677 278.555 8.41406C277.826 9.19531 276.758 9.58594 275.352 9.58594C273.971 9.58594 272.917 9.19531 272.188 8.41406C271.458 7.60677 271.094 6.64323 271.094 5.52344ZM315.391 47.7891C315.391 46.7474 315.156 45.7839 314.688 44.8984C314.245 43.987 313.32 43.1667 311.914 42.4375C310.534 41.6823 308.451 41.0312 305.664 40.4844C303.32 39.9896 301.198 39.4036 299.297 38.7266C297.422 38.0495 295.82 37.2292 294.492 36.2656C293.19 35.3021 292.188 34.1693 291.484 32.8672C290.781 31.5651 290.43 30.0417 290.43 28.2969C290.43 26.6302 290.794 25.0547 291.523 23.5703C292.279 22.0859 293.333 20.7708 294.688 19.625C296.068 18.4792 297.721 17.5807 299.648 16.9297C301.576 16.2786 303.724 15.9531 306.094 15.9531C309.479 15.9531 312.37 16.5521 314.766 17.75C317.161 18.9479 318.997 20.5495 320.273 22.5547C321.549 24.5339 322.188 26.7344 322.188 29.1562H314.961C314.961 27.9844 314.609 26.8516 313.906 25.7578C313.229 24.638 312.227 23.7135 310.898 22.9844C309.596 22.2552 307.995 21.8906 306.094 21.8906C304.089 21.8906 302.461 22.2031 301.211 22.8281C299.987 23.4271 299.089 24.1953 298.516 25.1328C297.969 26.0703 297.695 27.0599 297.695 28.1016C297.695 28.8828 297.826 29.5859 298.086 30.2109C298.372 30.8099 298.867 31.3698 299.57 31.8906C300.273 32.3854 301.263 32.8542 302.539 33.2969C303.815 33.7396 305.443 34.1823 307.422 34.625C310.885 35.4062 313.737 36.3438 315.977 37.4375C318.216 38.5312 319.883 39.8724 320.977 41.4609C322.07 43.0495 322.617 44.9766 322.617 47.2422C322.617 49.0911 322.227 50.7839 321.445 52.3203C320.69 53.8568 319.583 55.1849 318.125 56.3047C316.693 57.3984 314.974 58.2578 312.969 58.8828C310.99 59.4818 308.763 59.7812 306.289 59.7812C302.565 59.7812 299.414 59.1172 296.836 57.7891C294.258 56.4609 292.305 54.7422 290.977 52.6328C289.648 50.5234 288.984 48.2969 288.984 45.9531H296.25C296.354 47.9323 296.927 49.5078 297.969 50.6797C299.01 51.8255 300.286 52.6458 301.797 53.1406C303.307 53.6094 304.805 53.8438 306.289 53.8438C308.268 53.8438 309.922 53.5833 311.25 53.0625C312.604 52.5417 313.633 51.8255 314.336 50.9141C315.039 50.0026 315.391 48.9609 315.391 47.7891Z" fill="#4BCAFF"/>
</svg>
