<svg width="128" height="26" viewBox="0 0 128 26" fill="none" xmlns="http://www.w3.org/2000/svg">
<g clip-path="url(#clip0_18361_44)">
<path d="M40.8594 14.8984C40.8594 15.8776 40.5026 16.6406 39.7891 17.1875C39.0755 17.7292 38.0833 18 36.8125 18H32.3438V6.99219H36.3438C38.9271 6.99219 40.2188 7.88281 40.2188 9.66406C40.2188 10.3151 40.0365 10.862 39.6719 11.3047C39.3073 11.7474 38.7917 12.0443 38.125 12.1953C39 12.2995 39.6745 12.5938 40.1484 13.0781C40.6224 13.5573 40.8594 14.1641 40.8594 14.8984ZM38.7188 9.84375C38.7188 9.25 38.5156 8.82552 38.1094 8.57031C37.7031 8.3151 37.1146 8.1875 36.3438 8.1875H33.8359V11.6719H36.3438C37.1406 11.6719 37.7344 11.5234 38.125 11.2266C38.5208 10.9245 38.7188 10.4635 38.7188 9.84375ZM39.3516 14.7812C39.3516 13.4844 38.4401 12.8359 36.6172 12.8359H33.8359V16.8047H36.7344C37.6458 16.8047 38.3099 16.6354 38.7266 16.2969C39.1432 15.9583 39.3516 15.4531 39.3516 14.7812ZM50.8203 18L49.5625 14.7812H44.5469L43.2812 18H41.7344L46.2266 6.99219H47.9219L52.3438 18H50.8203ZM47.0547 8.11719L46.9844 8.33594C46.8542 8.76823 46.6615 9.32292 46.4062 10L45 13.6172H49.1172L47.7031 9.98438C47.5573 9.625 47.4115 9.21875 47.2656 8.76562L47.0547 8.11719ZM60.8281 18L54.9375 8.625L54.9766 9.38281L55.0156 10.6875V18H53.6875V6.99219H55.4219L61.375 16.4297C61.3125 15.4089 61.2812 14.6693 61.2812 14.2109V6.99219H62.625V18H60.8281ZM74.7266 12.3828C74.7266 13.5182 74.5052 14.513 74.0625 15.3672C73.6198 16.2161 72.9922 16.8672 72.1797 17.3203C71.3672 17.7734 70.4297 18 69.3672 18H65.25V6.99219H68.8906C70.7552 6.99219 72.1927 7.46094 73.2031 8.39844C74.2188 9.33073 74.7266 10.6589 74.7266 12.3828ZM73.2266 12.3828C73.2266 11.0182 72.8516 9.97917 72.1016 9.26562C71.3568 8.54688 70.276 8.1875 68.8594 8.1875H66.7422V16.8047H69.1953C70.0026 16.8047 70.7109 16.6276 71.3203 16.2734C71.9349 15.9193 72.4062 15.4089 72.7344 14.7422C73.0625 14.0755 73.2266 13.2891 73.2266 12.3828ZM87.3047 18H85.5234L83.6172 11.0078C83.4922 10.5703 83.3099 9.78646 83.0703 8.65625C82.9349 9.26042 82.8203 9.76562 82.7266 10.1719C82.6328 10.5781 81.9219 13.1875 80.5938 18H78.8125L75.5703 6.99219H77.125L79.1016 13.9844C79.3359 14.8594 79.5521 15.7604 79.75 16.6875C79.875 16.1146 80.0182 15.4896 80.1797 14.8125C80.3464 14.1354 81.0703 11.5286 82.3516 6.99219H83.7812L85.6953 13.8438C85.987 14.9635 86.2161 15.9115 86.3828 16.6875L86.4531 16.4141C86.5938 15.8151 86.7083 15.3281 86.7969 14.9531C86.8854 14.5729 87.6172 11.9193 88.9922 6.99219H90.5469L87.3047 18ZM92.0859 18V6.99219H93.5781V18H92.0859ZM105.852 12.3828C105.852 13.5182 105.63 14.513 105.188 15.3672C104.745 16.2161 104.117 16.8672 103.305 17.3203C102.492 17.7734 101.555 18 100.492 18H96.375V6.99219H100.016C101.88 6.99219 103.318 7.46094 104.328 8.39844C105.344 9.33073 105.852 10.6589 105.852 12.3828ZM104.352 12.3828C104.352 11.0182 103.977 9.97917 103.227 9.26562C102.482 8.54688 101.401 8.1875 99.9844 8.1875H97.8672V16.8047H100.32C101.128 16.8047 101.836 16.6276 102.445 16.2734C103.06 15.9193 103.531 15.4089 103.859 14.7422C104.188 14.0755 104.352 13.2891 104.352 12.3828ZM112.25 8.21094V18H110.766V8.21094H106.984V6.99219H116.031V8.21094H112.25ZM125.164 18V12.8984H119.211V18H117.719V6.99219H119.211V11.6484H125.164V6.99219H126.656V18H125.164Z" fill="#484848"/>
<path d="M17.7874 12C17.7874 12.2277 17.5999 12.4286 17.3588 12.4286H14.3588V17.1429C14.3588 17.3705 14.1579 17.5714 13.9302 17.5714H11.3588C11.1311 17.5714 10.9302 17.3705 10.9302 17.1429V12.4286H7.93025C7.68917 12.4286 7.50167 12.2411 7.50167 12C7.50167 11.8795 7.55525 11.7723 7.6356 11.6786L12.3365 6.97768C12.4169 6.89732 12.5374 6.85714 12.6445 6.85714C12.7651 6.85714 12.8722 6.89732 12.9526 6.97768L17.6669 11.692C17.7472 11.7723 17.7874 11.8929 17.7874 12ZM26.3588 15.8571C26.3588 13.4732 24.7115 11.3973 22.3811 10.8482C22.7427 10.2991 22.9302 9.65625 22.9302 9C22.9302 7.11161 21.3901 5.57143 19.5017 5.57143C18.6847 5.57143 17.8945 5.86607 17.2785 6.40178C16.2204 3.83036 13.716 2.14286 10.9302 2.14286C7.14007 2.14286 4.0731 5.20982 4.0731 9C4.0731 9.1875 4.0865 9.375 4.09989 9.57589C1.99721 10.5536 0.644531 12.6696 0.644531 15C0.644531 18.308 3.3365 21 6.64453 21H21.216C24.0552 21 26.3588 18.6964 26.3588 15.8571Z" fill="#848484"/>
</g>
<defs>
<clipPath id="clip0_18361_44">
<rect width="128" height="26" fill="white"/>
</clipPath>
</defs>
</svg>
