<svg width="79" height="26" viewBox="0 0 79 26" fill="none" xmlns="http://www.w3.org/2000/svg">
<path d="M31.7969 18V6.99219H40.1484V8.21094H33.2891V11.7422H39.6797V12.9453H33.2891V16.7812H40.4688V18H31.7969ZM51.8281 18V10.6562C51.8281 9.84375 51.8516 9.0625 51.8984 8.3125C51.6432 9.24479 51.4141 9.97396 51.2109 10.5L48.3672 18H47.3203L44.4375 10.5L44 9.17188L43.7422 8.3125L43.7656 9.17969L43.7969 10.6562V18H42.4688V6.99219H44.4297L47.3594 14.625C47.4635 14.9323 47.5625 15.263 47.6562 15.6172C47.7552 15.9661 47.8203 16.2188 47.8516 16.375C47.8932 16.1667 47.9792 15.8516 48.1094 15.4297C48.2448 15.0026 48.3359 14.7344 48.3828 14.625L51.2578 6.99219H53.1719V18H51.8281ZM63.6016 18L62.3438 14.7812H57.3281L56.0625 18H54.5156L59.0078 6.99219H60.7031L65.125 18H63.6016ZM59.8359 8.11719L59.7656 8.33594C59.6354 8.76823 59.4427 9.32292 59.1875 10L57.7812 13.6172H61.8984L60.4844 9.98438C60.3385 9.625 60.1927 9.21875 60.0469 8.76562L59.8359 8.11719ZM66.6328 18V6.99219H68.125V18H66.6328ZM70.9219 18V6.99219H72.4141V16.7812H77.9766V18H70.9219Z" fill="#484848"/>
<path d="M25 9.9375C24.5982 10.3795 24.1429 10.7679 23.6607 11.1027C21.4241 12.6161 19.1741 14.1429 16.9911 15.7232C15.8661 16.5536 14.4732 17.5714 13.0134 17.5714H13H12.9866C11.5268 17.5714 10.1339 16.5536 9.00893 15.7232C6.82589 14.1295 4.57589 12.6161 2.35268 11.1027C1.85714 10.7679 1.40179 10.3795 1 9.9375V20.5714C1 21.75 1.96429 22.7143 3.14286 22.7143H22.8571C24.0357 22.7143 25 21.75 25 20.5714V9.9375ZM25 6C25 4.82143 24.0223 3.85714 22.8571 3.85714H3.14286C1.70982 3.85714 1 4.98214 1 6.29464C1 7.51339 2.35268 9.02678 3.30357 9.66964C5.37946 11.1161 7.48214 12.5625 9.55804 14.0223C10.4286 14.625 11.9018 15.8571 12.9866 15.8571H13H13.0134C14.0982 15.8571 15.5714 14.625 16.442 14.0223C18.5179 12.5625 20.6205 11.1161 22.7098 9.66964C23.8884 8.85268 25 7.5 25 6Z" fill="#848484"/>
</svg>
