<svg width="118" height="23" viewBox="0 0 118 23" fill="none" xmlns="http://www.w3.org/2000/svg">
<g clip-path="url(#clip0_18361_58)">
<path d="M37.9141 8.30469C37.9141 9.34635 37.5729 10.1745 36.8906 10.7891C36.2135 11.4036 35.2917 11.7109 34.125 11.7109H30.8906V16H29.3984V4.99219H34.0312C35.2656 4.99219 36.2214 5.28125 36.8984 5.85938C37.5755 6.4375 37.9141 7.2526 37.9141 8.30469ZM36.4141 8.32031C36.4141 6.89844 35.5599 6.1875 33.8516 6.1875H30.8906V10.5312H33.9141C35.5807 10.5312 36.4141 9.79427 36.4141 8.32031ZM47.8516 16L44.9922 11.4297H41.5625V16H40.0703V4.99219H45.25C46.4896 4.99219 47.4453 5.27083 48.1172 5.82812C48.7943 6.38021 49.1328 7.15104 49.1328 8.14062C49.1328 8.95833 48.8932 9.64583 48.4141 10.2031C47.9401 10.7604 47.2839 11.112 46.4453 11.2578L49.5703 16H47.8516ZM47.6328 8.15625C47.6328 7.51562 47.4141 7.02865 46.9766 6.69531C46.5443 6.35677 45.9193 6.1875 45.1016 6.1875H41.5625V10.25H45.1641C45.9505 10.25 46.5573 10.0677 46.9844 9.70312C47.4167 9.33333 47.6328 8.81771 47.6328 8.15625ZM62 10.4453C62 11.5964 61.7786 12.6042 61.3359 13.4688C60.8984 14.3333 60.2682 14.9974 59.4453 15.4609C58.6224 15.9245 57.651 16.1562 56.5312 16.1562C55.401 16.1562 54.4245 15.9271 53.6016 15.4688C52.7839 15.0104 52.1589 14.349 51.7266 13.4844C51.2943 12.6146 51.0781 11.6016 51.0781 10.4453C51.0781 8.6849 51.5599 7.3099 52.5234 6.32031C53.487 5.32552 54.8281 4.82812 56.5469 4.82812C57.6667 4.82812 58.638 5.05208 59.4609 5.5C60.2839 5.94271 60.9115 6.58854 61.3438 7.4375C61.7812 8.28646 62 9.28906 62 10.4453ZM60.4766 10.4453C60.4766 9.07552 60.1328 8 59.4453 7.21875C58.763 6.4375 57.7969 6.04688 56.5469 6.04688C55.2865 6.04688 54.3125 6.43229 53.625 7.20312C52.9375 7.97396 52.5938 9.05469 52.5938 10.4453C52.5938 11.8255 52.9401 12.9219 53.6328 13.7344C54.3307 14.5417 55.2969 14.9453 56.5312 14.9453C57.8021 14.9453 58.776 14.5547 59.4531 13.7734C60.1354 12.987 60.4766 11.8776 60.4766 10.4453ZM73.5625 10.3828C73.5625 11.5182 73.3411 12.513 72.8984 13.3672C72.4557 14.2161 71.8281 14.8672 71.0156 15.3203C70.2031 15.7734 69.2656 16 68.2031 16H64.0859V4.99219H67.7266C69.5911 4.99219 71.0286 5.46094 72.0391 6.39844C73.0547 7.33073 73.5625 8.65885 73.5625 10.3828ZM72.0625 10.3828C72.0625 9.01823 71.6875 7.97917 70.9375 7.26562C70.1927 6.54688 69.112 6.1875 67.6953 6.1875H65.5781V14.8047H68.0312C68.8385 14.8047 69.5469 14.6276 70.1562 14.2734C70.7708 13.9193 71.2422 13.4089 71.5703 12.7422C71.8984 12.0755 72.0625 11.2891 72.0625 10.3828ZM80.0469 16.1562C79.1458 16.1562 78.3594 15.9922 77.6875 15.6641C77.0156 15.3359 76.4948 14.8594 76.125 14.2344C75.7552 13.6094 75.5703 12.8646 75.5703 12V4.99219H77.0625V11.875C77.0625 12.8802 77.3177 13.6432 77.8281 14.1641C78.3385 14.6849 79.0755 14.9453 80.0391 14.9453C81.0286 14.9453 81.7969 14.6771 82.3438 14.1406C82.8958 13.599 83.1719 12.8099 83.1719 11.7734V4.99219H84.6562V11.8594C84.6562 12.75 84.4661 13.5182 84.0859 14.1641C83.7109 14.8099 83.1771 15.3047 82.4844 15.6484C81.7969 15.987 80.9844 16.1562 80.0469 16.1562ZM92.0859 6.04688C90.8672 6.04688 89.9193 6.4401 89.2422 7.22656C88.5651 8.00781 88.2266 9.08073 88.2266 10.4453C88.2266 11.7943 88.5781 12.8802 89.2812 13.7031C89.9896 14.5208 90.9453 14.9297 92.1484 14.9297C93.6901 14.9297 94.849 14.1667 95.625 12.6406L96.8438 13.25C96.3906 14.1979 95.7526 14.9193 94.9297 15.4141C94.112 15.9089 93.1615 16.1562 92.0781 16.1562C90.9688 16.1562 90.0078 15.9271 89.1953 15.4688C88.388 15.0052 87.7708 14.3464 87.3438 13.4922C86.9219 12.6328 86.7109 11.6172 86.7109 10.4453C86.7109 8.6901 87.1849 7.3151 88.1328 6.32031C89.0807 5.32552 90.3932 4.82812 92.0703 4.82812C93.2422 4.82812 94.2214 5.05729 95.0078 5.51562C95.7943 5.97396 96.3724 6.65365 96.7422 7.55469L95.3281 8.02344C95.0729 7.38281 94.6615 6.89323 94.0938 6.55469C93.5312 6.21615 92.862 6.04688 92.0859 6.04688ZM103.086 6.21094V16H101.602V6.21094H97.8203V4.99219H106.867V6.21094H103.086ZM117.18 12.9609C117.18 13.9766 116.781 14.763 115.984 15.3203C115.193 15.8776 114.076 16.1562 112.633 16.1562C109.951 16.1562 108.396 15.224 107.969 13.3594L109.414 13.0703C109.581 13.7318 109.935 14.2188 110.477 14.5312C111.018 14.8385 111.755 14.9922 112.688 14.9922C113.651 14.9922 114.393 14.8281 114.914 14.5C115.44 14.1667 115.703 13.6797 115.703 13.0391C115.703 12.6797 115.62 12.388 115.453 12.1641C115.292 11.9401 115.062 11.7552 114.766 11.6094C114.469 11.4635 114.115 11.3411 113.703 11.2422C113.292 11.1432 112.836 11.0365 112.336 10.9219C111.466 10.7292 110.805 10.5365 110.352 10.3438C109.904 10.151 109.549 9.9375 109.289 9.70312C109.029 9.46354 108.828 9.1849 108.688 8.86719C108.552 8.54948 108.484 8.1849 108.484 7.77344C108.484 6.83073 108.844 6.10417 109.562 5.59375C110.286 5.08333 111.32 4.82812 112.664 4.82812C113.914 4.82812 114.87 5.02083 115.531 5.40625C116.193 5.78646 116.656 6.4375 116.922 7.35938L115.453 7.61719C115.292 7.03385 114.984 6.61198 114.531 6.35156C114.078 6.08594 113.451 5.95312 112.648 5.95312C111.768 5.95312 111.096 6.09896 110.633 6.39062C110.169 6.68229 109.938 7.11719 109.938 7.69531C109.938 8.03385 110.026 8.3151 110.203 8.53906C110.385 8.75781 110.646 8.94531 110.984 9.10156C111.323 9.2526 111.997 9.4401 113.008 9.66406C113.346 9.74219 113.682 9.82292 114.016 9.90625C114.354 9.98438 114.677 10.0807 114.984 10.1953C115.292 10.3047 115.578 10.4349 115.844 10.5859C116.115 10.737 116.349 10.9219 116.547 11.1406C116.745 11.3594 116.898 11.6172 117.008 11.9141C117.122 12.2109 117.18 12.5599 117.18 12.9609Z" fill="#484848"/>
<path d="M12 20.2455V10.1741L20.5714 7.05357V15.5714L12 20.2455ZM11.1429 8.66071L1.79464 5.25893L11.1429 1.85714L20.4911 5.25893L11.1429 8.66071ZM22.2857 5.28571C22.2857 4.5625 21.8304 3.91964 21.1607 3.67857L11.7321 0.249999C11.5446 0.183035 11.3438 0.142856 11.1429 0.142856C10.942 0.142856 10.7411 0.183035 10.5536 0.249999L1.125 3.67857C0.455357 3.91964 0 4.5625 0 5.28571V15.5714C0 16.2009 0.348214 16.7768 0.897321 17.0714L10.3259 22.2143C10.5804 22.3616 10.8616 22.4286 11.1429 22.4286C11.4241 22.4286 11.7054 22.3616 11.9598 22.2143L21.3884 17.0714C21.9375 16.7768 22.2857 16.2009 22.2857 15.5714V5.28571Z" fill="#848484"/>
</g>
<defs>
<clipPath id="clip0_18361_58">
<rect width="118" height="23" fill="white"/>
</clipPath>
</defs>
</svg>
