<svg width="112" height="26" viewBox="0 0 112 26" fill="none" xmlns="http://www.w3.org/2000/svg">
<g clip-path="url(#clip0_18361_48)">
<path d="M36.9531 12.9609C36.9531 13.9766 36.5547 14.763 35.7578 15.3203C34.9661 15.8776 33.849 16.1562 32.4062 16.1562C29.724 16.1562 28.1693 15.224 27.7422 13.3594L29.1875 13.0703C29.3542 13.7318 29.7083 14.2188 30.25 14.5312C30.7917 14.8385 31.5286 14.9922 32.4609 14.9922C33.4245 14.9922 34.1667 14.8281 34.6875 14.5C35.2135 14.1667 35.4766 13.6797 35.4766 13.0391C35.4766 12.6797 35.3932 12.388 35.2266 12.1641C35.0651 11.9401 34.8359 11.7552 34.5391 11.6094C34.2422 11.4635 33.888 11.3411 33.4766 11.2422C33.0651 11.1432 32.6094 11.0365 32.1094 10.9219C31.2396 10.7292 30.5781 10.5365 30.125 10.3438C29.6771 10.151 29.3229 9.9375 29.0625 9.70312C28.8021 9.46354 28.6016 9.1849 28.4609 8.86719C28.3255 8.54948 28.2578 8.1849 28.2578 7.77344C28.2578 6.83073 28.6172 6.10417 29.3359 5.59375C30.0599 5.08333 31.0938 4.82812 32.4375 4.82812C33.6875 4.82812 34.6432 5.02083 35.3047 5.40625C35.9661 5.78646 36.4297 6.4375 36.6953 7.35938L35.2266 7.61719C35.0651 7.03385 34.7578 6.61198 34.3047 6.35156C33.8516 6.08594 33.224 5.95312 32.4219 5.95312C31.5417 5.95312 30.8698 6.09896 30.4062 6.39062C29.9427 6.68229 29.7109 7.11719 29.7109 7.69531C29.7109 8.03385 29.7995 8.3151 29.9766 8.53906C30.1589 8.75781 30.4193 8.94531 30.7578 9.10156C31.0964 9.2526 31.7708 9.4401 32.7812 9.66406C33.1198 9.74219 33.4557 9.82292 33.7891 9.90625C34.1276 9.98438 34.4505 10.0807 34.7578 10.1953C35.0651 10.3047 35.3516 10.4349 35.6172 10.5859C35.888 10.737 36.1224 10.9219 36.3203 11.1406C36.5182 11.3594 36.6719 11.6172 36.7812 11.9141C36.8958 12.2109 36.9531 12.5599 36.9531 12.9609ZM43.3125 6.21094V16H41.8281V6.21094H38.0469V4.99219H47.0938V6.21094H43.3125ZM58.8516 10.4453C58.8516 11.5964 58.6302 12.6042 58.1875 13.4688C57.75 14.3333 57.1198 14.9974 56.2969 15.4609C55.474 15.9245 54.5026 16.1562 53.3828 16.1562C52.2526 16.1562 51.276 15.9271 50.4531 15.4688C49.6354 15.0104 49.0104 14.349 48.5781 13.4844C48.1458 12.6146 47.9297 11.6016 47.9297 10.4453C47.9297 8.6849 48.4115 7.3099 49.375 6.32031C50.3385 5.32552 51.6797 4.82812 53.3984 4.82812C54.5182 4.82812 55.4896 5.05208 56.3125 5.5C57.1354 5.94271 57.763 6.58854 58.1953 7.4375C58.6328 8.28646 58.8516 9.28906 58.8516 10.4453ZM57.3281 10.4453C57.3281 9.07552 56.9844 8 56.2969 7.21875C55.6146 6.4375 54.6484 6.04688 53.3984 6.04688C52.138 6.04688 51.1641 6.43229 50.4766 7.20312C49.7891 7.97396 49.4453 9.05469 49.4453 10.4453C49.4453 11.8255 49.7917 12.9219 50.4844 13.7344C51.1823 14.5417 52.1484 14.9453 53.3828 14.9453C54.6536 14.9453 55.6276 14.5547 56.3047 13.7734C56.987 12.987 57.3281 11.8776 57.3281 10.4453ZM68.7188 16L65.8594 11.4297H62.4297V16H60.9375V4.99219H66.1172C67.3568 4.99219 68.3125 5.27083 68.9844 5.82812C69.6615 6.38021 70 7.15104 70 8.14062C70 8.95833 69.7604 9.64583 69.2812 10.2031C68.8073 10.7604 68.151 11.112 67.3125 11.2578L70.4375 16H68.7188ZM68.5 8.15625C68.5 7.51562 68.2812 7.02865 67.8438 6.69531C67.4115 6.35677 66.7865 6.1875 65.9688 6.1875H62.4297V10.25H66.0312C66.8177 10.25 67.4245 10.0677 67.8516 9.70312C68.2839 9.33333 68.5 8.81771 68.5 8.15625ZM80.3047 16L79.0469 12.7812H74.0312L72.7656 16H71.2188L75.7109 4.99219H77.4062L81.8281 16H80.3047ZM76.5391 6.11719L76.4688 6.33594C76.3385 6.76823 76.1458 7.32292 75.8906 8L74.4844 11.6172H78.6016L77.1875 7.98438C77.0417 7.625 76.8958 7.21875 76.75 6.76562L76.5391 6.11719ZM82.6641 10.4453C82.6641 8.65885 83.1432 7.27604 84.1016 6.29688C85.0599 5.31771 86.4062 4.82812 88.1406 4.82812C89.3594 4.82812 90.349 5.03385 91.1094 5.44531C91.8698 5.85677 92.4557 6.51562 92.8672 7.42188L91.4453 7.84375C91.1328 7.21875 90.7005 6.76302 90.1484 6.47656C89.6016 6.1901 88.9193 6.04688 88.1016 6.04688C86.8307 6.04688 85.8594 6.43229 85.1875 7.20312C84.5156 7.96875 84.1797 9.04948 84.1797 10.4453C84.1797 11.8359 84.5365 12.9349 85.25 13.7422C85.9635 14.5443 86.9505 14.9453 88.2109 14.9453C88.9297 14.9453 89.599 14.8359 90.2188 14.6172C90.8438 14.3984 91.349 14.1016 91.7344 13.7266V11.7422H88.4453V10.4922H93.1094V14.2891C92.526 14.8828 91.8099 15.3438 90.9609 15.6719C90.1172 15.9948 89.2005 16.1562 88.2109 16.1562C87.0599 16.1562 86.0677 15.9271 85.2344 15.4688C84.401 15.0104 83.763 14.3516 83.3203 13.4922C82.8828 12.6276 82.6641 11.612 82.6641 10.4453ZM95.625 16V4.99219H103.977V6.21094H97.1172V9.74219H103.508V10.9453H97.1172V14.7812H104.297V16H95.625Z" fill="#484848"/>
<path d="M14.5714 9.57143C14.5714 10.0402 14.183 10.4286 13.7143 10.4286H10.2857C9.81696 10.4286 9.42857 10.0402 9.42857 9.57143C9.42857 9.10268 9.81696 8.71428 10.2857 8.71428H13.7143C14.183 8.71428 14.5714 9.10268 14.5714 9.57143ZM22.2857 7C22.2857 6.53125 21.8973 6.14286 21.4286 6.14286H2.57143C2.10268 6.14286 1.71429 6.53125 1.71429 7V19.8571C1.71429 20.3259 2.10268 20.7143 2.57143 20.7143H21.4286C21.8973 20.7143 22.2857 20.3259 22.2857 19.8571V7ZM23.1429 0.999999C23.1429 0.531249 22.7545 0.142856 22.2857 0.142856H1.71429C1.24554 0.142856 0.857143 0.531249 0.857143 0.999999V4.42857C0.857143 4.89732 1.24554 5.28571 1.71429 5.28571H22.2857C22.7545 5.28571 23.1429 4.89732 23.1429 4.42857V0.999999Z" fill="#848484"/>
</g>
<defs>
<clipPath id="clip0_18361_48">
<rect width="112" height="26" fill="white"/>
</clipPath>
</defs>
</svg>
