<svg width="104" height="26" viewBox="0 0 104 26" fill="none" xmlns="http://www.w3.org/2000/svg">
<g clip-path="url(#clip0_18361_62)">
<path d="M39.8984 15.9609C39.8984 16.9766 39.5 17.763 38.7031 18.3203C37.9115 18.8776 36.7943 19.1562 35.3516 19.1562C32.6693 19.1562 31.1146 18.224 30.6875 16.3594L32.1328 16.0703C32.2995 16.7318 32.6536 17.2188 33.1953 17.5312C33.737 17.8385 34.474 17.9922 35.4062 17.9922C36.3698 17.9922 37.112 17.8281 37.6328 17.5C38.1589 17.1667 38.4219 16.6797 38.4219 16.0391C38.4219 15.6797 38.3385 15.388 38.1719 15.1641C38.0104 14.9401 37.7812 14.7552 37.4844 14.6094C37.1875 14.4635 36.8333 14.3411 36.4219 14.2422C36.0104 14.1432 35.5547 14.0365 35.0547 13.9219C34.1849 13.7292 33.5234 13.5365 33.0703 13.3438C32.6224 13.151 32.2682 12.9375 32.0078 12.7031C31.7474 12.4635 31.5469 12.1849 31.4062 11.8672C31.2708 11.5495 31.2031 11.1849 31.2031 10.7734C31.2031 9.83073 31.5625 9.10417 32.2812 8.59375C33.0052 8.08333 34.0391 7.82812 35.3828 7.82812C36.6328 7.82812 37.5885 8.02083 38.25 8.40625C38.9115 8.78646 39.375 9.4375 39.6406 10.3594L38.1719 10.6172C38.0104 10.0339 37.7031 9.61198 37.25 9.35156C36.7969 9.08594 36.1693 8.95312 35.3672 8.95312C34.487 8.95312 33.8151 9.09896 33.3516 9.39062C32.888 9.68229 32.6562 10.1172 32.6562 10.6953C32.6562 11.0339 32.7448 11.3151 32.9219 11.5391C33.1042 11.7578 33.3646 11.9453 33.7031 12.1016C34.0417 12.2526 34.7161 12.4401 35.7266 12.6641C36.0651 12.7422 36.401 12.8229 36.7344 12.9062C37.0729 12.9844 37.3958 13.0807 37.7031 13.1953C38.0104 13.3047 38.2969 13.4349 38.5625 13.5859C38.8333 13.737 39.0677 13.9219 39.2656 14.1406C39.4635 14.3594 39.6172 14.6172 39.7266 14.9141C39.8411 15.2109 39.8984 15.5599 39.8984 15.9609ZM46.3438 19.1562C45.4427 19.1562 44.6562 18.9922 43.9844 18.6641C43.3125 18.3359 42.7917 17.8594 42.4219 17.2344C42.0521 16.6094 41.8672 15.8646 41.8672 15V7.99219H43.3594V14.875C43.3594 15.8802 43.6146 16.6432 44.125 17.1641C44.6354 17.6849 45.3724 17.9453 46.3359 17.9453C47.3255 17.9453 48.0938 17.6771 48.6406 17.1406C49.1927 16.599 49.4688 15.8099 49.4688 14.7734V7.99219H50.9531V14.8594C50.9531 15.75 50.763 16.5182 50.3828 17.1641C50.0078 17.8099 49.474 18.3047 48.7812 18.6484C48.0938 18.987 47.2812 19.1562 46.3438 19.1562ZM62.0234 11.3047C62.0234 12.3464 61.6823 13.1745 61 13.7891C60.3229 14.4036 59.401 14.7109 58.2344 14.7109H55V19H53.5078V7.99219H58.1406C59.375 7.99219 60.3307 8.28125 61.0078 8.85938C61.6849 9.4375 62.0234 10.2526 62.0234 11.3047ZM60.5234 11.3203C60.5234 9.89844 59.6693 9.1875 57.9609 9.1875H55V13.5312H58.0234C59.6901 13.5312 60.5234 12.7943 60.5234 11.3203ZM72.6953 11.3047C72.6953 12.3464 72.3542 13.1745 71.6719 13.7891C70.9948 14.4036 70.0729 14.7109 68.9062 14.7109H65.6719V19H64.1797V7.99219H68.8125C70.0469 7.99219 71.0026 8.28125 71.6797 8.85938C72.3568 9.4375 72.6953 10.2526 72.6953 11.3047ZM71.1953 11.3203C71.1953 9.89844 70.3411 9.1875 68.6328 9.1875H65.6719V13.5312H68.6953C70.362 13.5312 71.1953 12.7943 71.1953 11.3203ZM85.2188 13.4453C85.2188 14.5964 84.9974 15.6042 84.5547 16.4688C84.1172 17.3333 83.487 17.9974 82.6641 18.4609C81.8411 18.9245 80.8698 19.1562 79.75 19.1562C78.6198 19.1562 77.6432 18.9271 76.8203 18.4688C76.0026 18.0104 75.3776 17.349 74.9453 16.4844C74.513 15.6146 74.2969 14.6016 74.2969 13.4453C74.2969 11.6849 74.7786 10.3099 75.7422 9.32031C76.7057 8.32552 78.0469 7.82812 79.7656 7.82812C80.8854 7.82812 81.8568 8.05208 82.6797 8.5C83.5026 8.94271 84.1302 9.58854 84.5625 10.4375C85 11.2865 85.2188 12.2891 85.2188 13.4453ZM83.6953 13.4453C83.6953 12.0755 83.3516 11 82.6641 10.2188C81.9818 9.4375 81.0156 9.04688 79.7656 9.04688C78.5052 9.04688 77.5312 9.43229 76.8438 10.2031C76.1562 10.974 75.8125 12.0547 75.8125 13.4453C75.8125 14.8255 76.1589 15.9219 76.8516 16.7344C77.5495 17.5417 78.5156 17.9453 79.75 17.9453C81.0208 17.9453 81.9948 17.5547 82.6719 16.7734C83.3542 15.987 83.6953 14.8776 83.6953 13.4453ZM95.0859 19L92.2266 14.4297H88.7969V19H87.3047V7.99219H92.4844C93.724 7.99219 94.6797 8.27083 95.3516 8.82812C96.0286 9.38021 96.3672 10.151 96.3672 11.1406C96.3672 11.9583 96.1276 12.6458 95.6484 13.2031C95.1745 13.7604 94.5182 14.112 93.6797 14.2578L96.8047 19H95.0859ZM94.8672 11.1562C94.8672 10.5156 94.6484 10.0286 94.2109 9.69531C93.7786 9.35677 93.1536 9.1875 92.3359 9.1875H88.7969V13.25H92.3984C93.1849 13.25 93.7917 13.0677 94.2188 12.7031C94.651 12.3333 94.8672 11.8177 94.8672 11.1562ZM102.883 9.21094V19H101.398V9.21094H97.6172V7.99219H106.664V9.21094H102.883Z" fill="#484848"/>
<path d="M12.5 1.42857C5.87054 1.42857 0.5 6.79911 0.5 13.4286C0.5 20.058 5.87054 25.4286 12.5 25.4286C19.1295 25.4286 24.5 20.058 24.5 13.4286C24.5 6.79911 19.1295 1.42857 12.5 1.42857ZM12.5 3.14286C14.2411 3.14286 15.8884 3.58482 17.3348 4.34821L14.7366 6.94643C14.0268 6.70536 13.2902 6.57143 12.5 6.57143C11.7232 6.57143 10.9732 6.70536 10.2634 6.94643L7.66518 4.34821C9.11161 3.58482 10.7589 3.14286 12.5 3.14286ZM3.41964 18.2634C2.65625 16.817 2.21429 15.1696 2.21429 13.4286C2.21429 11.6875 2.65625 10.0402 3.41964 8.59375L6.01786 11.192C5.77679 11.9018 5.64286 12.6384 5.64286 13.4286C5.64286 14.2054 5.77679 14.9554 6.01786 15.6652L3.41964 18.2634ZM12.5 23.7143C10.7589 23.7143 9.11161 23.2723 7.66518 22.5089L10.2634 19.9107C10.9732 20.1518 11.7232 20.2857 12.5 20.2857C13.2902 20.2857 14.0268 20.1518 14.7366 19.9107L17.3348 22.5089C15.8884 23.2723 14.2411 23.7143 12.5 23.7143ZM12.5 18.5714C9.66071 18.5714 7.35714 16.2679 7.35714 13.4286C7.35714 10.5893 9.66071 8.28571 12.5 8.28571C15.3393 8.28571 17.6429 10.5893 17.6429 13.4286C17.6429 16.2679 15.3393 18.5714 12.5 18.5714ZM18.9821 15.6652C19.2232 14.9554 19.3571 14.2054 19.3571 13.4286C19.3571 12.6518 19.2232 11.9018 18.9821 11.192L21.5804 8.59375C22.3438 10.0402 22.7857 11.6875 22.7857 13.4286C22.7857 15.1696 22.3438 16.817 21.5804 18.2634L18.9821 15.6652Z" fill="#848484"/>
</g>
<defs>
<clipPath id="clip0_18361_62">
<rect width="104" height="26" fill="white"/>
</clipPath>
</defs>
</svg>
