<svg width="88" height="27" viewBox="0 0 88 27" fill="none" xmlns="http://www.w3.org/2000/svg">
<g clip-path="url(#clip0_18361_72)">
<path d="M38.1406 20.1562C37.2396 20.1562 36.4531 19.9922 35.7812 19.6641C35.1094 19.3359 34.5885 18.8594 34.2188 18.2344C33.849 17.6094 33.6641 16.8646 33.6641 16V8.99219H35.1562V15.875C35.1562 16.8802 35.4115 17.6432 35.9219 18.1641C36.4323 18.6849 37.1693 18.9453 38.1328 18.9453C39.1224 18.9453 39.8906 18.6771 40.4375 18.1406C40.9896 17.599 41.2656 16.8099 41.2656 15.7734V8.99219H42.75V15.8594C42.75 16.75 42.5599 17.5182 42.1797 18.1641C41.8047 18.8099 41.2708 19.3047 40.5781 19.6484C39.8906 19.987 39.0781 20.1562 38.1406 20.1562ZM53.9297 16.9609C53.9297 17.9766 53.5312 18.763 52.7344 19.3203C51.9427 19.8776 50.8255 20.1562 49.3828 20.1562C46.7005 20.1562 45.1458 19.224 44.7188 17.3594L46.1641 17.0703C46.3307 17.7318 46.6849 18.2188 47.2266 18.5312C47.7682 18.8385 48.5052 18.9922 49.4375 18.9922C50.401 18.9922 51.1432 18.8281 51.6641 18.5C52.1901 18.1667 52.4531 17.6797 52.4531 17.0391C52.4531 16.6797 52.3698 16.388 52.2031 16.1641C52.0417 15.9401 51.8125 15.7552 51.5156 15.6094C51.2188 15.4635 50.8646 15.3411 50.4531 15.2422C50.0417 15.1432 49.5859 15.0365 49.0859 14.9219C48.2161 14.7292 47.5547 14.5365 47.1016 14.3438C46.6536 14.151 46.2995 13.9375 46.0391 13.7031C45.7786 13.4635 45.5781 13.1849 45.4375 12.8672C45.3021 12.5495 45.2344 12.1849 45.2344 11.7734C45.2344 10.8307 45.5938 10.1042 46.3125 9.59375C47.0365 9.08333 48.0703 8.82812 49.4141 8.82812C50.6641 8.82812 51.6198 9.02083 52.2812 9.40625C52.9427 9.78646 53.4062 10.4375 53.6719 11.3594L52.2031 11.6172C52.0417 11.0339 51.7344 10.612 51.2812 10.3516C50.8281 10.0859 50.2005 9.95312 49.3984 9.95312C48.5182 9.95312 47.8464 10.099 47.3828 10.3906C46.9193 10.6823 46.6875 11.1172 46.6875 11.6953C46.6875 12.0339 46.776 12.3151 46.9531 12.5391C47.1354 12.7578 47.3958 12.9453 47.7344 13.1016C48.0729 13.2526 48.7474 13.4401 49.7578 13.6641C50.0964 13.7422 50.4323 13.8229 50.7656 13.9062C51.1042 13.9844 51.4271 14.0807 51.7344 14.1953C52.0417 14.3047 52.3281 14.4349 52.5938 14.5859C52.8646 14.737 53.099 14.9219 53.2969 15.1406C53.4948 15.3594 53.6484 15.6172 53.7578 15.9141C53.8724 16.2109 53.9297 16.5599 53.9297 16.9609ZM55.9766 20V8.99219H64.3281V10.2109H57.4688V13.7422H63.8594V14.9453H57.4688V18.7812H64.6484V20H55.9766ZM74.4297 20L71.5703 15.4297H68.1406V20H66.6484V8.99219H71.8281C73.0677 8.99219 74.0234 9.27083 74.6953 9.82812C75.3724 10.3802 75.7109 11.151 75.7109 12.1406C75.7109 12.9583 75.4714 13.6458 74.9922 14.2031C74.5182 14.7604 73.862 15.112 73.0234 15.2578L76.1484 20H74.4297ZM74.2109 12.1562C74.2109 11.5156 73.9922 11.0286 73.5547 10.6953C73.1224 10.3568 72.4974 10.1875 71.6797 10.1875H68.1406V14.25H71.7422C72.5286 14.25 73.1354 14.0677 73.5625 13.7031C73.9948 13.3333 74.2109 12.8177 74.2109 12.1562ZM86.8359 16.9609C86.8359 17.9766 86.4375 18.763 85.6406 19.3203C84.849 19.8776 83.7318 20.1562 82.2891 20.1562C79.6068 20.1562 78.0521 19.224 77.625 17.3594L79.0703 17.0703C79.237 17.7318 79.5911 18.2188 80.1328 18.5312C80.6745 18.8385 81.4115 18.9922 82.3438 18.9922C83.3073 18.9922 84.0495 18.8281 84.5703 18.5C85.0964 18.1667 85.3594 17.6797 85.3594 17.0391C85.3594 16.6797 85.276 16.388 85.1094 16.1641C84.9479 15.9401 84.7188 15.7552 84.4219 15.6094C84.125 15.4635 83.7708 15.3411 83.3594 15.2422C82.9479 15.1432 82.4922 15.0365 81.9922 14.9219C81.1224 14.7292 80.4609 14.5365 80.0078 14.3438C79.5599 14.151 79.2057 13.9375 78.9453 13.7031C78.6849 13.4635 78.4844 13.1849 78.3438 12.8672C78.2083 12.5495 78.1406 12.1849 78.1406 11.7734C78.1406 10.8307 78.5 10.1042 79.2188 9.59375C79.9427 9.08333 80.9766 8.82812 82.3203 8.82812C83.5703 8.82812 84.526 9.02083 85.1875 9.40625C85.849 9.78646 86.3125 10.4375 86.5781 11.3594L85.1094 11.6172C84.9479 11.0339 84.6406 10.612 84.1875 10.3516C83.7344 10.0859 83.1068 9.95312 82.3047 9.95312C81.4245 9.95312 80.7526 10.099 80.2891 10.3906C79.8255 10.6823 79.5938 11.1172 79.5938 11.6953C79.5938 12.0339 79.6823 12.3151 79.8594 12.5391C80.0417 12.7578 80.3021 12.9453 80.6406 13.1016C80.9792 13.2526 81.6536 13.4401 82.6641 13.6641C83.0026 13.7422 83.3385 13.8229 83.6719 13.9062C84.0104 13.9844 84.3333 14.0807 84.6406 14.1953C84.9479 14.3047 85.2344 14.4349 85.5 14.5859C85.7708 14.737 86.0052 14.9219 86.2031 15.1406C86.401 15.3594 86.5547 15.6172 86.6641 15.9141C86.7786 16.2109 86.8359 16.5599 86.8359 16.9609Z" fill="#484848"/>
<path d="M8.0865 14.4286C7.39007 13.4241 7.00167 12.2187 7.00167 11C7.00167 10.7054 7.02846 10.4107 7.06864 10.1161C6.49275 10.317 5.90346 10.4241 5.28739 10.4241C3.47935 10.4241 2.0865 9.28571 1.80525 9.28571C0.104353 9.28571 0.144531 12.9286 0.144531 14.0134C0.144531 15.5 1.40346 16.1429 2.74275 16.1429H4.53739C5.43471 15.0714 6.69364 14.4687 8.0865 14.4286ZM22.4302 22.9598C22.4302 19.933 21.7204 15.2857 17.7963 15.2857C17.341 15.2857 15.6802 17.1473 13.0017 17.1473C10.3231 17.1473 8.66239 15.2857 8.20703 15.2857C4.28292 15.2857 3.5731 19.933 3.5731 22.9598C3.5731 25.1295 5.00614 26.4286 7.149 26.4286H18.8544C20.9972 26.4286 22.4302 25.1295 22.4302 22.9598ZM8.71596 5.85714C8.71596 3.96875 7.17578 2.42857 5.28739 2.42857C3.399 2.42857 1.85882 3.96875 1.85882 5.85714C1.85882 7.74553 3.399 9.28571 5.28739 9.28571C7.17578 9.28571 8.71596 7.74553 8.71596 5.85714ZM18.1445 11C18.1445 8.16071 15.841 5.85714 13.0017 5.85714C10.1624 5.85714 7.85882 8.16071 7.85882 11C7.85882 13.8393 10.1624 16.1429 13.0017 16.1429C15.841 16.1429 18.1445 13.8393 18.1445 11ZM25.8588 14.0134C25.8588 12.9286 25.899 9.28571 24.1981 9.28571C23.9169 9.28571 22.524 10.4241 20.716 10.4241C20.0999 10.4241 19.5106 10.317 18.9347 10.1161C18.9749 10.4107 19.0017 10.7054 19.0017 11C19.0017 12.2187 18.6133 13.4241 17.9169 14.4286C19.3097 14.4687 20.5686 15.0714 21.466 16.1429H23.2606C24.5999 16.1429 25.8588 15.5 25.8588 14.0134ZM24.1445 5.85714C24.1445 3.96875 22.6044 2.42857 20.716 2.42857C18.8276 2.42857 17.2874 3.96875 17.2874 5.85714C17.2874 7.74553 18.8276 9.28571 20.716 9.28571C22.6044 9.28571 24.1445 7.74553 24.1445 5.85714Z" fill="#848484"/>
</g>
<defs>
<clipPath id="clip0_18361_72">
<rect width="88" height="27" fill="white"/>
</clipPath>
</defs>
</svg>
