<svg width="404" height="553" fill="none" xmlns="http://www.w3.org/2000/svg"><path d="M95.144 95.601c25.968-25.967 69.679-29.447 119.517-13.857 49.814 15.583 105.606 50.183 155.548 100.124 49.942 49.942 84.541 105.735 100.124 155.548 15.591 49.839 12.111 93.549-13.857 119.517-25.967 25.967-69.678 29.447-119.517 13.857-49.813-15.583-105.606-50.183-155.547-100.124C131.47 320.724 96.87 264.931 81.288 215.118c-15.591-49.839-12.111-93.549 13.856-119.517Z" stroke="#737373"/><path d="M456.437 95.106c25.968 25.967 29.448 69.678 13.857 119.517-15.582 49.813-50.182 105.606-100.124 155.547-49.941 49.942-105.734 84.542-155.547 100.124-49.839 15.591-93.55 12.111-119.517-13.857-25.968-25.967-29.448-69.678-13.857-119.517 15.583-49.813 50.182-105.605 100.124-155.547 49.942-49.942 105.734-84.541 155.548-100.124 49.838-15.59 93.549-12.11 119.516 13.857Z" stroke="#737373"/></svg>