<svg width="61" height="18" viewBox="0 0 61 18" fill="none" xmlns="http://www.w3.org/2000/svg">
<path d="M14.2828 17.9575H12.538V14.8687H14.2828V15.2231H12.9559V16.1793H14.2313V16.5343H12.9559V17.5975H14.2828V17.9575ZM18.633 16.3793C18.633 16.5218 18.622 16.6637 18.5995 16.8043C18.5782 16.9341 18.5415 17.0609 18.4903 17.1825C18.4413 17.2972 18.3755 17.4043 18.2948 17.5006C18.2123 17.5981 18.1129 17.6808 18.001 17.745C17.8752 17.8164 17.7391 17.8693 17.5973 17.9018C17.4261 17.9408 17.2506 17.9595 17.0747 17.9575H16.4151V14.8687H17.2071C17.6867 14.8687 18.0441 14.9931 18.2794 15.2412C18.5147 15.49 18.633 15.8693 18.633 16.3793ZM18.1939 16.4093C18.1974 16.2226 18.1771 16.0362 18.1335 15.8543C18.1007 15.7199 18.037 15.5944 17.947 15.4875C17.8634 15.3946 17.7558 15.3251 17.6353 15.2862C17.4924 15.2417 17.343 15.2203 17.193 15.2231H16.8336V17.5925H17.1467C17.8448 17.5931 18.1945 17.1987 18.1939 16.4093ZM22.7794 16.8825C22.7815 17.0388 22.7574 17.1943 22.708 17.3431C22.6643 17.4743 22.5923 17.5943 22.4972 17.695C22.403 17.7937 22.2872 17.8706 22.1584 17.92C22.0113 17.9753 21.8545 18.0022 21.6968 17.9993C21.5315 18.0032 21.3668 17.9778 21.2108 17.9243C21.0859 17.8787 20.9742 17.8045 20.8849 17.7081C20.7993 17.6123 20.7367 17.4991 20.7017 17.3768C20.6616 17.2365 20.6421 17.0913 20.6438 16.9456V14.8687H21.0623V16.9125C21.061 17.0193 21.0726 17.1262 21.0964 17.2312C21.1157 17.315 21.1536 17.3937 21.2083 17.4606C21.2623 17.5231 21.331 17.5712 21.4095 17.5993C21.5059 17.6331 21.6088 17.6493 21.7116 17.6468C21.9334 17.6468 22.0973 17.5818 22.2034 17.4531C22.3082 17.3237 22.3622 17.1425 22.3622 16.9075V14.8687H22.78V16.8825H22.7794ZM26.9271 17.8412C26.6828 17.9443 26.4193 17.9962 26.1544 17.9956C25.7205 17.9956 25.3868 17.865 25.1528 17.6037C24.9188 17.3431 24.8025 16.9575 24.8044 16.4475C24.8013 16.2203 24.8338 15.9939 24.9008 15.7762C24.9569 15.5905 25.0502 15.4174 25.1753 15.2668C25.293 15.1287 25.4408 15.0181 25.6073 14.9437C25.7867 14.8662 25.9802 14.8281 26.1756 14.8306C26.3093 14.8293 26.4424 14.8425 26.5729 14.8681C26.695 14.8918 26.8127 14.9293 26.9258 14.9806V15.3931C26.7021 15.2659 26.447 15.2004 26.1878 15.2037C26.0524 15.2017 25.9183 15.2297 25.7957 15.2856C25.6787 15.3401 25.577 15.4214 25.4993 15.5225C25.4125 15.635 25.3489 15.7637 25.311 15.9C25.2646 16.0657 25.2424 16.237 25.2448 16.4087C25.2448 16.81 25.3258 17.1112 25.4871 17.3137C25.6478 17.5162 25.885 17.6175 26.1962 17.6181C26.3239 17.6187 26.4512 17.6032 26.5748 17.5718C26.695 17.5406 26.812 17.4975 26.9233 17.4425L26.9271 17.8412ZM31.44 17.9575H30.9835L30.7708 17.2837H29.4908L29.2729 17.9575H28.8377L29.8566 14.8687H30.43L31.4393 17.9575H31.44ZM30.6505 16.9087L30.1311 15.2562L29.6117 16.9081H30.6505V16.9087ZM35.1319 15.2281H34.2235V17.9575H33.8025V15.2281H32.8915V14.8687H35.1325V15.2281H35.1319ZM37.9058 15.2231H37.1987V14.8687H39.0353V15.2231H38.3282V17.5981H39.0353V17.9575H37.1987V17.5987H37.9058V15.2231ZM43.3296 16.395C43.3348 16.6387 43.302 16.8806 43.2325 17.1137C43.1779 17.295 43.0892 17.465 42.9709 17.6137C42.8676 17.7398 42.7347 17.8399 42.5833 17.9056C42.4276 17.9711 42.2595 18.0039 42.0899 18.002C41.9203 18 41.7531 17.9634 41.599 17.8943C41.4522 17.8225 41.3267 17.7154 41.2345 17.5831C41.1315 17.433 41.0586 17.2652 41.0198 17.0887C40.9701 16.8727 40.9464 16.6519 40.9491 16.4306C40.9447 16.1893 40.9772 15.9488 41.0455 15.7168C41.0995 15.5356 41.1883 15.3656 41.3072 15.2168C41.41 15.0906 41.5431 14.99 41.6929 14.9237C41.8408 14.86 41.9995 14.8275 42.1609 14.8281C42.3392 14.8241 42.5159 14.8614 42.6765 14.9368C42.8224 15.0093 42.9478 15.1162 43.0423 15.2481C43.1451 15.3968 43.2197 15.5637 43.2595 15.7406C43.309 15.955 43.3328 16.175 43.3303 16.395H43.3296ZM42.8944 16.4256C42.8954 16.2589 42.8817 16.0925 42.8533 15.9281C42.8305 15.7928 42.7856 15.662 42.7202 15.5406C42.6651 15.4382 42.5841 15.3511 42.4849 15.2875C42.38 15.2258 42.259 15.1948 42.1365 15.1981C42.0158 15.1947 41.8971 15.2281 41.797 15.2937C41.6995 15.3607 41.6195 15.4492 41.5637 15.5518C41.4981 15.6728 41.4522 15.8029 41.4274 15.9375C41.3972 16.0918 41.3824 16.2487 41.3837 16.4062C41.3837 16.5737 41.3978 16.7412 41.4274 16.9062C41.4512 17.0412 41.4962 17.1725 41.5605 17.2937C41.6158 17.3962 41.6961 17.4825 41.7945 17.5456C41.8979 17.6074 42.0177 17.6384 42.139 17.635C42.2605 17.6381 42.3799 17.6047 42.481 17.5393C42.5788 17.4731 42.6598 17.3843 42.717 17.2812C42.7819 17.1606 42.8282 17.0312 42.8539 16.8975C42.8839 16.7411 42.8979 16.5822 42.8957 16.4231L42.8944 16.4256ZM47.44 17.9575H46.8955L46 16.0312L45.7429 15.4125V17.9575H45.3508V14.8687H45.8888L46.7413 16.6925L47.0485 17.4V14.8687H47.4407L47.44 17.9575ZM19.1556 4.05435L20.4362 7.11497H17.8648L17.3736 8.27997H20.9852L22.4792 11.7794H24.0118L19.9097 2.26685L19.1556 4.05435ZM4.92212 0.662476H0.362976V11.7794H1.81712V1.82748H4.60712C7.35726 1.82748 8.73233 3.18998 8.73233 5.91622C8.73233 9.04747 7.35662 10.6125 4.60712 10.6125H2.99548V11.7781H4.92019C8.43019 11.7781 10.1852 9.82435 10.1852 5.91622C10.1852 2.41435 8.43019 0.663101 4.92083 0.662476H4.92212ZM28.1164 0.662476V11.7794H29.4703V2.90123L36.2415 11.7794H37.6725V11.2662L29.5474 0.662476H28.117H28.1164ZM36.3193 7.5781L37.6725 9.31747V0.662476H36.3186V7.5781H36.3193ZM47.3507 0.662476H45.975V11.7794H47.3507V0.662476ZM50.5135 0.662476V2.02185H54.6786V11.7794H56.0537V2.02185H60.2181V0.662476H50.5135Z" fill="#40404B"/>
</svg>
