<svg width="116" height="345" fill="none" xmlns="http://www.w3.org/2000/svg"><path d="M60.461 59.88c16.155-16.155 43.382-18.35 74.505-8.614 31.096 9.727 65.939 31.332 97.134 62.527 31.194 31.194 52.798 66.036 62.526 97.133 9.736 31.122 7.541 58.35-8.614 74.504-16.154 16.155-43.382 18.35-74.504 8.614-31.097-9.728-65.939-31.332-97.133-62.526-31.195-31.195-52.8-66.038-62.528-97.134-9.735-31.123-7.54-58.35 8.614-74.505Z" stroke="#737373"/><path d="M285.988 59.57c16.155 16.154 18.35 43.382 8.614 74.504-9.728 31.097-31.333 65.94-62.527 97.134-31.194 31.194-66.037 52.799-97.133 62.526-31.123 9.736-58.35 7.541-74.505-8.613-16.154-16.155-18.35-43.382-8.614-74.505 9.728-31.096 31.333-65.939 62.527-97.133 31.194-31.194 66.037-52.8 97.134-62.527 31.122-9.736 58.35-7.54 74.504 8.614Z" stroke="#737373"/></svg>