<svg width="122" height="48" viewBox="0 0 122 48" fill="none" xmlns="http://www.w3.org/2000/svg">
<path d="M65.2874 10C65.2874 10.2277 65.0999 10.4286 64.8588 10.4286H61.8588V15.1429C61.8588 15.3705 61.6579 15.5714 61.4302 15.5714H58.8588C58.6311 15.5714 58.4302 15.3705 58.4302 15.1429V10.4286H55.4302C55.1892 10.4286 55.0017 10.2411 55.0017 10C55.0017 9.87946 55.0552 9.77232 55.1356 9.67857L59.8365 4.97768C59.9169 4.89732 60.0374 4.85714 60.1445 4.85714C60.2651 4.85714 60.3722 4.89732 60.4526 4.97768L65.1669 9.69196C65.2472 9.77232 65.2874 9.89286 65.2874 10ZM73.8588 13.8571C73.8588 11.4732 72.2115 9.39732 69.8811 8.84821C70.2427 8.29911 70.4302 7.65625 70.4302 7C70.4302 5.11161 68.8901 3.57143 67.0017 3.57143C66.1847 3.57143 65.3945 3.86607 64.7785 4.40178C63.7204 1.83036 61.216 0.142856 58.4302 0.142856C54.6401 0.142856 51.5731 3.20982 51.5731 7C51.5731 7.1875 51.5865 7.375 51.5999 7.57589C49.4972 8.55357 48.1445 10.6696 48.1445 13C48.1445 16.308 50.8365 19 54.1445 19H68.716C71.5552 19 73.8588 16.6964 73.8588 13.8571Z" fill="#848484"/>
<path d="M12.8359 44.0742C12.8359 45.3242 12.3672 46.291 11.4297 46.9746C10.4922 47.6582 9.1901 48 7.52344 48H0.638672V34.2402H6.9375C8.61719 34.2402 9.88672 34.5332 10.7461 35.1191C11.612 35.6986 12.0449 36.5579 12.0449 37.6973C12.0449 38.4785 11.8268 39.1393 11.3906 39.6797C10.9609 40.2135 10.3034 40.5749 9.41797 40.7637C10.5312 40.8939 11.3776 41.2454 11.957 41.8184C12.543 42.3848 12.8359 43.1367 12.8359 44.0742ZM9.14453 38.0879C9.14453 37.4694 8.94596 37.0299 8.54883 36.7695C8.1582 36.5091 7.57552 36.3789 6.80078 36.3789H3.51953V39.7871H6.82031C7.63411 39.7871 8.22331 39.6471 8.58789 39.3672C8.95898 39.0807 9.14453 38.6543 9.14453 38.0879ZM9.94531 43.8496C9.94531 42.5605 9.02083 41.916 7.17188 41.916H3.51953V45.8613H7.2793C8.20378 45.8613 8.8776 45.6953 9.30078 45.3633C9.73047 45.0247 9.94531 44.5202 9.94531 43.8496ZM24.8184 48L23.5977 44.4844H18.3535L17.1328 48H14.252L19.2715 34.2402H22.6699L27.6699 48H24.8184ZM20.9707 36.3594L20.9121 36.5742C20.847 36.8086 20.7689 37.0755 20.6777 37.375C20.5866 37.6745 20.0267 39.3216 18.998 42.3164H22.9531L21.5957 38.3613L21.1758 37.0332L20.9707 36.3594ZM37.9238 48L31.9277 37.4043C32.0449 38.4329 32.1035 39.2598 32.1035 39.8848V48H29.5449V34.2402H32.8359L38.9199 44.9238C38.8027 43.9408 38.7441 43.0456 38.7441 42.2383V34.2402H41.3027V48H37.9238ZM56.2637 41.0176C56.2637 42.4368 55.9837 43.6771 55.4238 44.7383C54.8704 45.793 54.0827 46.6003 53.0605 47.1602C52.0449 47.7201 50.8796 48 49.5645 48H43.998V34.2402H48.9785C51.2962 34.2402 53.0898 34.8262 54.3594 35.998C55.6289 37.1634 56.2637 38.8366 56.2637 41.0176ZM53.3633 41.0176C53.3633 39.5397 52.9792 38.4134 52.2109 37.6387C51.4427 36.8574 50.3457 36.4668 48.9199 36.4668H46.8789V45.7734H49.3203C50.5573 45.7734 51.5404 45.347 52.2695 44.4941C52.9987 43.6413 53.3633 42.4824 53.3633 41.0176ZM72.416 48H68.998L67.1328 40.041C66.9049 39.1035 66.7129 38.1237 66.5566 37.1016C66.4004 37.9544 66.2734 38.6055 66.1758 39.0547C66.0781 39.4974 65.3848 42.4792 64.0957 48H60.6777L57.1328 34.2402H60.0527L62.0449 43.127L62.4941 45.2754C62.6764 44.3704 62.8522 43.5078 63.0215 42.6875C63.1973 41.8607 63.8483 39.0449 64.9746 34.2402H68.1973L69.9355 41.5645C70.0723 42.1113 70.3034 43.3483 70.6289 45.2754L70.873 44.1426L71.3906 41.8965L73.0508 34.2402H75.9707L72.416 48ZM77.3379 48V34.2402H80.2188V48H77.3379ZM95.1699 41.0176C95.1699 42.4368 94.89 43.6771 94.3301 44.7383C93.7767 45.793 92.9889 46.6003 91.9668 47.1602C90.9512 47.7201 89.7858 48 88.4707 48H82.9043V34.2402H87.8848C90.2025 34.2402 91.9961 34.8262 93.2656 35.998C94.5352 37.1634 95.1699 38.8366 95.1699 41.0176ZM92.2695 41.0176C92.2695 39.5397 91.8854 38.4134 91.1172 37.6387C90.349 36.8574 89.252 36.4668 87.8262 36.4668H85.7852V45.7734H88.2266C89.4635 45.7734 90.4466 45.347 91.1758 44.4941C91.9049 43.6413 92.2695 42.4824 92.2695 41.0176ZM103.568 36.4668V48H100.688V36.4668H96.2441V34.2402H108.021V36.4668H103.568ZM118.461 48V42.1016H112.465V48H109.584V34.2402H112.465V39.7188H118.461V34.2402H121.342V48H118.461Z" fill="#484848"/>
</svg>
