<svg width="61" height="47" viewBox="0 0 61 47" fill="none" xmlns="http://www.w3.org/2000/svg">
<path d="M42 6.9375C41.5982 7.37946 41.1429 7.76786 40.6607 8.10268C38.4241 9.61607 36.1741 11.1429 33.9911 12.7232C32.8661 13.5536 31.4732 14.5714 30.0134 14.5714H30H29.9866C28.5268 14.5714 27.1339 13.5536 26.0089 12.7232C23.8259 11.1295 21.5759 9.61607 19.3527 8.10268C18.8571 7.76786 18.4018 7.37946 18 6.9375V17.5714C18 18.75 18.9643 19.7143 20.1429 19.7143H39.8571C41.0357 19.7143 42 18.75 42 17.5714V6.9375ZM42 3C42 1.82143 41.0223 0.857142 39.8571 0.857142H20.1429C18.7098 0.857142 18 1.98214 18 3.29464C18 4.51339 19.3527 6.02678 20.3036 6.66964C22.3795 8.11607 24.4821 9.5625 26.558 11.0223C27.4286 11.625 28.9018 12.8571 29.9866 12.8571H30H30.0134C31.0982 12.8571 32.5714 11.625 33.442 11.0223C35.5179 9.5625 37.6205 8.11607 39.7098 6.66964C40.8884 5.85268 42 4.5 42 3Z" fill="#848484"/>
<path d="M0.214844 47V33.2402H11.0352V35.4668H3.0957V38.9238H10.4395V41.1504H3.0957V44.7734H11.4355V47H0.214844ZM24.9805 47V38.6602C24.9805 38.4714 24.9805 38.2826 24.9805 38.0938C24.987 37.9049 25.0195 37.0944 25.0781 35.6621C24.6159 37.4134 24.2741 38.6341 24.0527 39.3242L21.5723 47H19.5215L17.041 39.3242L15.9961 35.6621C16.0742 37.1725 16.1133 38.1719 16.1133 38.6602V47H13.5547V33.2402H17.4121L19.873 40.9355L20.0879 41.6777L20.5566 43.5234L21.1719 41.3164L23.7012 33.2402H27.5391V47H24.9805ZM39.9414 47L38.7207 43.4844H33.4766L32.2559 47H29.375L34.3945 33.2402H37.793L42.793 47H39.9414ZM36.0938 35.3594L36.0352 35.5742C35.9701 35.8086 35.8919 36.0755 35.8008 36.375C35.7096 36.6745 35.1497 38.3216 34.1211 41.3164H38.0762L36.7188 37.3613L36.2988 36.0332L36.0938 35.3594ZM44.668 47V33.2402H47.5488V47H44.668ZM50.2344 47V33.2402H53.1152V44.7734H60.498V47H50.2344Z" fill="#484848"/>
</svg>
