<svg width="111" height="49" viewBox="0 0 111 49" fill="none" xmlns="http://www.w3.org/2000/svg">
<path d="M55.5 20.2455V10.1741L64.0714 7.05357V15.5714L55.5 20.2455ZM54.6429 8.66071L45.2946 5.25893L54.6429 1.85714L63.9911 5.25893L54.6429 8.66071ZM65.7857 5.28571C65.7857 4.5625 65.3304 3.91964 64.6607 3.67857L55.2321 0.249999C55.0446 0.183035 54.8438 0.142856 54.6429 0.142856C54.442 0.142856 54.2411 0.183035 54.0536 0.249999L44.625 3.67857C43.9554 3.91964 43.5 4.5625 43.5 5.28571V15.5714C43.5 16.2009 43.8482 16.7768 44.3973 17.0714L53.8259 22.2143C54.0804 22.3616 54.3616 22.4286 54.6429 22.4286C54.9241 22.4286 55.2054 22.3616 55.4598 22.2143L64.8884 17.0714C65.4375 16.7768 65.7857 16.2009 65.7857 15.5714V5.28571Z" fill="#848484"/>
<path d="M12.0137 38.5957C12.0137 39.4811 11.8118 40.2721 11.4082 40.9688C11.0046 41.6654 10.4251 42.2057 9.66992 42.5898C8.92122 42.9674 8.0293 43.1562 6.99414 43.1562H3.57617V48H0.695312V34.2402H6.87695C8.52409 34.2402 9.79036 34.6211 10.6758 35.3828C11.5677 36.138 12.0137 37.209 12.0137 38.5957ZM9.11328 38.6445C9.11328 37.1992 8.26042 36.4766 6.55469 36.4766H3.57617V40.9395H6.63281C7.42708 40.9395 8.03906 40.7441 8.46875 40.3535C8.89844 39.9564 9.11328 39.3867 9.11328 38.6445ZM23.4883 48L20.2949 42.7754H16.916V48H14.0352V34.2402H20.9102C22.5508 34.2402 23.8171 34.5951 24.709 35.3047C25.6009 36.0078 26.0469 37.0202 26.0469 38.3418C26.0469 39.3053 25.7734 40.1387 25.2266 40.8418C24.6797 41.5384 23.9408 41.9974 23.0098 42.2188L26.7305 48H23.4883ZM23.1465 38.459C23.1465 37.1374 22.3001 36.4766 20.6074 36.4766H16.916V40.5391H20.6855C21.4928 40.5391 22.1048 40.3568 22.5215 39.9922C22.9382 39.6276 23.1465 39.1165 23.1465 38.459ZM41.8672 41.0566C41.8672 42.4889 41.584 43.7487 41.0176 44.8359C40.4512 45.9232 39.6406 46.7565 38.5859 47.3359C37.5312 47.9089 36.3008 48.1953 34.8945 48.1953C32.7331 48.1953 31.0371 47.5605 29.8066 46.291C28.5827 45.015 27.9707 43.2702 27.9707 41.0566C27.9707 38.8496 28.5827 37.1276 29.8066 35.8906C31.0306 34.6536 32.7331 34.0352 34.9141 34.0352C37.0951 34.0352 38.7975 34.6602 40.0215 35.9102C41.252 37.1602 41.8672 38.8757 41.8672 41.0566ZM38.9277 41.0566C38.9277 39.5723 38.5762 38.4102 37.873 37.5703C37.1699 36.724 36.1836 36.3008 34.9141 36.3008C33.625 36.3008 32.6289 36.7207 31.9258 37.5605C31.2227 38.3939 30.8711 39.5592 30.8711 41.0566C30.8711 42.5671 31.2292 43.7585 31.9453 44.6309C32.668 45.4967 33.651 45.9297 34.8945 45.9297C36.1836 45.9297 37.1764 45.5065 37.873 44.6602C38.5762 43.8138 38.9277 42.6126 38.9277 41.0566ZM56.3203 41.0176C56.3203 42.4368 56.0404 43.6771 55.4805 44.7383C54.9271 45.793 54.1393 46.6003 53.1172 47.1602C52.1016 47.7201 50.9362 48 49.6211 48H44.0547V34.2402H49.0352C51.3529 34.2402 53.1465 34.8262 54.416 35.998C55.6855 37.1634 56.3203 38.8366 56.3203 41.0176ZM53.4199 41.0176C53.4199 39.5397 53.0358 38.4134 52.2676 37.6387C51.4993 36.8574 50.4023 36.4668 48.9766 36.4668H46.9355V45.7734H49.377C50.6139 45.7734 51.597 45.347 52.3262 44.4941C53.0553 43.6413 53.4199 42.4824 53.4199 41.0176ZM64.2305 48.1953C62.3359 48.1953 60.8841 47.7331 59.875 46.8086C58.8724 45.8841 58.3711 44.5625 58.3711 42.8438V34.2402H61.252V42.6191C61.252 43.7064 61.5091 44.5332 62.0234 45.0996C62.5443 45.6595 63.306 45.9395 64.3086 45.9395C65.3372 45.9395 66.1283 45.6465 66.6816 45.0605C67.235 44.4681 67.5117 43.6217 67.5117 42.5215V34.2402H70.3926V42.6973C70.3926 44.4421 69.8522 45.7962 68.7715 46.7598C67.6973 47.7168 66.1836 48.1953 64.2305 48.1953ZM79.3867 45.9297C81.125 45.9297 82.3327 45.0573 83.0098 43.3125L85.5195 44.2598C84.9792 45.5879 84.1849 46.5775 83.1367 47.2285C82.0951 47.873 80.8451 48.1953 79.3867 48.1953C77.1732 48.1953 75.4609 47.5703 74.25 46.3203C73.0456 45.0638 72.4434 43.3092 72.4434 41.0566C72.4434 38.7975 73.026 37.0625 74.1914 35.8516C75.3568 34.6406 77.0462 34.0352 79.2598 34.0352C80.8743 34.0352 82.1895 34.3607 83.2051 35.0117C84.2207 35.6562 84.9336 36.6068 85.3438 37.8633L82.8047 38.5566C82.5898 37.8665 82.1667 37.3197 81.5352 36.916C80.9102 36.5059 80.1712 36.3008 79.3184 36.3008C78.0163 36.3008 77.0267 36.7044 76.3496 37.5117C75.679 38.319 75.3438 39.5007 75.3438 41.0566C75.3438 42.6387 75.6888 43.8464 76.3789 44.6797C77.0755 45.513 78.0781 45.9297 79.3867 45.9297ZM93.625 36.4668V48H90.7441V36.4668H86.3008V34.2402H98.0781V36.4668H93.625ZM110.861 44.0352C110.861 45.3828 110.36 46.4147 109.357 47.1309C108.361 47.8405 106.896 48.1953 104.963 48.1953C103.199 48.1953 101.815 47.8828 100.812 47.2578C99.8099 46.6328 99.1654 45.6855 98.8789 44.416L101.662 43.957C101.851 44.6862 102.219 45.2168 102.766 45.5488C103.312 45.8743 104.071 46.0371 105.041 46.0371C107.053 46.0371 108.059 45.4251 108.059 44.2012C108.059 43.8105 107.941 43.4883 107.707 43.2344C107.479 42.9805 107.154 42.7689 106.73 42.5996C106.314 42.4303 105.51 42.2253 104.318 41.9844C103.29 41.7435 102.574 41.5514 102.17 41.4082C101.766 41.2585 101.402 41.0859 101.076 40.8906C100.751 40.6888 100.474 40.4479 100.246 40.168C100.018 39.888 99.8392 39.5592 99.709 39.1816C99.5853 38.804 99.5234 38.3711 99.5234 37.8828C99.5234 36.6393 99.9889 35.6888 100.92 35.0312C101.857 34.3672 103.218 34.0352 105.002 34.0352C106.708 34.0352 107.987 34.3021 108.84 34.8359C109.699 35.3698 110.253 36.252 110.5 37.4824L107.707 37.8633C107.564 37.2708 107.271 36.8249 106.828 36.5254C106.392 36.2259 105.764 36.0762 104.943 36.0762C103.199 36.0762 102.326 36.623 102.326 37.7168C102.326 38.0749 102.417 38.3678 102.6 38.5957C102.788 38.8236 103.065 39.0189 103.43 39.1816C103.794 39.3379 104.533 39.5365 105.646 39.7773C106.968 40.0573 107.912 40.3177 108.479 40.5586C109.051 40.793 109.504 41.0697 109.836 41.3887C110.168 41.7012 110.422 42.0788 110.598 42.5215C110.773 42.9577 110.861 43.4622 110.861 44.0352Z" fill="#484848"/>
</svg>
