<svg width="98" height="49" viewBox="0 0 98 49" fill="none" xmlns="http://www.w3.org/2000/svg">
<path d="M52.0714 9.57143C52.0714 10.0402 51.683 10.4286 51.2143 10.4286H47.7857C47.317 10.4286 46.9286 10.0402 46.9286 9.57143C46.9286 9.10268 47.317 8.71428 47.7857 8.71428H51.2143C51.683 8.71428 52.0714 9.10268 52.0714 9.57143ZM59.7857 7C59.7857 6.53125 59.3973 6.14286 58.9286 6.14286H40.0714C39.6027 6.14286 39.2143 6.53125 39.2143 7V19.8571C39.2143 20.3259 39.6027 20.7143 40.0714 20.7143H58.9286C59.3973 20.7143 59.7857 20.3259 59.7857 19.8571V7ZM60.6429 0.999999C60.6429 0.531249 60.2545 0.142856 59.7857 0.142856H39.2143C38.7455 0.142856 38.3571 0.531249 38.3571 0.999999V4.42857C38.3571 4.89732 38.7455 5.28571 39.2143 5.28571H59.7857C60.2545 5.28571 60.6429 4.89732 60.6429 4.42857V0.999999Z" fill="#848484"/>
<path d="M12.7715 44.0352C12.7715 45.3828 12.2702 46.4147 11.2676 47.1309C10.2715 47.8405 8.80664 48.1953 6.87305 48.1953C5.10872 48.1953 3.72526 47.8828 2.72266 47.2578C1.72005 46.6328 1.07552 45.6855 0.789062 44.416L3.57227 43.957C3.76107 44.6862 4.12891 45.2168 4.67578 45.5488C5.22266 45.8743 5.98112 46.0371 6.95117 46.0371C8.96289 46.0371 9.96875 45.4251 9.96875 44.2012C9.96875 43.8105 9.85156 43.4883 9.61719 43.2344C9.38932 42.9805 9.0638 42.7689 8.64062 42.5996C8.22396 42.4303 7.41992 42.2253 6.22852 41.9844C5.19987 41.7435 4.48372 41.5514 4.08008 41.4082C3.67643 41.2585 3.31185 41.0859 2.98633 40.8906C2.66081 40.6888 2.38411 40.4479 2.15625 40.168C1.92839 39.888 1.74935 39.5592 1.61914 39.1816C1.49544 38.804 1.43359 38.3711 1.43359 37.8828C1.43359 36.6393 1.89909 35.6888 2.83008 35.0312C3.76758 34.3672 5.12826 34.0352 6.91211 34.0352C8.61784 34.0352 9.89714 34.3021 10.75 34.8359C11.6094 35.3698 12.1628 36.252 12.4102 37.4824L9.61719 37.8633C9.47396 37.2708 9.18099 36.8249 8.73828 36.5254C8.30208 36.2259 7.67383 36.0762 6.85352 36.0762C5.10872 36.0762 4.23633 36.623 4.23633 37.7168C4.23633 38.0749 4.32747 38.3678 4.50977 38.5957C4.69857 38.8236 4.97526 39.0189 5.33984 39.1816C5.70443 39.3379 6.44336 39.5365 7.55664 39.7773C8.87826 40.0573 9.82227 40.3177 10.3887 40.5586C10.9616 40.793 11.4141 41.0697 11.7461 41.3887C12.0781 41.7012 12.332 42.0788 12.5078 42.5215C12.6836 42.9577 12.7715 43.4622 12.7715 44.0352ZM21.1016 36.4668V48H18.2207V36.4668H13.7773V34.2402H25.5547V36.4668H21.1016ZM40.125 41.0566C40.125 42.4889 39.8418 43.7487 39.2754 44.8359C38.709 45.9232 37.8984 46.7565 36.8438 47.3359C35.7891 47.9089 34.5586 48.1953 33.1523 48.1953C30.9909 48.1953 29.2949 47.5605 28.0645 46.291C26.8405 45.015 26.2285 43.2702 26.2285 41.0566C26.2285 38.8496 26.8405 37.1276 28.0645 35.8906C29.2884 34.6536 30.9909 34.0352 33.1719 34.0352C35.3529 34.0352 37.0553 34.6602 38.2793 35.9102C39.5098 37.1602 40.125 38.8757 40.125 41.0566ZM37.1855 41.0566C37.1855 39.5723 36.834 38.4102 36.1309 37.5703C35.4277 36.724 34.4414 36.3008 33.1719 36.3008C31.8828 36.3008 30.8867 36.7207 30.1836 37.5605C29.4805 38.3939 29.1289 39.5592 29.1289 41.0566C29.1289 42.5671 29.487 43.7585 30.2031 44.6309C30.9258 45.4967 31.9089 45.9297 33.1523 45.9297C34.4414 45.9297 35.4342 45.5065 36.1309 44.6602C36.834 43.8138 37.1855 42.6126 37.1855 41.0566ZM51.7656 48L48.5723 42.7754H45.1934V48H42.3125V34.2402H49.1875C50.8281 34.2402 52.0944 34.5951 52.9863 35.3047C53.8783 36.0078 54.3242 37.0202 54.3242 38.3418C54.3242 39.3053 54.0508 40.1387 53.5039 40.8418C52.957 41.5384 52.2181 41.9974 51.2871 42.2188L55.0078 48H51.7656ZM51.4238 38.459C51.4238 37.1374 50.5775 36.4766 48.8848 36.4766H45.1934V40.5391H48.9629C49.7702 40.5391 50.3822 40.3568 50.7988 39.9922C51.2155 39.6276 51.4238 39.1165 51.4238 38.459ZM66.4922 48L65.2715 44.4844H60.0273L58.8066 48H55.9258L60.9453 34.2402H64.3438L69.3438 48H66.4922ZM62.6445 36.3594L62.5859 36.5742C62.5208 36.8086 62.4427 37.0755 62.3516 37.375C62.2604 37.6745 61.7005 39.3216 60.6719 42.3164H64.627L63.2695 38.3613L62.8496 37.0332L62.6445 36.3594ZM77.752 45.9395C78.5007 45.9395 79.2266 45.832 79.9297 45.6172C80.6328 45.3958 81.1764 45.1159 81.5605 44.7773V42.873H78.2012V40.7441H84.1973V45.8027C83.4681 46.5514 82.5176 47.1374 81.3457 47.5605C80.1803 47.9837 78.9564 48.1953 77.6738 48.1953C75.4342 48.1953 73.7122 47.5768 72.5078 46.3398C71.3034 45.0964 70.7012 43.3353 70.7012 41.0566C70.7012 38.791 71.3066 37.056 72.5176 35.8516C73.7285 34.6406 75.4701 34.0352 77.7422 34.0352C80.9714 34.0352 83.0254 35.2298 83.9043 37.6191L81.248 38.4199C80.9616 37.7233 80.5124 37.196 79.9004 36.8379C79.2884 36.4798 78.569 36.3008 77.7422 36.3008C76.388 36.3008 75.3594 36.7109 74.6562 37.5312C73.9531 38.3516 73.6016 39.5267 73.6016 41.0566C73.6016 42.6126 73.9629 43.8171 74.6855 44.6699C75.4147 45.5163 76.4368 45.9395 77.752 45.9395ZM86.7852 48V34.2402H97.6055V36.4668H89.666V39.9238H97.0098V42.1504H89.666V45.7734H98.0059V48H86.7852Z" fill="#484848"/>
</svg>
