<svg width="97" height="51" viewBox="0 0 97 51" fill="none" xmlns="http://www.w3.org/2000/svg">
<path d="M48 0.42857C41.3705 0.42857 36 5.79911 36 12.4286C36 19.058 41.3705 24.4286 48 24.4286C54.6295 24.4286 60 19.058 60 12.4286C60 5.79911 54.6295 0.42857 48 0.42857ZM48 2.14286C49.7411 2.14286 51.3884 2.58482 52.8348 3.34821L50.2366 5.94643C49.5268 5.70536 48.7902 5.57143 48 5.57143C47.2232 5.57143 46.4732 5.70536 45.7634 5.94643L43.1652 3.34821C44.6116 2.58482 46.2589 2.14286 48 2.14286ZM38.9196 17.2634C38.1563 15.817 37.7143 14.1696 37.7143 12.4286C37.7143 10.6875 38.1563 9.04018 38.9196 7.59375L41.5179 10.192C41.2768 10.9018 41.1429 11.6384 41.1429 12.4286C41.1429 13.2054 41.2768 13.9554 41.5179 14.6652L38.9196 17.2634ZM48 22.7143C46.2589 22.7143 44.6116 22.2723 43.1652 21.5089L45.7634 18.9107C46.4732 19.1518 47.2232 19.2857 48 19.2857C48.7902 19.2857 49.5268 19.1518 50.2366 18.9107L52.8348 21.5089C51.3884 22.2723 49.7411 22.7143 48 22.7143ZM48 17.5714C45.1607 17.5714 42.8571 15.2679 42.8571 12.4286C42.8571 9.58928 45.1607 7.28571 48 7.28571C50.8393 7.28571 53.1429 9.58928 53.1429 12.4286C53.1429 15.2679 50.8393 17.5714 48 17.5714ZM54.4821 14.6652C54.7232 13.9554 54.8571 13.2054 54.8571 12.4286C54.8571 11.6518 54.7232 10.9018 54.4821 10.192L57.0804 7.59375C57.8438 9.04018 58.2857 10.6875 58.2857 12.4286C58.2857 14.1696 57.8438 15.817 57.0804 17.2634L54.4821 14.6652Z" fill="#848484"/>
<path d="M12.1992 46.0352C12.1992 47.3828 11.6979 48.4147 10.6953 49.1309C9.69922 49.8405 8.23438 50.1953 6.30078 50.1953C4.53646 50.1953 3.15299 49.8828 2.15039 49.2578C1.14779 48.6328 0.503255 47.6855 0.216797 46.416L3 45.957C3.1888 46.6862 3.55664 47.2168 4.10352 47.5488C4.65039 47.8743 5.40885 48.0371 6.37891 48.0371C8.39062 48.0371 9.39648 47.4251 9.39648 46.2012C9.39648 45.8105 9.2793 45.4883 9.04492 45.2344C8.81706 44.9805 8.49154 44.7689 8.06836 44.5996C7.65169 44.4303 6.84766 44.2253 5.65625 43.9844C4.6276 43.7435 3.91146 43.5514 3.50781 43.4082C3.10417 43.2585 2.73958 43.0859 2.41406 42.8906C2.08854 42.6888 1.81185 42.4479 1.58398 42.168C1.35612 41.888 1.17708 41.5592 1.04688 41.1816C0.923177 40.804 0.861328 40.3711 0.861328 39.8828C0.861328 38.6393 1.32682 37.6888 2.25781 37.0312C3.19531 36.3672 4.55599 36.0352 6.33984 36.0352C8.04557 36.0352 9.32487 36.3021 10.1777 36.8359C11.0371 37.3698 11.5905 38.252 11.8379 39.4824L9.04492 39.8633C8.90169 39.2708 8.60872 38.8249 8.16602 38.5254C7.72982 38.2259 7.10156 38.0762 6.28125 38.0762C4.53646 38.0762 3.66406 38.623 3.66406 39.7168C3.66406 40.0749 3.75521 40.3678 3.9375 40.5957C4.1263 40.8236 4.40299 41.0189 4.76758 41.1816C5.13216 41.3379 5.87109 41.5365 6.98438 41.7773C8.30599 42.0573 9.25 42.3177 9.81641 42.5586C10.3893 42.793 10.8418 43.0697 11.1738 43.3887C11.5059 43.7012 11.7598 44.0788 11.9355 44.5215C12.1113 44.9577 12.1992 45.4622 12.1992 46.0352ZM20.041 50.1953C18.1465 50.1953 16.6947 49.7331 15.6855 48.8086C14.6829 47.8841 14.1816 46.5625 14.1816 44.8438V36.2402H17.0625V44.6191C17.0625 45.7064 17.3197 46.5332 17.834 47.0996C18.3548 47.6595 19.1165 47.9395 20.1191 47.9395C21.1478 47.9395 21.9388 47.6465 22.4922 47.0605C23.0456 46.4681 23.3223 45.6217 23.3223 44.5215V36.2402H26.2031V44.6973C26.2031 46.4421 25.6628 47.7962 24.582 48.7598C23.5078 49.7168 21.9941 50.1953 20.041 50.1953ZM40.0898 40.5957C40.0898 41.4811 39.888 42.2721 39.4844 42.9688C39.0807 43.6654 38.5013 44.2057 37.7461 44.5898C36.9974 44.9674 36.1055 45.1562 35.0703 45.1562H31.6523V50H28.7715V36.2402H34.9531C36.6003 36.2402 37.8665 36.6211 38.752 37.3828C39.6439 38.138 40.0898 39.209 40.0898 40.5957ZM37.1895 40.6445C37.1895 39.1992 36.3366 38.4766 34.6309 38.4766H31.6523V42.9395H34.709C35.5033 42.9395 36.1152 42.7441 36.5449 42.3535C36.9746 41.9564 37.1895 41.3867 37.1895 40.6445ZM53.4297 40.5957C53.4297 41.4811 53.2279 42.2721 52.8242 42.9688C52.4206 43.6654 51.8411 44.2057 51.0859 44.5898C50.3372 44.9674 49.4453 45.1562 48.4102 45.1562H44.9922V50H42.1113V36.2402H48.293C49.9401 36.2402 51.2064 36.6211 52.0918 37.3828C52.9837 38.138 53.4297 39.209 53.4297 40.5957ZM50.5293 40.6445C50.5293 39.1992 49.6764 38.4766 47.9707 38.4766H44.9922V42.9395H48.0488C48.8431 42.9395 49.4551 42.7441 49.8848 42.3535C50.3145 41.9564 50.5293 41.3867 50.5293 40.6445ZM68.8301 43.0566C68.8301 44.4889 68.5469 45.7487 67.9805 46.8359C67.4141 47.9232 66.6035 48.7565 65.5488 49.3359C64.4941 49.9089 63.2637 50.1953 61.8574 50.1953C59.696 50.1953 58 49.5605 56.7695 48.291C55.5456 47.015 54.9336 45.2702 54.9336 43.0566C54.9336 40.8496 55.5456 39.1276 56.7695 37.8906C57.9935 36.6536 59.696 36.0352 61.877 36.0352C64.0579 36.0352 65.7604 36.6602 66.9844 37.9102C68.2148 39.1602 68.8301 40.8757 68.8301 43.0566ZM65.8906 43.0566C65.8906 41.5723 65.5391 40.4102 64.8359 39.5703C64.1328 38.724 63.1465 38.3008 61.877 38.3008C60.5879 38.3008 59.5918 38.7207 58.8887 39.5605C58.1855 40.3939 57.834 41.5592 57.834 43.0566C57.834 44.5671 58.1921 45.7585 58.9082 46.6309C59.6309 47.4967 60.6139 47.9297 61.8574 47.9297C63.1465 47.9297 64.1393 47.5065 64.8359 46.6602C65.5391 45.8138 65.8906 44.6126 65.8906 43.0566ZM80.4707 50L77.2773 44.7754H73.8984V50H71.0176V36.2402H77.8926C79.5332 36.2402 80.7995 36.5951 81.6914 37.3047C82.5833 38.0078 83.0293 39.0202 83.0293 40.3418C83.0293 41.3053 82.7559 42.1387 82.209 42.8418C81.6621 43.5384 80.9232 43.9974 79.9922 44.2188L83.7129 50H80.4707ZM80.1289 40.459C80.1289 39.1374 79.2826 38.4766 77.5898 38.4766H73.8984V42.5391H77.668C78.4753 42.5391 79.0872 42.3568 79.5039 41.9922C79.9206 41.6276 80.1289 41.1165 80.1289 40.459ZM91.6816 38.4668V50H88.8008V38.4668H84.3574V36.2402H96.1348V38.4668H91.6816Z" fill="#484848"/>
</svg>
