<svg width="68" height="51" viewBox="0 0 68 51" fill="none" xmlns="http://www.w3.org/2000/svg">
<path d="M28.5865 12.4286C27.8901 11.4241 27.5017 10.2187 27.5017 9C27.5017 8.70536 27.5285 8.41071 27.5686 8.11607C26.9927 8.31696 26.4035 8.42411 25.7874 8.42411C23.9794 8.42411 22.5865 7.28571 22.3052 7.28571C20.6044 7.28571 20.6445 10.9286 20.6445 12.0134C20.6445 13.5 21.9035 14.1429 23.2427 14.1429H25.0374C25.9347 13.0714 27.1936 12.4687 28.5865 12.4286ZM42.9302 20.9598C42.9302 17.933 42.2204 13.2857 38.2963 13.2857C37.841 13.2857 36.1802 15.1473 33.5017 15.1473C30.8231 15.1473 29.1624 13.2857 28.707 13.2857C24.7829 13.2857 24.0731 17.933 24.0731 20.9598C24.0731 23.1295 25.5061 24.4286 27.649 24.4286H39.3544C41.4972 24.4286 42.9302 23.1295 42.9302 20.9598ZM29.216 3.85714C29.216 1.96875 27.6758 0.42857 25.7874 0.42857C23.899 0.42857 22.3588 1.96875 22.3588 3.85714C22.3588 5.74553 23.899 7.28571 25.7874 7.28571C27.6758 7.28571 29.216 5.74553 29.216 3.85714ZM38.6445 9C38.6445 6.16071 36.341 3.85714 33.5017 3.85714C30.6624 3.85714 28.3588 6.16071 28.3588 9C28.3588 11.8393 30.6624 14.1429 33.5017 14.1429C36.341 14.1429 38.6445 11.8393 38.6445 9ZM46.3588 12.0134C46.3588 10.9286 46.399 7.28571 44.6981 7.28571C44.4169 7.28571 43.024 8.42411 41.216 8.42411C40.5999 8.42411 40.0106 8.31696 39.4347 8.11607C39.4749 8.41071 39.5017 8.70536 39.5017 9C39.5017 10.2187 39.1133 11.4241 38.4169 12.4286C39.8097 12.4687 41.0686 13.0714 41.966 14.1429H43.7606C45.0999 14.1429 46.3588 13.5 46.3588 12.0134ZM44.6445 3.85714C44.6445 1.96875 43.1044 0.42857 41.216 0.42857C39.3276 0.42857 37.7874 1.96875 37.7874 3.85714C37.7874 5.74553 39.3276 7.28571 41.216 7.28571C43.1044 7.28571 44.6445 5.74553 44.6445 3.85714Z" fill="#848484"/>
<path d="M6.09766 50.1953C4.20312 50.1953 2.7513 49.7331 1.74219 48.8086C0.739583 47.8841 0.238281 46.5625 0.238281 44.8438V36.2402H3.11914V44.6191C3.11914 45.7064 3.3763 46.5332 3.89062 47.0996C4.41146 47.6595 5.17318 47.9395 6.17578 47.9395C7.20443 47.9395 7.99544 47.6465 8.54883 47.0605C9.10221 46.4681 9.37891 45.6217 9.37891 44.5215V36.2402H12.2598V44.6973C12.2598 46.4421 11.7194 47.7962 10.6387 48.7598C9.56445 49.7168 8.05078 50.1953 6.09766 50.1953ZM26.0488 46.0352C26.0488 47.3828 25.5475 48.4147 24.5449 49.1309C23.5488 49.8405 22.084 50.1953 20.1504 50.1953C18.3861 50.1953 17.0026 49.8828 16 49.2578C14.9974 48.6328 14.3529 47.6855 14.0664 46.416L16.8496 45.957C17.0384 46.6862 17.4062 47.2168 17.9531 47.5488C18.5 47.8743 19.2585 48.0371 20.2285 48.0371C22.2402 48.0371 23.2461 47.4251 23.2461 46.2012C23.2461 45.8105 23.1289 45.4883 22.8945 45.2344C22.6667 44.9805 22.3411 44.7689 21.918 44.5996C21.5013 44.4303 20.6973 44.2253 19.5059 43.9844C18.4772 43.7435 17.7611 43.5514 17.3574 43.4082C16.9538 43.2585 16.5892 43.0859 16.2637 42.8906C15.9382 42.6888 15.6615 42.4479 15.4336 42.168C15.2057 41.888 15.0267 41.5592 14.8965 41.1816C14.7728 40.804 14.7109 40.3711 14.7109 39.8828C14.7109 38.6393 15.1764 37.6888 16.1074 37.0312C17.0449 36.3672 18.4056 36.0352 20.1895 36.0352C21.8952 36.0352 23.1745 36.3021 24.0273 36.8359C24.8867 37.3698 25.4401 38.252 25.6875 39.4824L22.8945 39.8633C22.7513 39.2708 22.4583 38.8249 22.0156 38.5254C21.5794 38.2259 20.9512 38.0762 20.1309 38.0762C18.3861 38.0762 17.5137 38.623 17.5137 39.7168C17.5137 40.0749 17.6048 40.3678 17.7871 40.5957C17.9759 40.8236 18.2526 41.0189 18.6172 41.1816C18.9818 41.3379 19.7207 41.5365 20.834 41.7773C22.1556 42.0573 23.0996 42.3177 23.666 42.5586C24.2389 42.793 24.6914 43.0697 25.0234 43.3887C25.3555 43.7012 25.6094 44.0788 25.7852 44.5215C25.9609 44.9577 26.0488 45.4622 26.0488 46.0352ZM28.168 50V36.2402H38.9883V38.4668H31.0488V41.9238H38.3926V44.1504H31.0488V47.7734H39.3887V50H28.168ZM50.9609 50L47.7676 44.7754H44.3887V50H41.5078V36.2402H48.3828C50.0234 36.2402 51.2897 36.5951 52.1816 37.3047C53.0736 38.0078 53.5195 39.0202 53.5195 40.3418C53.5195 41.3053 53.2461 42.1387 52.6992 42.8418C52.1523 43.5384 51.4134 43.9974 50.4824 44.2188L54.2031 50H50.9609ZM50.6191 40.459C50.6191 39.1374 49.7728 38.4766 48.0801 38.4766H44.3887V42.5391H48.1582C48.9655 42.5391 49.5775 42.3568 49.9941 41.9922C50.4108 41.6276 50.6191 41.1165 50.6191 40.459ZM67.1816 46.0352C67.1816 47.3828 66.6803 48.4147 65.6777 49.1309C64.6816 49.8405 63.2168 50.1953 61.2832 50.1953C59.5189 50.1953 58.1354 49.8828 57.1328 49.2578C56.1302 48.6328 55.4857 47.6855 55.1992 46.416L57.9824 45.957C58.1712 46.6862 58.5391 47.2168 59.0859 47.5488C59.6328 47.8743 60.3913 48.0371 61.3613 48.0371C63.373 48.0371 64.3789 47.4251 64.3789 46.2012C64.3789 45.8105 64.2617 45.4883 64.0273 45.2344C63.7995 44.9805 63.474 44.7689 63.0508 44.5996C62.6341 44.4303 61.8301 44.2253 60.6387 43.9844C59.61 43.7435 58.8939 43.5514 58.4902 43.4082C58.0866 43.2585 57.722 43.0859 57.3965 42.8906C57.071 42.6888 56.7943 42.4479 56.5664 42.168C56.3385 41.888 56.1595 41.5592 56.0293 41.1816C55.9056 40.804 55.8438 40.3711 55.8438 39.8828C55.8438 38.6393 56.3092 37.6888 57.2402 37.0312C58.1777 36.3672 59.5384 36.0352 61.3223 36.0352C63.028 36.0352 64.3073 36.3021 65.1602 36.8359C66.0195 37.3698 66.5729 38.252 66.8203 39.4824L64.0273 39.8633C63.8841 39.2708 63.5911 38.8249 63.1484 38.5254C62.7122 38.2259 62.084 38.0762 61.2637 38.0762C59.5189 38.0762 58.6465 38.623 58.6465 39.7168C58.6465 40.0749 58.7376 40.3678 58.9199 40.5957C59.1087 40.8236 59.3854 41.0189 59.75 41.1816C60.1146 41.3379 60.8535 41.5365 61.9668 41.7773C63.2884 42.0573 64.2324 42.3177 64.7988 42.5586C65.3717 42.793 65.8242 43.0697 66.1562 43.3887C66.4883 43.7012 66.7422 44.0788 66.918 44.5215C67.0938 44.9577 67.1816 45.4622 67.1816 46.0352Z" fill="#484848"/>
</svg>
